ZhuqueFangsong.glyphspackage
{
export = 0;
glyphname = "mieumCho-ko";
layers = (
{
layerId = m01;
partSelection = {
Width = 2;
Height = 2;
};
shapes = (
{
attr = {
fillColor = (0,255);
};
closed = 1;
nodes = (
(293,241,l),
(290,350,o),
(286,444,o),
(281,597,c),
(309,618,l),
(261,650,o),
(220,672,o),
(155,701,c),
(143,680,l),
(192,643,o),
(216,601,o),
(221,553,cs),
(234,411,o),
(230,365,o),
(207,297,c),
(230,273,o),
(252,252,o),
(276,231,c)
);
},
{
attr = {
fillColor = (0,255);
};
closed = 1;
nodes = (
(732,450,o),
(741,500,o),
(756,561,cs),
(764,592,o),
(775,608,o),
(789,616,cs),
(799,622,o),
(801,630,o),
(789,638,cs),
(769,651,o),
(741,665,o),
(709,676,c),
(686,660,o),
(663,647,o),
(622,644,cs),
(531,636,o),
(406,628,o),
(265,623,c),
(265,579,l),
(679,602,l),
(675,500,o),
(670,435,o),
(659,321,c),
(715,318,l)
);
},
{
attr = {
fillColor = (0,255);
};
closed = 1;
nodes = (
(408,290,o),
(639,296,o),
(773,296,cs),
(791,296,o),
(795,309,o),
(782,318,cs),
(764,331,o),
(736,349,o),
(707,363,c),
(679,343,l),
(615,337,o),
(390,329,o),
(262,328,c),
(262,284,l)
);
}
);
width = 960;
},
{
associatedMasterId = m01;
layerId = "AC7E81CE-259F-4F3F-8851-98E0AA28430C";
name = Narrow;
partSelection = {
Width = 1;
Height = 2;
};
shapes = (
{
attr = {
fillColor = (0,255);
};
closed = 1;
nodes = (
(172,131,l),
(169,239,o),
(167,365,o),
(164,516,c),
(191,537,l),
(147,569,o),
(110,591,o),
(53,621,c),
(41,600,l),
(81,564,o),
(100,522,o),
(104,474,cs),
(116,313,o),
(117,254,o),
(94,187,c),
(112,162,o),
(133,142,o),
(155,121,c)
);
},
{
attr = {
fillColor = (0,255);
};
closed = 1;
nodes = (
(454,366,o),
(460,412,o),
(472,475,cs),
(478,506,o),
(490,521,o),
(503,530,cs),
(513,536,o),
(515,545,o),
(502,553,cs),
(482,567,o),
(456,577,o),
(423,588,c),
(399,572,o),
(378,560,o),
(341,556,cs),
(301,552,o),
(222,543,o),
(137,540,c),
(137,498,l),
(401,517,l),
(401,415,o),
(399,330,o),
(390,219,c),
(441,217,l)
);
},
{
attr = {
fillColor = (0,255);
};
closed = 1;
nodes = (
(270,192,o),
(373,196,o),
(492,195,cs),
(510,195,o),
(514,209,o),
(501,219,cs),
(484,233,o),
(458,249,o),
(429,264,c),
(406,242,l),
(348,236,o),
(252,230,o),
(139,229,c),
(139,187,l)
);
}
);
width = 960;
},
{
associatedMasterId = m01;
layerId = "B89EEC57-703A-48E3-92C2-8E4F2FCDFBAA";
name = Short;
partSelection = {
Width = 2;
Height = 1;
};
shapes = (
{
attr = {
fillColor = (0,255);
};
closed = 1;
nodes = (
(331,460,l),
(328,546,o),
(325,593,o),
(319,691,c),
(347,709,l),
(296,741,o),
(258,762,o),
(195,788,c),
(182,767,l),
(230,732,o),
(254,695,o),
(259,660,cs),
(272,578,o),
(271,551,o),
(248,501,c),
(268,484,o),
(290,467,o),
(315,450,c)
);
},
{
attr = {
fillColor = (0,255);
};
closed = 1;
nodes = (
(732,585,o),
(743,631,o),
(759,670,cs),
(769,693,o),
(781,703,o),
(791,709,cs),
(802,715,o),
(804,723,o),
(792,731,cs),
(774,743,o),
(747,758,o),
(714,768,c),
(693,752,o),
(668,740,o),
(627,737,cs),
(534,731,o),
(449,727,o),
(302,722,c),
(303,680,l),
(690,695,l),
(685,628,o),
(679,588,o),
(666,515,c),
(716,513,l)
);
},
{
attr = {
fillColor = (0,255);
};
closed = 1;
nodes = (
(456,493,o),
(641,498,o),
(777,498,cs),
(795,498,o),
(799,512,o),
(786,521,cs),
(768,533,o),
(739,549,o),
(710,561,c),
(684,539,l),
(617,535,o),
(438,531,o),
(306,530,c),
(306,488,l)
);
}
);
width = 960;
}
);
partsSettings = (
{
bottomValue = 0;
name = Width;
topValue = 100;
},
{
bottomValue = 0;
name = Height;
topValue = 100;
}
);
unicode = 4358;
}
{
export = 0;
glyphname = "rieulJong-ko";
layers = (
{
layerId = m01;
partSelection = {
Height = 2;
};
shapes = (
{
attr = {
fillColor = (0,255);
};
closed = 1;
nodes = (
(732,159,l),
(737,189,o),
(741,215,o),
(751,250,cs),
(757,271,o),
(764,282,o),
(778,294,cs),
(784,299,o),
(784,304,o),
(774,312,cs),
(759,323,o),
(731,338,o),
(701,353,c),
(681,336,o),
(653,327,o),
(581,325,cs),
(434,320,ls),
(353,317,o),
(296,317,o),
(213,325,c),
(209,309,l),
(293,262,l),
(403,273,o),
(490,280,o),
(692,284,c),
(678,159,l)
);
},
{
attr = {
fillColor = (0,255);
};
closed = 1;
nodes = (
(475,122,o),
(603,122,o),
(778,122,cs),
(800,122,o),
(801,135,o),
(787,148,cs),
(771,164,o),
(750,176,o),
(727,186,c),
(679,171,o),
(633,167,o),
(575,166,cs),
(453,163,ls),
(366,161,o),
(309,161,o),
(231,172,c),
(227,157,l),
(296,110,l)
);
},
{
attr = {
fillColor = (0,255);
};
closed = 1;
nodes = (
(575,-60,o),
(720,-55,o),
(844,-55,cs),
(867,-55,o),
(869,-39,o),
(855,-25,cs),
(840,-10,o),
(815,7,o),
(789,19,c),
(720,-4,o),
(653,-10,o),
(467,-10,cs),
(370,-10,o),
(337,6,o),
(337,35,cs),
(337,48,o),
(344,61,o),
(362,89,c),
(338,112,o),
(321,124,o),
(289,146,c),
(275,135,l),
(285,109,o),
(286,78,o),
(286,29,cs),
(286,-38,o),
(326,-60,o),
(455,-60,cs)
);
}
);
width = 960;
},
{
associatedMasterId = m01;
layerId = "370D2B3B-3A13-4589-8E18-1529FE265E41";
name = Short;
partSelection = {
Height = 1;
};
shapes = (
{
attr = {
fillColor = (0,255);
};
closed = 1;
nodes = (
(725,106,l),
(729,131,o),
(734,152,o),
(744,180,cs),
(749,196,o),
(758,204,o),
(769,213,cs),
(776,218,o),
(775,223,o),
(766,231,cs),
(750,243,o),
(723,259,o),
(695,271,c),
(670,255,o),
(644,247,o),
(570,244,cs),
(430,239,ls),
(348,236,o),
(291,239,o),
(207,243,c),
(204,227,l),
(288,186,l),
(398,195,o),
(509,199,o),
(685,203,c),
(672,106,l)
);
},
{
attr = {
fillColor = (0,255);
};
closed = 1;
nodes = (
(468,80,o),
(593,80,o),
(769,80,cs),
(790,80,o),
(794,90,o),
(781,102,cs),
(765,116,o),
(742,131,o),
(721,142,c),
(671,126,o),
(626,125,o),
(567,123,cs),
(447,118,ls),
(360,114,o),
(302,119,o),
(224,126,c),
(220,111,l),
(288,70,l)
);
},
{
attr = {
fillColor = (0,255);
};
closed = 1;
nodes = (
(576,-71,o),
(704,-64,o),
(828,-64,cs),
(851,-64,o),
(851,-49,o),
(836,-35,cs),
(821,-21,o),
(797,-5,o),
(771,7,c),
(706,-14,o),
(656,-22,o),
(463,-22,cs),
(366,-22,o),
(333,-10,o),
(333,16,cs),
(333,27,o),
(337,38,o),
(350,58,c),
(326,75,o),
(310,85,o),
(280,101,c),
(268,91,l),
(279,71,o),
(280,49,o),
(280,10,cs),
(280,-52,o),
(324,-71,o),
(453,-71,cs)
);
}
);
width = 960;
}
);
partsSettings = (
{
bottomValue = 0;
name = Height;
topValue = 100;
}
);
unicode = 4527;
}
{
glyphname = uni3661;
layers = (
{
layerId = m01;
shapes = (
{
attr = {
fillColor = (0,255);
};
closed = 1;
nodes = (
(496,-57,o),
(520,-27,o),
(540,5,cs),
(560,38,o),
(575,73,o),
(587,111,c),
(591,108,o),
(595,106,o),
(597,103,c),
(771,-38,l),
(817,-76,ls),
(827,-84,o),
(837,-87,o),
(849,-82,cs),
(853,-81,l),
(973,-45,l),
(972,-30,l),
(878,-22,o),
(795,13,o),
(716,64,c),
(720,206,l),
(723,207,l),
(771,213,o),
(820,218,o),
(869,219,cs),
(879,220,l),
(888,223,o),
(891,230,o),
(886,238,cs),
(880,247,l),
(853,271,l),
(833,286,l),
(799,260,o),
(762,251,o),
(721,246,c),
(724,287,o),
(722,327,o),
(731,366,c),
(709,386,o),
(684,401,o),
(660,417,c),
(651,408,l),
(658,393,o),
(662,378,o),
(664,362,cs),
(669,334,o),
(669,305,o),
(669,277,cs),
(670,217,o),
(669,157,o),
(668,97,c),
(667,94,l),
(596,143,l),
(624,262,l),
(608,289,o),
(584,314,o),
(560,338,c),
(551,333,l),
(557,295,ls),
(560,263,o),
(558,232,o),
(555,200,cs),
(551,152,o),
(540,106,o),
(524,62,cs),
(509,18,o),
(489,-22,o),
(462,-60,cs),
(454,-72,l),
(468,-83,l)
);
},
{
attr = {
fillColor = (0,255);
};
closed = 1;
nodes = (
(445,-95,l),
(450,-90,l),
(448,-73,l),
(451,78,l),
(456,222,ls),
(456,235,o),
(458,247,o),
(459,260,cs),
(462,276,l),
(436,298,l),
(512,439,l),
(495,468,o),
(474,494,o),
(453,521,c),
(442,514,l),
(445,500,o),
(446,486,o),
(444,471,cs),
(441,439,o),
(432,409,o),
(421,379,cs),
(402,326,o),
(377,275,o),
(346,228,cs),
(328,199,o),
(308,171,o),
(285,146,cs),
(254,110,l),
(268,95,l),
(322,140,o),
(366,191,o),
(405,250,c),
(406,240,l),
(402,72,ls),
(401,35,o),
(400,-3,o),
(388,-40,cs),
(386,-49,o),
(388,-55,o),
(395,-61,cs),
(425,-88,l),
(439,-100,l)
);
},
{
attr = {
fillColor = (0,255);
};
closed = 1;
nodes = (
(181,146,o),
(267,193,o),
(349,247,c),
(338,263,l),
(304,247,o),
(270,232,o),
(235,219,c),
(238,445,l),
(243,447,l),
(328,461,ls),
(335,462,o),
(340,465,o),
(342,471,c),
(342,477,o),
(338,481,o),
(334,485,cs),
(318,499,l),
(299,513,l),
(280,502,o),
(261,494,o),
(240,489,c),
(240,498,l),
(243,594,ls),
(244,616,o),
(244,639,o),
(250,661,cs),
(253,671,o),
(251,679,o),
(243,685,cs),
(238,689,l),
(170,742,l),
(155,753,l),
(146,743,l),
(153,728,ls),
(162,711,o),
(170,692,o),
(174,673,cs),
(180,649,o),
(182,624,o),
(183,599,cs),
(185,485,l),
(185,475,l),
(140,466,o),
(96,458,o),
(51,453,c),
(50,449,l),
(49,444,l),
(100,414,l),
(186,437,l),
(184,200,l),
(107,172,ls),
(82,163,o),
(56,156,o),
(30,151,c),
(28,145,o),
(32,142,o),
(35,139,c),
(83,104,l),
(97,95,l)
);
},
{
attr = {
fillColor = (0,255);
};
closed = 1;
nodes = (
(344,415,l),
(374,445,o),
(400,479,o),
(424,514,cs),
(451,553,o),
(472,594,o),
(492,636,cs),
(500,652,o),
(507,667,o),
(518,680,cs),
(521,683,o),
(522,687,o),
(524,690,c),
(519,702,o),
(472,765,o),
(456,782,c),
(447,778,l),
(449,765,l),
(451,725,l),
(449,699,o),
(444,674,o),
(437,650,cs),
(413,573,o),
(380,501,o),
(331,436,cs),
(323,425,l),
(340,412,l)
);
},
{
attr = {
fillColor = (0,255);
};
closed = 1;
nodes = (
(563,441,o),
(589,479,o),
(615,520,c),
(631,501,o),
(646,482,o),
(658,462,cs),
(667,450,ls),
(673,442,o),
(683,443,o),
(687,452,c),
(690,454,o),
(691,457,o),
(691,460,cs),
(693,498,ls),
(693,506,o),
(690,511,o),
(683,515,cs),
(639,539,l),
(630,544,l),
(690,674,l),
(672,704,o),
(647,728,o),
(624,755,c),
(615,751,l),
(613,749,l),
(613,746,l),
(621,715,o),
(620,684,o),
(613,654,cs),
(606,617,o),
(594,581,o),
(581,546,cs),
(565,509,o),
(548,473,o),
(525,440,cs),
(512,420,l),
(529,407,l)
);
},
{
attr = {
fillColor = (0,255);
};
closed = 1;
nodes = (
(737,451,o),
(766,492,o),
(793,536,c),
(796,533,ls),
(822,510,o),
(846,484,o),
(869,458,cs),
(895,425,ls),
(898,421,o),
(902,416,o),
(910,417,c),
(919,421,o),
(922,428,o),
(924,437,cs),
(928,457,o),
(926,478,o),
(923,499,c),
(905,511,o),
(886,521,o),
(866,530,cs),
(804,558,l),
(867,694,l),
(845,725,o),
(818,752,o),
(794,781,c),
(782,773,l),
(792,740,o),
(789,707,o),
(784,675,cs),
(778,635,o),
(766,596,o),
(753,558,cs),
(737,516,o),
(718,476,o),
(692,439,cs),
(684,426,l),
(701,416,l)
);
}
);
width = 1000;
}
);
unicode = 13921;
}
{
glyphname = uni477F;
layers = (
{
layerId = m01;
shapes = (
{
closed = 1;
nodes = (
(239,-77,o),
(339,-41,o),
(437,7,c),
(433,21,o),
(419,30,o),
(410,40,cs),
(400,49,o),
(389,59,o),
(377,68,c),
(463,76,o),
(549,80,o),
(637,84,c),
(643,78,l),
(660,53,l),
(664,49,o),
(668,45,o),
(674,44,cs),
(676,44,o),
(678,44,o),
(680,45,c),
(680,45,o),
(681,45,o),
(681,47,c),
(693,59,o),
(701,70,o),
(702,86,cs),
(706,141,ls),
(708,162,o),
(710,181,o),
(710,202,c),
(716,260,ls),
(718,273,o),
(718,287,o),
(720,300,cs),
(722,308,o),
(722,313,o),
(727,319,c),
(733,313,ls),
(758,292,o),
(781,269,o),
(806,248,cs),
(813,241,o),
(823,239,o),
(833,241,cs),
(879,248,o),
(924,258,o),
(972,265,c),
(972,283,l),
(970,285,o),
(967,285,o),
(965,285,cs),
(938,288,o),
(913,296,o),
(888,304,cs),
(848,315,o),
(812,329,o),
(777,350,cs),
(710,388,o),
(649,434,o),
(588,482,c),
(586,482,o),
(584,484,o),
(582,485,c),
(725,491,l),
(737,476,o),
(745,459,o),
(758,447,c),
(766,447,o),
(771,451,o),
(775,457,cs),
(783,466,o),
(787,476,o),
(790,489,cs),
(799,525,o),
(806,593,o),
(806,591,cs),
(819,662,l),
(823,677,o),
(829,688,o),
(840,698,c),
(846,709,l),
(825,732,o),
(800,750,o),
(775,769,c),
(773,767,o),
(771,765,o),
(769,765,c),
(756,751,o),
(743,744,o),
(724,740,cs),
(695,732,o),
(666,730,o),
(637,728,cs),
(580,727,l),
(576,715,l),
(582,702,o),
(592,690,o),
(603,683,c),
(762,702,l),
(762,673,o),
(760,648,o),
(756,621,c),
(745,631,o),
(737,639,o),
(727,644,c),
(720,642,o),
(714,639,o),
(708,637,cs),
(691,631,o),
(669,629,o),
(651,628,cs),
(590,623,l),
(573,622,l),
(570,614,l),
(576,602,o),
(586,591,o),
(595,581,c),
(647,591,o),
(701,595,o),
(754,598,c),
(748,554,ls),
(746,541,o),
(745,528,o),
(739,512,c),
(727,524,o),
(718,535,o),
(704,543,c),
(702,543,o),
(701,541,o),
(701,541,c),
(687,537,o),
(674,533,o),
(660,531,cs),
(572,524,l),
(561,522,o),
(549,520,o),
(540,520,cs),
(528,520,o),
(519,518,o),
(507,518,c),
(509,526,o),
(513,531,o),
(515,539,cs),
(526,581,o),
(532,623,o),
(536,667,cs),
(538,684,o),
(539,724,o),
(543,743,cs),
(545,750,o),
(549,758,o),
(550,766,c),
(549,775,o),
(543,779,o),
(537,783,cs),
(468,823,l),
(468,825,o),
(466,825,o),
(466,825,c),
(464,823,o),
(462,821,o),
(461,819,c),
(461,817,l),
(478,785,o),
(484,750,o),
(483,714,cs),
(481,655,o),
(482,570,o),
(450,514,c),
(262,503,l),
(261,570,l),
(300,573,o),
(339,577,o),
(419,585,c),
(427,585,l),
(438,587,o),
(442,595,o),
(435,604,cs),
(427,614,o),
(417,623,o),
(408,631,c),
(360,614,o),
(308,610,o),
(259,604,c),
(259,671,l),
(262,671,o),
(268,673,o),
(274,675,c),
(320,684,o),
(368,698,o),
(412,713,cs),
(419,715,o),
(425,717,o),
(433,717,cs),
(437,717,o),
(440,719,o),
(444,723,c),
(446,730,o),
(442,736,o),
(437,742,c),
(396,782,l),
(393,786,o),
(391,788,o),
(389,790,c),
(385,788,o),
(383,786,o),
(379,786,c),
(381,771,o),
(373,761,o),
(364,753,c),
(352,744,l),
(326,728,o),
(295,715,o),
(262,704,c),
(259,702,o),
(255,700,o),
(251,700,c),
(228,717,o),
(205,732,o),
(182,750,c),
(178,748,o),
(176,746,o),
(174,744,c),
(180,728,o),
(186,715,o),
(192,702,c),
(203,669,o),
(205,637,o),
(207,602,cs),
(207,533,ls),
(207,520,o),
(205,487,o),
(201,475,c),
(201,471,o),
(199,465,o),
(199,462,c),
(215,444,o),
(232,431,o),
(251,418,c),
(255,421,o),
(257,423,o),
(261,425,c),
(261,478,l),
(268,472,o),
(274,466,o),
(280,463,c),
(328,468,o),
(375,474,o),
(425,476,c),
(389,434,o),
(347,401,o),
(303,371,c),
(257,405,l),
(253,403,o),
(251,401,o),
(247,401,c),
(255,384,o),
(262,369,o),
(266,352,c),
(199,304,o),
(127,269,o),
(52,237,c),
(63,214,l),
(136,241,o),
(209,271,o),
(276,313,c),
(283,235,o),
(287,160,o),
(276,86,c),
(287,70,o),
(303,59,o),
(316,47,cs),
(320,44,o),
(324,44,o),
(326,45,c),
(333,51,o),
(331,57,o),
(333,65,c),
(347,67,o),
(360,67,o),
(373,68,c),
(372,49,o),
(360,38,o),
(347,26,c),
(329,15,ls),
(276,-20,o),
(217,-46,o),
(155,-64,cs),
(146,-67,o),
(138,-69,o),
(129,-73,c),
(130,-81,o),
(132,-88,o),
(134,-94,c)
);
},
{
closed = 1;
nodes = (
(815,-92,o),
(817,-85,o),
(817,-77,cs),
(815,-58,o),
(812,-41,o),
(808,-23,c),
(804,-16,o),
(800,-10,o),
(790,-6,cs),
(741,13,l),
(689,28,o),
(637,45,o),
(586,61,cs),
(576,65,o),
(567,67,o),
(557,70,c),
(551,51,l),
(614,21,o),
(674,-16,o),
(731,-56,cs),
(783,-92,l),
(790,-98,o),
(798,-102,o),
(806,-98,cs)
);
},
{
closed = 1;
nodes = (
(331,151,l),
(339,151,o),
(349,153,o),
(356,153,cs),
(416,158,l),
(412,158,o),
(594,171,o),
(618,174,cs),
(624,174,o),
(628,176,o),
(632,179,c),
(634,185,o),
(630,191,o),
(628,193,cs),
(597,221,l),
(546,200,o),
(395,192,o),
(331,185,c),
(331,208,l),
(331,231,l),
(341,233,o),
(352,233,o),
(362,235,c),
(419,239,l),
(471,244,l),
(536,248,l),
(597,254,l),
(620,254,l),
(626,256,o),
(630,258,o),
(634,262,c),
(636,269,o),
(632,273,o),
(626,277,c),
(618,287,o),
(609,294,o),
(599,302,c),
(576,292,o),
(551,287,o),
(526,285,cs),
(500,281,o),
(475,277,o),
(448,275,cs),
(431,273,o),
(414,271,o),
(396,271,cs),
(379,269,o),
(362,267,o),
(345,267,cs),
(331,267,l),
(331,319,l),
(442,329,o),
(553,338,o),
(664,344,c),
(664,275,l),
(660,208,l),
(655,126,l),
(653,118,o),
(653,111,o),
(647,107,c),
(636,116,o),
(622,126,o),
(613,135,c),
(561,113,o),
(415,106,o),
(352,103,cs),
(331,103,l)
);
},
{
closed = 1;
nodes = (
(402,392,o),
(452,430,o),
(490,482,c),
(504,482,o),
(517,484,o),
(532,484,c),
(567,455,o),
(603,424,o),
(637,394,c),
(628,386,o),
(618,384,o),
(607,382,cs),
(588,378,o),
(567,376,o),
(548,375,c),
(526,371,o),
(504,369,o),
(482,367,cs),
(465,365,o),
(448,363,o),
(429,363,c),
(377,357,l),
(368,357,o),
(360,355,o),
(350,355,c)
);
}
);
width = 1000;
}
);
unicode = 18303;
}
{
glyphname = uni5430;
layers = (
{
layerId = m01;
shapes = (
{
attr = {
fillColor = (0,255);
};
closed = 1;
nodes = (
(239,-57,ls),
(301,-9,o),
(355,46,o),
(400,109,cs),
(444,171,o),
(478,238,o),
(506,308,cs),
(529,365,o),
(546,423,o),
(562,483,cs),
(564,490,l),
(645,497,l),
(734,502,l),
(861,504,l),
(870,505,ls),
(876,506,o),
(881,508,o),
(884,514,c),
(886,522,o),
(881,528,o),
(876,533,cs),
(834,570,l),
(813,586,l),
(796,575,o),
(778,567,o),
(760,562,cs),
(730,553,o),
(700,548,o),
(669,543,cs),
(597,532,l),
(575,530,l),
(576,538,l),
(598,637,ls),
(603,657,o),
(609,677,o),
(621,694,c),
(625,702,l),
(620,715,o),
(547,791,o),
(531,800,c),
(521,792,l),
(523,783,l),
(536,752,o),
(538,720,o),
(536,687,cs),
(534,649,o),
(529,610,o),
(523,573,cs),
(515,524,l),
(462,519,o),
(410,515,o),
(358,514,c),
(357,505,l),
(405,467,l),
(439,474,o),
(472,481,o),
(507,483,c),
(483,396,ls),
(460,321,o),
(430,249,o),
(391,181,cs),
(342,96,o),
(280,22,o),
(208,-44,cs),
(180,-68,l),
(198,-88,l)
);
},
{
attr = {
fillColor = (0,255);
};
closed = 1;
nodes = (
(153,184,l),
(153,261,l),
(170,263,l),
(248,270,l),
(340,276,l),
(349,277,l),
(356,280,o),
(358,287,o),
(354,293,c),
(347,300,l),
(324,320,l),
(324,326,l),
(329,381,l),
(342,503,ls),
(345,528,o),
(349,552,o),
(368,572,cs),
(371,575,o),
(373,579,o),
(370,585,c),
(296,634,l),
(283,618,ls),
(273,606,o),
(260,598,o),
(244,595,cs),
(182,585,l),
(143,580,l),
(82,629,l),
(72,621,l),
(81,600,o),
(88,578,o),
(90,556,cs),
(93,526,o),
(96,496,o),
(97,466,cs),
(99,415,o),
(99,364,o),
(99,313,cs),
(99,287,o),
(99,260,o),
(91,234,cs),
(89,228,o),
(91,222,o),
(96,217,cs),
(127,189,l),
(144,175,l)
);
},
{
attr = {
fillColor = (0,255);
};
closed = 1;
nodes = (
(151,311,o),
(149,520,o),
(151,540,c),
(284,558,l),
(282,477,o),
(277,397,o),
(272,316,c),
(153,302,l)
);
},
{
attr = {
fillColor = (0,255);
};
closed = 1;
nodes = (
(849,-50,o),
(856,-45,o),
(860,-33,cs),
(863,-21,l),
(866,41,ls),
(866,49,o),
(863,56,o),
(858,62,c),
(831,88,ls),
(791,126,o),
(747,160,o),
(703,194,cs),
(697,198,l),
(691,192,l),
(686,186,l),
(714,151,o),
(740,113,o),
(764,74,c),
(551,38,l),
(563,62,ls),
(593,120,o),
(622,180,o),
(649,240,cs),
(666,276,o),
(677,315,o),
(703,346,c),
(703,353,o),
(698,358,o),
(694,362,cs),
(637,426,l),
(630,432,l),
(620,427,l),
(623,397,ls),
(625,364,o),
(619,332,o),
(610,300,cs),
(594,244,o),
(574,189,o),
(551,135,cs),
(540,109,o),
(527,84,o),
(515,58,cs),
(508,43,o),
(496,34,o),
(479,29,cs),
(434,17,l),
(449,-5,o),
(461,-26,o),
(479,-44,c),
(492,-40,l),
(515,-29,ls),
(550,-15,o),
(586,-5,o),
(622,4,cs),
(755,37,l),
(781,43,l),
(788,31,l),
(823,-33,l),
(833,-48,l)
);
}
);
width = 1000;
}
);
unicode = 21552;
}
{
glyphname = uni547A;
layers = (
{
layerId = m01;
shapes = (
{
attr = {
fillColor = (0,255);
};
closed = 1;
nodes = (
(729,-91,o),
(746,-66,o),
(758,-38,cs),
(787,36,l),
(826,149,ls),
(832,167,o),
(839,184,o),
(856,195,cs),
(861,198,o),
(863,204,o),
(860,211,c),
(840,231,o),
(816,249,o),
(792,268,c),
(777,253,o),
(759,245,o),
(739,241,cs),
(696,235,ls),
(671,232,o),
(647,228,o),
(622,226,cs),
(603,223,o),
(584,222,o),
(562,220,c),
(637,324,l),
(633,336,o),
(621,341,o),
(614,351,c),
(617,352,l),
(659,354,o),
(701,358,o),
(742,359,cs),
(911,363,l),
(926,364,ls),
(932,364,o),
(938,366,o),
(941,371,c),
(943,378,o),
(940,383,o),
(936,386,cs),
(878,430,l),
(876,430,l),
(862,424,ls),
(836,413,o),
(808,408,o),
(780,405,cs),
(644,391,ls),
(606,388,o),
(568,385,o),
(530,384,cs),
(400,379,l),
(393,379,l),
(390,372,l),
(406,358,o),
(420,343,o),
(437,332,c),
(484,341,o),
(530,347,o),
(577,349,c),
(574,337,ls),
(563,305,o),
(547,274,o),
(527,246,cs),
(514,226,o),
(496,213,o),
(472,208,cs),
(469,207,l),
(470,195,o),
(491,171,o),
(506,163,c),
(517,166,ls),
(536,171,o),
(555,176,o),
(575,179,cs),
(659,190,l),
(730,197,l),
(778,201,l),
(778,195,l),
(776,187,ls),
(766,140,o),
(752,93,o),
(735,47,cs),
(709,-15,l),
(706,-20,o),
(703,-25,o),
(696,-28,c),
(681,-23,l),
(566,28,l),
(553,33,l),
(547,23,l),
(557,14,ls),
(602,-23,o),
(643,-64,o),
(678,-110,cs),
(689,-124,o),
(693,-124,o),
(706,-112,cs)
);
},
{
attr = {
fillColor = (0,255);
};
closed = 1;
nodes = (
(184,139,l),
(183,168,o),
(181,196,o),
(182,225,c),
(346,239,l),
(388,242,ls),
(395,243,o),
(399,247,o),
(400,254,c),
(393,267,o),
(379,273,o),
(370,284,c),
(373,325,ls),
(376,373,o),
(379,422,o),
(387,469,cs),
(390,491,o),
(396,511,o),
(411,528,c),
(416,537,l),
(410,545,o),
(356,582,o),
(340,587,c),
(334,580,ls),
(321,565,o),
(304,555,o),
(284,552,cs),
(217,542,l),
(181,538,l),
(111,589,l),
(103,582,l),
(106,572,l),
(117,546,o),
(123,518,o),
(125,489,cs),
(127,450,o),
(129,412,o),
(129,373,cs),
(130,311,o),
(134,249,o),
(122,187,cs),
(121,180,o),
(123,175,o),
(129,170,cs),
(166,139,l),
(176,132,l)
);
},
{
attr = {
fillColor = (0,255);
};
closed = 1;
nodes = (
(182,497,l),
(330,514,l),
(318,282,l),
(273,275,o),
(228,270,o),
(182,265,c)
);
},
{
attr = {
fillColor = (0,255);
};
closed = 1;
nodes = (
(553,437,l),
(553,478,l),
(587,481,l),
(765,491,l),
(828,493,ls),
(838,493,o),
(840,495,o),
(844,505,c),
(837,518,o),
(822,523,o),
(812,534,c),
(813,542,l),
(827,622,ls),
(831,641,o),
(838,659,o),
(854,672,c),
(860,681,l),
(851,691,l),
(789,733,l),
(775,716,o),
(758,705,o),
(737,702,cs),
(643,690,l),
(587,685,l),
(547,682,l),
(524,701,o),
(499,716,o),
(474,732,c),
(466,724,l),
(469,719,ls),
(485,690,o),
(492,659,o),
(496,627,cs),
(500,589,o),
(501,550,o),
(500,512,cs),
(500,501,o),
(498,490,o),
(496,479,cs),
(494,471,o),
(496,465,o),
(502,460,cs),
(507,456,ls),
(519,446,o),
(530,435,o),
(543,429,c)
);
},
{
attr = {
fillColor = (0,255);
};
closed = 1;
nodes = (
(549,642,l),
(770,661,l),
(766,618,o),
(763,576,o),
(757,533,c),
(688,526,o),
(621,521,o),
(552,516,c)
);
}
);
width = 1000;
}
);
unicode = 21626;
}
{
glyphname = uni54B7;
layers = (
{
layerId = m01;
shapes = (
{
attr = {
fillColor = (0,255);
};
closed = 1;
nodes = (
(805,-70,o),
(845,-69,o),
(885,-62,cs),
(901,-59,o),
(917,-55,o),
(932,-48,cs),
(946,-42,o),
(950,-34,o),
(949,-19,cs),
(949,-13,l),
(942,25,o),
(940,63,o),
(938,102,cs),
(935,168,l),
(934,178,l),
(920,178,l),
(918,172,l),
(910,101,ls),
(907,77,o),
(902,53,o),
(893,31,cs),
(884,11,o),
(871,-2,o),
(849,-8,cs),
(821,-15,o),
(792,-17,o),
(763,-15,cs),
(750,-14,o),
(737,-10,o),
(724,-7,cs),
(712,-4,o),
(705,4,o),
(703,16,cs),
(701,28,o),
(699,41,o),
(699,54,cs),
(699,290,l),
(708,286,l),
(743,265,o),
(776,241,o),
(808,216,cs),
(855,176,ls),
(861,170,o),
(866,169,o),
(872,173,c),
(877,175,o),
(878,179,o),
(879,184,cs),
(883,206,o),
(879,228,o),
(872,248,cs),
(870,253,o),
(865,256,o),
(861,259,c),
(843,268,l),
(735,307,l),
(702,318,l),
(702,365,l),
(704,367,l),
(742,391,o),
(777,420,o),
(809,450,cs),
(875,511,l),
(882,519,l),
(862,550,o),
(839,576,o),
(816,603,c),
(810,601,l),
(806,599,l),
(811,566,o),
(800,537,o),
(785,509,cs),
(764,472,o),
(737,438,o),
(708,407,cs),
(702,401,l),
(704,455,l),
(711,626,ls),
(712,647,o),
(715,668,o),
(724,687,cs),
(726,690,o),
(726,693,o),
(727,697,c),
(716,711,l),
(654,768,l),
(634,786,l),
(626,781,l),
(624,779,l),
(625,775,l),
(646,734,o),
(654,689,o),
(654,643,cs),
(653,377,l),
(651,258,l),
(651,64,ls),
(651,41,o),
(653,18,o),
(658,-5,cs),
(664,-33,o),
(681,-50,o),
(708,-58,cs),
(727,-64,o),
(746,-66,o),
(765,-68,cs)
);
},
{
attr = {
fillColor = (0,255);
};
closed = 1;
nodes = (
(178,173,o),
(179,176,o),
(179,186,cs),
(178,244,l),
(179,253,l),
(362,268,ls),
(368,269,o),
(375,269,o),
(378,275,c),
(379,283,o),
(379,284,o),
(374,289,cs),
(364,299,l),
(350,311,l),
(351,321,l),
(358,411,l),
(367,492,ls),
(370,516,o),
(375,540,o),
(393,558,c),
(397,561,o),
(398,565,o),
(395,571,c),
(374,589,o),
(348,603,o),
(323,619,c),
(312,606,ls),
(302,593,o),
(290,585,o),
(274,582,cs),
(240,576,l),
(175,566,l),
(106,619,l),
(97,611,l),
(112,583,o),
(120,553,o),
(123,522,cs),
(126,484,o),
(128,446,o),
(128,409,cs),
(129,369,o),
(128,330,o),
(127,291,cs),
(127,269,o),
(124,247,o),
(118,226,c),
(117,215,l),
(134,197,o),
(150,180,o),
(169,167,c)
);
},
{
attr = {
fillColor = (0,255);
};
closed = 1;
nodes = (
(178,300,o),
(177,512,o),
(180,526,c),
(311,542,l),
(309,462,o),
(304,384,o),
(299,306,c),
(180,293,l)
);
},
{
attr = {
fillColor = (0,255);
};
closed = 1;
nodes = (
(315,-95,l),
(342,-81,o),
(368,-66,o),
(393,-48,cs),
(440,-14,o),
(480,26,o),
(510,76,cs),
(543,131,o),
(561,190,o),
(572,252,cs),
(578,285,o),
(582,318,o),
(584,351,cs),
(590,448,l),
(592,603,ls),
(592,616,o),
(594,630,o),
(596,643,cs),
(597,654,o),
(599,664,o),
(602,674,c),
(572,705,o),
(539,732,o),
(507,760,c),
(497,752,l),
(502,740,ls),
(506,731,o),
(511,722,o),
(514,712,cs),
(527,678,o),
(531,642,o),
(533,605,cs),
(536,523,ls),
(538,457,o),
(537,391,o),
(533,324,cs),
(530,299,l),
(517,291,ls),
(480,268,o),
(444,247,o),
(405,228,cs),
(375,213,o),
(345,197,o),
(311,190,c),
(309,189,l),
(309,180,l),
(356,141,l),
(364,137,l),
(521,257,l),
(523,256,l),
(500,110,o),
(424,0,o),
(298,-77,c),
(312,-96,l)
);
},
{
attr = {
fillColor = (0,255);
};
closed = 1;
nodes = (
(491,365,o),
(501,366,o),
(506,376,cs),
(508,381,o),
(509,387,o),
(509,392,cs),
(510,420,ls),
(510,438,o),
(502,451,o),
(486,459,cs),
(481,462,l),
(414,490,l),
(386,501,l),
(380,489,l),
(383,485,l),
(419,453,o),
(450,418,o),
(478,379,cs),
(483,373,ls)
);
}
);
width = 1000;
}
);
unicode = 21687;
}
{
glyphname = uni5641;
layers = (
{
layerId = m01;
shapes = (
{
attr = {
fillColor = (0,255);
};
closed = 1;
nodes = (
(353,212,ls),
(405,223,o),
(458,227,o),
(511,231,cs),
(717,240,ls),
(777,241,o),
(836,242,o),
(896,239,c),
(909,240,l),
(924,244,o),
(927,255,o),
(917,266,cs),
(906,276,l),
(871,302,l),
(864,306,l),
(847,299,ls),
(827,291,o),
(807,288,o),
(786,286,cs),
(711,278,l),
(688,278,l),
(693,378,l),
(729,381,l),
(826,385,l),
(833,386,ls),
(838,387,o),
(842,390,o),
(842,398,c),
(829,409,l),
(815,421,l),
(827,474,l),
(830,486,ls),
(833,499,o),
(838,510,o),
(848,519,cs),
(856,528,l),
(851,538,o),
(812,567,o),
(794,575,c),
(786,569,ls),
(778,564,o),
(771,558,o),
(763,555,cs),
(742,547,o),
(720,546,o),
(699,542,c),
(698,548,l),
(700,576,o),
(698,605,o),
(705,632,c),
(705,648,l),
(669,672,l),
(677,674,l),
(814,681,l),
(862,682,ls),
(870,682,o),
(876,685,o),
(880,692,c),
(882,698,o),
(878,703,o),
(874,707,cs),
(870,712,o),
(865,716,o),
(860,719,c),
(848,729,o),
(835,739,o),
(821,747,c),
(817,746,l),
(790,732,o),
(760,726,o),
(729,721,cs),
(661,713,l),
(583,706,l),
(504,701,ls),
(456,698,o),
(409,695,o),
(361,696,c),
(358,695,l),
(355,687,l),
(409,649,l),
(449,657,o),
(480,660,o),
(520,663,c),
(529,620,o),
(529,578,o),
(529,535,c),
(454,527,l),
(391,571,l),
(384,565,l),
(390,548,o),
(396,534,o),
(399,520,cs),
(407,485,o),
(408,450,o),
(408,414,cs),
(408,413,ls),
(406,399,o),
(401,393,o),
(387,389,c),
(387,381,l),
(416,358,l),
(452,366,o),
(488,371,o),
(524,375,c),
(524,268,l),
(294,257,l),
(293,250,l),
(346,211,l)
);
},
{
attr = {
fillColor = (0,255);
};
closed = 1;
nodes = (
(326,-45,o),
(331,-42,o),
(334,-37,c),
(351,-17,ls),
(374,15,o),
(392,50,o),
(406,87,cs),
(411,100,o),
(414,114,o),
(413,128,cs),
(412,148,o),
(404,167,o),
(398,186,c),
(385,183,l),
(386,157,o),
(378,133,o),
(366,111,cs),
(344,68,o),
(316,32,o),
(275,5,c),
(281,-14,l),
(292,-41,ls),
(299,-56,o),
(307,-58,o),
(321,-49,cs)
);
},
{
attr = {
fillColor = (0,255);
};
closed = 1;
nodes = (
(174,206,o),
(176,211,o),
(176,217,cs),
(176,309,l),
(188,311,l),
(221,313,l),
(329,323,l),
(345,325,l),
(354,328,o),
(357,335,o),
(351,343,c),
(342,352,l),
(324,369,l),
(327,429,l),
(334,506,l),
(344,565,ls),
(346,577,o),
(350,587,o),
(359,595,c),
(366,606,l),
(355,617,l),
(296,657,l),
(283,644,ls),
(273,634,o),
(262,627,o),
(249,624,cs),
(205,616,l),
(172,611,l),
(103,664,l),
(94,657,l),
(97,650,l),
(111,609,ls),
(119,579,o),
(121,549,o),
(122,518,cs),
(125,455,o),
(126,392,o),
(124,329,cs),
(124,304,o),
(123,279,o),
(114,254,c),
(113,249,l),
(120,239,o),
(159,208,o),
(168,204,c)
);
},
{
attr = {
fillColor = (0,255);
};
closed = 1;
nodes = (
(176,573,l),
(283,586,l),
(275,359,l),
(176,347,l)
);
},
{
attr = {
fillColor = (0,255);
};
closed = 1;
nodes = (
(885,-76,o),
(892,-70,o),
(894,-60,c),
(893,-50,o),
(886,-43,o),
(879,-37,cs),
(840,0,o),
(804,41,o),
(772,85,cs),
(750,116,l),
(744,114,l),
(739,111,l),
(754,69,o),
(772,29,o),
(785,-15,c),
(772,-15,l),
(752,-11,o),
(731,-8,o),
(711,-3,cs),
(670,6,o),
(632,21,o),
(597,43,cs),
(549,72,o),
(512,111,o),
(483,159,c),
(477,167,l),
(463,161,l),
(464,153,l),
(475,115,o),
(495,82,o),
(522,54,cs),
(568,5,o),
(623,-27,o),
(686,-48,cs),
(731,-63,o),
(776,-72,o),
(823,-75,cs),
(875,-76,ls)
);
},
{
attr = {
fillColor = (0,255);
};
closed = 1;
nodes = (
(648,71,o),
(655,71,o),
(661,78,cs),
(664,81,o),
(667,86,o),
(668,91,cs),
(672,104,o),
(675,118,o),
(677,131,cs),
(679,138,o),
(676,144,o),
(671,149,cs),
(665,155,o),
(660,161,o),
(653,166,cs),
(591,207,l),
(568,220,l),
(562,210,l),
(577,189,ls),
(599,157,o),
(616,124,o),
(635,91,cs),
(642,78,l)
);
},
{
attr = {
fillColor = (0,255);
};
closed = 1;
nodes = (
(934,23,o),
(942,29,o),
(943,42,cs),
(945,76,ls),
(945,98,o),
(936,114,o),
(917,124,c),
(916,125,o),
(914,127,o),
(912,127,c),
(811,178,l),
(769,198,l),
(761,187,l),
(764,185,ls),
(818,139,o),
(868,89,o),
(912,33,cs),
(919,25,l)
);
},
{
attr = {
fillColor = (0,255);
};
closed = 1;
nodes = (
(570,274,l),
(570,301,o),
(571,328,o),
(574,355,cs),
(575,364,o),
(578,373,o),
(585,380,c),
(590,387,o),
(590,390,o),
(583,396,cs),
(572,405,l),
(538,428,l),
(523,411,o),
(503,408,o),
(483,406,cs),
(455,403,l),
(455,490,l),
(477,493,o),
(500,495,o),
(522,499,cs),
(544,502,o),
(567,502,o),
(588,506,c),
(596,523,o),
(580,528,o),
(575,537,c),
(578,603,l),
(580,624,l),
(582,632,o),
(579,637,o),
(573,641,cs),
(536,664,l),
(571,668,o),
(613,671,o),
(648,673,c),
(650,655,l),
(652,555,ls),
(652,541,o),
(647,532,o),
(634,528,c),
(633,520,l),
(667,497,l),
(703,508,o),
(739,510,o),
(776,515,c),
(775,483,o),
(769,453,o),
(767,421,c),
(684,413,l),
(636,441,l),
(630,436,l),
(631,433,ls),
(639,414,o),
(643,395,o),
(643,375,cs),
(643,283,l),
(642,274,l),
(572,271,l)
);
}
);
width = 1000;
}
);
unicode = 22081;
}
{
color = 6;
glyphname = uni566F;
layers = (
{
layerId = m01;
shapes = (
{
attr = {
fillColor = (0,255);
};
closed = 1;
nodes = (
(387,374,o),
(392,382,o),
(396,390,cs),
(407,413,o),
(415,438,o),
(420,463,cs),
(425,490,l),
(443,471,l),
(583,489,o),
(723,497,o),
(864,508,c),
(858,485,o),
(843,468,o),
(833,449,c),
(842,441,l),
(845,442,l),
(879,461,o),
(916,474,o),
(954,482,cs),
(964,485,ls),
(975,489,o),
(977,495,o),
(971,505,c),
(956,521,l),
(898,570,l),
(886,580,l),
(881,575,ls),
(865,562,o),
(848,552,o),
(827,548,cs),
(762,538,l),
(739,535,l),
(850,654,l),
(848,659,l),
(797,715,l),
(807,716,o),
(816,719,o),
(826,719,cs),
(872,719,ls),
(878,719,o),
(883,719,o),
(885,727,c),
(884,730,o),
(882,735,o),
(879,738,cs),
(819,802,l),
(809,799,l),
(806,788,o),
(798,781,o),
(789,776,cs),
(776,770,ls),
(741,754,o),
(704,744,o),
(666,735,cs),
(584,716,o),
(501,702,o),
(417,693,cs),
(390,690,l),
(397,659,l),
(463,667,o),
(527,673,o),
(592,682,cs),
(785,711,l),
(787,694,o),
(782,677,o),
(775,662,cs),
(755,616,o),
(729,574,o),
(701,531,c),
(609,524,o),
(517,512,o),
(425,512,c),
(418,532,o),
(410,550,o),
(398,567,c),
(387,565,l),
(387,557,ls),
(386,538,o),
(387,518,o),
(385,499,cs),
(381,470,o),
(371,442,o),
(347,422,cs),
(336,413,l),
(355,370,ls),
(362,357,o),
(372,356,o),
(381,367,cs)
);
},
{
attr = {
fillColor = (0,255);
};
closed = 1;
nodes = (
(155,168,o),
(156,174,o),
(156,180,cs),
(156,232,l),
(157,240,l),
(179,242,l),
(300,251,l),
(333,253,ls),
(344,254,o),
(346,257,o),
(349,268,c),
(315,294,l),
(315,312,l),
(319,386,l),
(330,512,l),
(333,531,o),
(338,550,o),
(352,564,cs),
(359,571,o),
(358,577,o),
(350,583,cs),
(287,626,l),
(265,602,ls),
(259,595,o),
(252,591,o),
(243,590,cs),
(149,575,l),
(85,630,l),
(76,622,l),
(79,613,ls),
(87,593,o),
(94,572,o),
(96,551,cs),
(99,513,o),
(102,475,o),
(103,437,cs),
(103,277,ls),
(103,259,o),
(103,242,o),
(96,226,c),
(94,219,l),
(94,215,o),
(95,212,o),
(97,210,cs),
(112,194,o),
(128,178,o),
(147,165,c)
);
},
{
attr = {
fillColor = (0,255);
};
closed = 1;
nodes = (
(155,538,l),
(274,552,l),
(271,465,o),
(269,379,o),
(264,290,c),
(155,279,l)
);
},
{
attr = {
fillColor = (0,255);
};
closed = 1;
nodes = (
(341,-87,o),
(383,-78,o),
(425,-66,cs),
(491,-47,o),
(554,-20,o),
(611,18,cs),
(633,34,l),
(638,30,l),
(707,-22,l),
(779,-79,ls),
(788,-86,o),
(797,-89,o),
(809,-86,cs),
(957,-57,l),
(955,-38,l),
(904,-32,o),
(853,-24,o),
(805,-6,cs),
(757,12,o),
(712,37,o),
(667,63,c),
(671,67,l),
(750,150,ls),
(764,165,o),
(778,181,o),
(796,191,c),
(801,197,l),
(800,204,o),
(796,207,o),
(791,210,cs),
(772,222,l),
(725,249,l),
(717,241,ls),
(704,229,o),
(688,221,o),
(670,217,cs),
(588,201,l),
(553,196,l),
(578,227,ls),
(589,242,o),
(589,243,o),
(577,258,cs),
(538,302,l),
(529,298,l),
(529,282,ls),
(529,270,o),
(527,258,o),
(522,247,cs),
(507,215,o),
(488,187,o),
(463,161,cs),
(423,120,o),
(378,85,o),
(329,54,cs),
(314,44,l),
(325,23,l),
(387,53,o),
(444,90,o),
(496,135,c),
(532,114,o),
(563,87,o),
(597,63,c),
(591,59,ls),
(555,31,o),
(516,8,o),
(474,-11,cs),
(422,-34,o),
(367,-52,o),
(311,-67,cs),
(290,-73,l),
(296,-96,l)
);
},
{
attr = {
fillColor = (0,255);
};
closed = 1;
nodes = (
(593,110,l),
(537,149,l),
(521,159,l),
(531,170,l),
(551,159,l),
(703,186,l),
(704,184,l),
(684,148,o),
(658,117,o),
(628,88,c)
);
},
{
attr = {
fillColor = (0,255);
};
closed = 1;
nodes = (
(435,252,l),
(456,278,o),
(473,307,o),
(484,338,cs),
(488,349,o),
(491,360,o),
(490,371,cs),
(488,391,o),
(482,410,o),
(478,429,c),
(465,427,l),
(461,371,o),
(438,327,o),
(394,293,c),
(395,282,o),
(403,255,o),
(407,247,cs),
(411,239,o),
(417,238,o),
(424,242,c)
);
},
{
attr = {
fillColor = (0,255);
};
closed = 1;
nodes = (
(641,376,o),
(644,380,o),
(644,384,c),
(651,421,ls),
(652,427,o),
(650,432,o),
(645,436,cs),
(636,444,l),
(580,481,l),
(572,471,l),
(575,466,l),
(616,385,l),
(621,376,ls),
(626,369,o),
(632,368,o),
(638,374,c)
);
},
{
attr = {
fillColor = (0,255);
};
closed = 1;
nodes = (
(542,543,l),
(550,572,ls),
(553,584,o),
(550,594,o),
(540,603,cs),
(478,656,l),
(470,661,l),
(461,653,l),
(462,649,l),
(482,608,l),
(514,538,ls),
(519,526,o),
(529,525,o),
(537,535,cs)
);
},
{
attr = {
fillColor = (0,255);
};
closed = 1;
nodes = (
(871,300,o),
(880,304,o),
(882,313,c),
(883,327,l),
(880,366,ls),
(880,377,o),
(875,384,o),
(866,389,cs),
(857,394,o),
(848,400,o),
(838,404,cs),
(736,444,l),
(729,446,l),
(723,435,l),
(771,397,o),
(816,357,o),
(856,311,c),
(864,305,ls)
);
},
{
attr = {
fillColor = (0,255);
};
closed = 1;
nodes = (
(667,564,l),
(676,588,ls),
(681,601,o),
(678,611,o),
(668,620,cs),
(606,675,l),
(600,678,l),
(590,671,l),
(592,665,l),
(617,608,l),
(638,556,ls),
(643,543,o),
(654,542,o),
(662,553,c)
);
},
{
attr = {
fillColor = (0,255);
};
closed = 1;
nodes = (
(788,270,ls),
(803,271,o),
(809,284,o),
(797,295,cs),
(777,315,o),
(741,358,o),
(715,402,c),
(706,400,l),
(709,377,l),
(716,336,ls),
(719,317,o),
(716,314,o),
(698,314,cs),
(596,314,o),
(551,369,o),
(522,420,c),
(512,416,l),
(539,297,o),
(642,259,o),
(752,267,cs)
);
}
);
width = 1000;
}
);
unicode = 22127;
}
{
glyphname = uni56B1;
layers = (
{
layerId = m01;
shapes = (
{
attr = {
fillColor = (0,255);
};
closed = 1;
nodes = (
(952,-114,o),
(963,-102,o),
(960,-85,cs),
(957,-61,o),
(954,-38,o),
(953,-14,cs),
(952,32,o),
(952,78,o),
(955,124,cs),
(955,131,l),
(949,133,l),
(943,133,l),
(942,125,ls),
(933,79,o),
(922,33,o),
(908,-12,cs),
(904,-24,l),
(857,17,o),
(806,109,o),
(800,141,c),
(817,164,o),
(831,189,o),
(843,215,cs),
(896,323,l),
(896,336,l),
(891,344,l),
(847,412,l),
(844,415,l),
(839,415,l),
(833,414,l),
(839,335,o),
(816,263,o),
(782,193,c),
(766,229,o),
(740,417,o),
(744,442,c),
(776,445,o),
(807,449,o),
(839,451,cs),
(864,454,o),
(889,454,o),
(914,456,cs),
(920,456,o),
(926,458,o),
(929,464,c),
(929,472,o),
(929,475,o),
(924,480,cs),
(909,493,o),
(894,504,o),
(877,513,c),
(852,495,o),
(759,477,o),
(742,478,c),
(741,490,ls),
(739,542,o),
(738,594,o),
(741,647,cs),
(742,667,o),
(744,686,o),
(752,705,cs),
(756,715,o),
(755,718,o),
(747,725,cs),
(722,747,ls),
(702,764,o),
(681,780,o),
(659,795,c),
(650,785,l),
(668,760,o),
(677,732,o),
(681,703,cs),
(684,681,o),
(686,658,o),
(687,635,cs),
(695,498,l),
(695,470,l),
(598,459,l),
(594,485,l),
(581,486,l),
(580,480,l),
(569,439,ls),
(566,428,o),
(557,422,o),
(546,420,cs),
(531,417,o),
(516,420,o),
(502,422,cs),
(493,423,o),
(488,429,o),
(487,437,c),
(487,468,l),
(570,478,l),
(576,488,o),
(576,490,o),
(570,496,cs),
(563,504,o),
(554,511,o),
(546,518,c),
(527,508,o),
(508,504,o),
(487,501,c),
(494,537,l),
(465,558,l),
(598,574,l),
(573,518,l),
(587,507,l),
(612,524,o),
(635,546,o),
(665,553,c),
(670,555,o),
(673,558,o),
(674,564,c),
(658,589,o),
(634,607,o),
(613,628,c),
(600,618,o),
(586,612,o),
(571,608,cs),
(517,598,l),
(486,594,l),
(489,655,l),
(498,657,l),
(547,663,l),
(624,671,l),
(635,672,l),
(640,674,o),
(643,676,o),
(644,684,c),
(637,701,o),
(620,712,o),
(606,724,c),
(570,702,o),
(530,698,o),
(490,691,c),
(496,742,l),
(471,763,o),
(444,779,o),
(416,795,c),
(408,785,l),
(423,764,o),
(432,742,o),
(436,717,cs),
(442,675,o),
(442,634,o),
(442,592,c),
(440,588,l),
(307,578,l),
(315,565,o),
(325,556,o),
(335,545,c),
(338,491,l),
(335,347,ls),
(335,320,o),
(332,294,o),
(329,267,cs),
(325,225,o),
(318,184,o),
(307,143,cs),
(291,74,o),
(263,11,o),
(224,-48,cs),
(202,-81,l),
(206,-85,l),
(218,-93,l),
(219,-92,l),
(223,-89,l),
(273,-35,o),
(309,26,o),
(334,95,cs),
(355,157,o),
(368,221,o),
(375,285,cs),
(378,311,l),
(408,291,l),
(428,295,l),
(485,304,l),
(566,313,l),
(647,319,ls),
(656,319,o),
(659,322,o),
(662,332,c),
(651,349,o),
(633,356,o),
(618,367,c),
(603,361,ls),
(567,348,o),
(529,343,o),
(491,338,cs),
(416,330,l),
(380,327,l),
(388,470,l),
(406,455,l),
(447,463,l),
(451,430,ls),
(455,409,o),
(467,396,o),
(487,389,cs),
(500,384,o),
(514,383,o),
(527,382,cs),
(553,381,o),
(579,382,o),
(604,389,cs),
(610,391,o),
(616,393,o),
(619,398,c),
(619,408,o),
(619,408,o),
(614,417,cs),
(609,426,o),
(605,436,o),
(604,448,c),
(637,425,l),
(697,436,l),
(707,336,o),
(721,237,o),
(750,142,c),
(712,80,o),
(666,25,o),
(613,-23,c),
(627,-39,l),
(682,-1,o),
(726,45,o),
(768,96,c),
(775,80,ls),
(800,25,o),
(832,-24,o),
(874,-67,cs),
(886,-80,o),
(900,-92,o),
(914,-104,cs),
(919,-109,o),
(927,-112,o),
(934,-112,cs)
);
},
{
attr = {
fillColor = (0,255);
};
closed = 1;
nodes = (
(147,160,l),
(147,227,l),
(152,229,l),
(288,240,l),
(293,241,o),
(298,243,o),
(301,248,c),
(302,255,o),
(298,259,o),
(295,263,cs),
(278,282,ls),
(275,285,o),
(274,289,o),
(274,294,cs),
(277,332,l),
(285,468,ls),
(287,494,o),
(291,518,o),
(307,539,cs),
(309,541,o),
(310,544,o),
(311,548,c),
(291,567,o),
(267,581,o),
(244,597,c),
(223,575,ls),
(217,569,o),
(210,565,o),
(202,564,cs),
(144,555,l),
(124,576,o),
(103,596,o),
(81,614,c),
(73,607,l),
(84,571,ls),
(92,542,o),
(95,513,o),
(95,483,cs),
(99,274,ls),
(99,250,o),
(97,227,o),
(89,205,c),
(87,202,o),
(88,197,o),
(87,193,c),
(102,177,o),
(118,163,o),
(134,149,c)
);
},
{
attr = {
fillColor = (0,255);
};
closed = 1;
nodes = (
(146,516,l),
(233,527,l),
(233,443,o),
(231,360,o),
(227,276,c),
(146,266,l)
);
},
{
attr = {
fillColor = (0,255);
};
closed = 1;
nodes = (
(411,-47,o),
(440,-36,o),
(470,-26,cs),
(671,41,l),
(664,60,l),
(575,40,l),
(574,41,l),
(617,87,ls),
(620,91,o),
(624,94,o),
(625,101,c),
(615,112,l),
(591,136,l),
(586,142,l),
(631,142,ls),
(637,142,o),
(643,142,o),
(645,150,c),
(640,159,o),
(630,163,o),
(623,172,c),
(631,211,ls),
(634,224,o),
(644,234,o),
(651,246,c),
(635,260,o),
(617,272,o),
(600,284,c),
(595,280,o),
(590,275,o),
(584,272,cs),
(578,269,o),
(572,266,o),
(566,265,cs),
(531,258,l),
(439,247,l),
(396,271,l),
(390,265,l),
(390,264,l),
(404,218,o),
(408,170,o),
(403,123,c),
(408,115,o),
(414,110,o),
(423,109,c),
(438,77,o),
(455,47,o),
(468,15,c),
(417,4,o),
(368,-4,o),
(317,-8,c),
(321,-15,l),
(362,-55,ls),
(368,-61,o),
(374,-62,o),
(381,-59,cs)
);
},
{
attr = {
fillColor = (0,255);
};
closed = 1;
nodes = (
(492,33,o),
(494,45,o),
(494,57,cs),
(495,66,o),
(492,72,o),
(486,77,cs),
(453,105,l),
(446,110,l),
(446,128,l),
(488,134,o),
(529,139,o),
(571,142,c),
(573,127,o),
(571,114,o),
(567,102,cs),
(558,77,o),
(547,53,o),
(534,30,c),
(487,20,l)
);
},
{
attr = {
fillColor = (0,255);
};
closed = 1;
nodes = (
(444,217,l),
(584,233,l),
(584,213,o),
(581,195,o),
(580,176,c),
(445,160,l)
);
},
{
attr = {
fillColor = (0,255);
};
closed = 1;
nodes = (
(392,515,l),
(384,526,o),
(372,533,o),
(362,543,c),
(389,550,o),
(416,551,o),
(444,556,c),
(450,536,o),
(446,515,o),
(447,493,c),
(388,484,l)
);
},
{
attr = {
fillColor = (0,255);
};
closed = 1;
nodes = (
(857,534,o),
(865,540,o),
(869,554,cs),
(873,569,o),
(874,583,o),
(873,598,cs),
(872,608,o),
(867,616,o),
(858,622,cs),
(833,637,ls),
(810,649,o),
(785,660,o),
(760,670,c),
(753,659,l),
(773,637,ls),
(798,609,o),
(819,579,o),
(835,545,c),
(843,534,l)
);
}
);
width = 1000;
}
);
unicode = 22193;
}
{
glyphname = uni579D;
layers = (
{
layerId = m01;
shapes = (
{
attr = {
fillColor = (0,255);
};
closed = 1;
nodes = (
(321,-80,ls),
(345,-64,o),
(365,-44,o),
(383,-22,cs),
(422,23,o),
(448,75,o),
(465,132,cs),
(484,197,o),
(493,264,o),
(498,332,cs),
(504,384,ls),
(504,388,o),
(503,392,o),
(500,395,cs),
(492,403,l),
(463,428,l),
(470,425,o),
(477,426,o),
(484,427,cs),
(598,441,ls),
(640,446,o),
(682,449,o),
(723,452,cs),
(842,458,l),
(895,457,l),
(908,458,l),
(918,461,o),
(921,470,o),
(915,479,c),
(906,488,l),
(889,501,l),
(847,532,l),
(826,519,o),
(804,510,o),
(781,505,cs),
(699,491,l),
(670,487,l),
(673,492,l),
(717,545,ls),
(739,571,o),
(761,598,o),
(791,615,c),
(794,616,o),
(795,619,o),
(798,622,c),
(779,645,o),
(755,661,o),
(732,678,c),
(718,664,o),
(703,653,o),
(685,648,cs),
(621,631,l),
(584,625,l),
(645,721,l),
(641,730,l),
(620,755,o),
(598,780,o),
(575,802,c),
(565,796,l),
(571,763,o),
(566,731,o),
(555,701,cs),
(537,650,o),
(514,603,o),
(484,559,cs),
(467,534,o),
(448,510,o),
(430,487,cs),
(426,481,o),
(422,476,o),
(416,473,c),
(404,492,o),
(386,503,o),
(370,516,c),
(339,500,o),
(311,490,o),
(295,489,c),
(295,496,l),
(301,641,ls),
(302,654,o),
(305,667,o),
(309,679,cs),
(313,692,o),
(311,701,o),
(301,709,cs),
(299,711,l),
(236,765,l),
(213,782,l),
(204,775,l),
(207,769,ls),
(223,733,o),
(232,695,o),
(234,655,cs),
(238,482,l),
(237,475,l),
(184,467,o),
(130,458,o),
(76,453,c),
(74,445,l),
(126,411,l),
(238,437,l),
(239,343,o),
(236,251,o),
(234,158,c),
(170,134,o),
(107,112,o),
(40,99,c),
(39,95,l),
(40,91,l),
(62,74,o),
(85,60,o),
(109,45,c),
(121,41,l),
(155,58,o),
(188,78,o),
(222,97,cs),
(324,152,ls),
(357,171,o),
(391,189,o),
(426,207,c),
(416,227,l),
(373,210,o),
(331,192,o),
(287,176,c),
(293,445,l),
(330,452,o),
(366,460,o),
(405,462,c),
(385,440,l),
(403,424,l),
(431,444,l),
(434,428,o),
(438,414,o),
(439,400,cs),
(443,360,o),
(440,320,o),
(438,280,cs),
(438,263,o),
(437,246,o),
(434,229,cs),
(430,203,o),
(426,177,o),
(420,152,cs),
(405,84,o),
(375,22,o),
(331,-32,cs),
(297,-73,l),
(312,-87,l)
);
},
{
attr = {
fillColor = (0,255);
};
closed = 1;
nodes = (
(778,-61,o),
(836,-57,o),
(893,-44,cs),
(907,-41,o),
(922,-37,o),
(936,-32,cs),
(947,-27,o),
(952,-17,o),
(951,-6,cs),
(945,35,o),
(943,76,o),
(941,118,cs),
(939,163,l),
(938,166,l),
(924,166,l),
(918,131,ls),
(913,108,o),
(909,86,o),
(901,64,cs),
(889,33,o),
(868,13,o),
(836,5,cs),
(813,0,o),
(789,-3,o),
(765,-4,cs),
(739,-5,o),
(713,-5,o),
(687,-1,cs),
(671,1,o),
(655,4,o),
(640,8,cs),
(626,12,o),
(618,22,o),
(617,36,cs),
(614,90,l),
(616,193,l),
(619,268,l),
(623,307,l),
(762,324,l),
(761,317,ls),
(758,295,o),
(755,274,o),
(750,252,cs),
(732,183,ls),
(731,178,o),
(729,172,o),
(723,168,c),
(696,175,o),
(669,186,o),
(642,197,c),
(637,189,l),
(681,141,ls),
(695,125,o),
(707,108,o),
(721,90,c),
(733,93,l),
(746,103,l),
(762,120,o),
(773,140,o),
(779,162,cs),
(791,202,o),
(802,243,o),
(812,283,cs),
(816,298,o),
(822,312,o),
(833,323,cs),
(837,326,o),
(840,329,o),
(840,336,c),
(820,357,o),
(795,372,o),
(771,389,c),
(761,380,ls),
(750,370,o),
(736,363,o),
(721,360,cs),
(660,350,l),
(614,344,l),
(561,381,l),
(553,375,l),
(557,361,ls),
(564,335,o),
(566,308,o),
(566,281,cs),
(564,132,ls),
(563,100,o),
(563,67,o),
(566,34,cs),
(571,-8,o),
(590,-31,o),
(630,-43,cs),
(635,-45,ls),
(662,-52,o),
(691,-55,o),
(719,-57,cs)
);
},
{
attr = {
fillColor = (0,255);
};
closed = 1;
nodes = (
(497,507,o),
(533,550,o),
(566,597,c),
(582,586,l),
(695,607,l),
(673,562,o),
(650,522,o),
(624,482,c),
(568,475,o),
(513,471,o),
(455,466,c)
);
}
);
width = 1000;
}
);
unicode = 22429;
}
{
glyphname = uni5826;
layers = (
{
layerId = m01;
shapes = (
{
attr = {
fillColor = (0,255);
};
closed = 1;
nodes = (
(415,223,l),
(427,229,l),
(418,248,l),
(371,231,o),
(326,213,o),
(278,197,c),
(281,422,l),
(287,424,l),
(388,438,l),
(392,438,o),
(396,440,o),
(399,445,c),
(398,451,l),
(394,457,l),
(382,470,o),
(371,483,o),
(357,493,c),
(333,479,o),
(309,471,o),
(282,466,c),
(282,475,l),
(286,570,l),
(291,642,l),
(295,663,l),
(286,679,o),
(211,737,o),
(196,741,c),
(188,734,l),
(190,730,ls),
(209,696,o),
(220,660,o),
(222,621,cs),
(225,568,o),
(225,515,o),
(227,461,c),
(226,455,l),
(178,447,o),
(131,440,o),
(82,438,c),
(81,429,l),
(135,394,l),
(166,401,o),
(196,409,o),
(226,413,c),
(226,179,l),
(168,159,o),
(110,141,o),
(48,132,c),
(47,123,l),
(107,79,ls),
(117,72,o),
(124,72,o),
(135,77,cs)
);
},
{
attr = {
fillColor = (0,255);
};
closed = 1;
nodes = (
(769,-101,o),
(774,-97,o),
(778,-92,cs),
(786,-83,o),
(792,-71,o),
(797,-59,cs),
(803,-44,o),
(804,-28,o),
(805,-12,cs),
(817,164,ls),
(819,188,o),
(822,211,o),
(837,231,cs),
(839,233,o),
(840,237,o),
(840,239,c),
(832,250,o),
(783,285,o),
(766,293,c),
(752,279,o),
(736,270,o),
(716,266,cs),
(679,260,o),
(641,256,o),
(603,252,cs),
(581,250,l),
(640,305,l),
(648,315,o),
(660,321,o),
(668,334,c),
(648,355,o),
(627,375,o),
(604,393,c),
(597,387,l),
(600,364,o),
(598,349,o),
(587,329,cs),
(556,280,ls),
(549,268,o),
(540,258,o),
(531,247,c),
(500,247,l),
(441,284,l),
(434,275,l),
(446,244,ls),
(454,218,o),
(456,191,o),
(457,164,cs),
(459,10,ls),
(459,-1,o),
(457,-11,o),
(456,-22,cs),
(451,-48,l),
(460,-63,o),
(489,-93,o),
(500,-98,c),
(512,-89,l),
(512,-47,l),
(584,-41,o),
(656,-39,o),
(728,-37,c),
(750,-83,ls),
(753,-89,o),
(755,-95,o),
(761,-99,c)
);
},
{
attr = {
fillColor = (0,255);
};
closed = 1;
nodes = (
(736,0,o),
(724,10,o),
(711,20,c),
(685,7,o),
(657,4,o),
(630,2,cs),
(523,-5,l),
(511,-5,l),
(511,83,l),
(531,85,l),
(588,90,l),
(659,95,l),
(710,98,ls),
(714,98,o),
(718,98,o),
(722,100,cs),
(730,103,o),
(733,109,o),
(729,117,cs),
(727,121,l),
(717,133,o),
(707,143,o),
(695,151,c),
(668,138,o),
(640,134,o),
(612,131,cs),
(510,121,l),
(510,206,l),
(760,225,l),
(758,148,o),
(756,72,o),
(750,-3,c),
(747,-15,l)
);
},
{
attr = {
fillColor = (0,255);
};
closed = 1;
nodes = (
(440,309,l),
(453,320,l),
(616,431,l),
(606,448,l),
(560,427,o),
(514,406,o),
(466,388,c),
(472,535,l),
(534,545,l),
(604,555,ls),
(612,556,o),
(617,559,o),
(619,568,c),
(611,585,o),
(595,596,o),
(583,610,c),
(548,590,o),
(511,582,o),
(472,576,c),
(476,617,o),
(473,657,o),
(483,697,c),
(460,724,o),
(429,743,o),
(401,764,c),
(392,755,l),
(406,722,o),
(408,711,o),
(412,686,cs),
(418,649,o),
(419,611,o),
(420,574,cs),
(420,451,l),
(418,396,ls),
(417,381,o),
(412,369,o),
(397,363,c),
(392,360,l),
(383,351,l),
(427,303,l)
);
},
{
attr = {
fillColor = (0,255);
};
closed = 1;
nodes = (
(785,356,o),
(816,357,o),
(847,362,cs),
(873,366,o),
(898,371,o),
(922,383,cs),
(938,391,o),
(941,399,o),
(936,416,cs),
(930,442,l),
(922,520,l),
(920,557,l),
(906,558,l),
(900,525,ls),
(897,505,o),
(892,485,o),
(885,465,cs),
(876,443,o),
(861,427,o),
(838,419,cs),
(809,408,o),
(779,404,o),
(748,407,cs),
(733,409,l),
(707,413,ls),
(694,416,o),
(685,425,o),
(683,439,cs),
(681,460,l),
(681,520,l),
(693,526,ls),
(750,551,o),
(806,579,o),
(858,615,c),
(873,621,l),
(884,626,l),
(882,635,l),
(865,662,o),
(846,688,o),
(826,714,c),
(815,709,l),
(815,700,l),
(811,677,ls),
(808,664,o),
(799,653,o),
(791,643,cs),
(768,617,o),
(742,596,o),
(714,576,cs),
(682,554,l),
(683,576,l),
(687,653,ls),
(689,676,o),
(692,700,o),
(700,722,c),
(701,728,l),
(677,753,o),
(648,773,o),
(620,794,c),
(611,788,l),
(621,754,ls),
(628,724,o),
(630,693,o),
(630,662,cs),
(631,489,l),
(633,440,ls),
(635,408,o),
(652,386,o),
(681,373,cs),
(704,362,o),
(729,359,o),
(754,358,cs)
);
}
);
width = 1000;
}
);
unicode = 22566;
}
{
color = 6;
glyphname = uni5B21;
layers = (
{
layerId = m01;
shapes = (
{
attr = {
fillColor = (0,255);
};
closed = 1;
nodes = (
(40,-57,l),
(86,-36,o),
(127,-8,o),
(166,25,cs),
(201,55,o),
(230,90,o),
(256,128,cs),
(266,141,l),
(271,138,l),
(319,94,l),
(351,59,ls),
(356,54,o),
(361,49,o),
(371,53,c),
(375,66,l),
(378,84,o),
(375,102,o),
(372,119,cs),
(370,129,o),
(365,136,o),
(358,141,cs),
(333,157,l),
(284,184,l),
(296,207,o),
(305,231,o),
(312,256,cs),
(326,299,o),
(337,343,o),
(346,388,cs),
(363,477,ls),
(367,503,o),
(374,529,o),
(384,554,c),
(379,564,o),
(328,627,o),
(317,635,c),
(306,628,l),
(317,588,o),
(317,548,o),
(315,507,c),
(238,490,l),
(237,493,l),
(262,623,l),
(275,677,l),
(279,688,o),
(279,696,o),
(271,704,cs),
(196,785,l),
(184,776,l),
(188,765,ls),
(197,742,o),
(204,718,o),
(204,693,cs),
(204,675,o),
(204,656,o),
(202,637,cs),
(191,522,l),
(185,480,l),
(121,470,ls),
(94,466,o),
(67,461,o),
(40,465,c),
(35,456,l),
(53,438,o),
(74,425,o),
(96,415,c),
(100,412,o),
(104,413,o),
(109,414,cs),
(157,429,l),
(177,435,l),
(164,371,o),
(151,308,o),
(131,248,c),
(97,233,l),
(130,188,l),
(144,199,ls),
(153,206,o),
(163,207,o),
(174,203,cs),
(193,194,l),
(232,170,l),
(196,118,ls),
(148,56,o),
(92,3,o),
(25,-39,c),
(36,-58,l)
);
},
{
attr = {
fillColor = (0,255);
};
closed = 1;
nodes = (
(221,214,o),
(198,228,o),
(174,241,c),
(229,448,l),
(309,468,l),
(307,409,o),
(271,256,o),
(247,206,c)
);
},
{
attr = {
fillColor = (0,255);
};
closed = 1;
nodes = (
(447,-74,o),
(557,-40,o),
(652,32,c),
(665,22,l),
(796,-85,ls),
(799,-88,o),
(802,-89,o),
(807,-88,cs),
(921,-70,l),
(963,-63,l),
(960,-43,l),
(911,-36,o),
(862,-27,o),
(816,-9,cs),
(770,9,o),
(727,34,o),
(684,60,c),
(688,65,l),
(767,146,l),
(783,163,l),
(810,186,ls),
(819,193,o),
(819,198,o),
(811,205,cs),
(809,207,l),
(745,249,l),
(729,237,ls),
(716,226,o),
(701,218,o),
(684,215,cs),
(603,198,l),
(567,192,l),
(602,246,l),
(553,306,l),
(544,302,l),
(543,291,o),
(544,280,o),
(542,269,cs),
(537,243,o),
(527,218,o),
(514,195,cs),
(488,148,o),
(453,110,o),
(415,73,c),
(371,36,l),
(382,17,l),
(431,44,o),
(473,78,o),
(511,118,cs),
(526,132,l),
(618,61,l),
(599,48,o),
(582,35,o),
(564,24,cs),
(504,-14,o),
(439,-39,o),
(372,-58,cs),
(325,-71,l),
(331,-96,l)
);
},
{
attr = {
fillColor = (0,255);
};
closed = 1;
nodes = (
(544,157,l),
(554,172,l),
(578,157,l),
(727,185,l),
(704,148,o),
(678,116,o),
(647,85,c)
);
},
{
attr = {
fillColor = (0,255);
};
closed = 1;
nodes = (
(447,239,l),
(472,270,o),
(492,304,o),
(503,343,c),
(506,350,o),
(507,359,o),
(505,366,cs),
(502,385,o),
(497,403,o),
(492,422,c),
(482,420,l),
(476,363,o),
(454,316,o),
(407,281,c),
(423,235,ls),
(426,227,o),
(432,226,o),
(439,231,c)
);
},
{
attr = {
fillColor = (0,255);
};
closed = 1;
nodes = (
(874,326,o),
(880,328,o),
(883,335,cs),
(885,339,o),
(886,344,o),
(885,349,cs),
(880,390,ls),
(879,397,o),
(875,403,o),
(869,406,cs),
(855,414,l),
(826,426,l),
(828,429,l),
(847,440,o),
(866,452,o),
(886,462,cs),
(904,471,o),
(924,479,o),
(945,479,c),
(952,480,o),
(958,484,o),
(961,490,c),
(954,509,o),
(905,557,o),
(876,573,c),
(863,564,ls),
(852,556,o),
(841,550,o),
(828,548,cs),
(775,538,ls),
(765,536,o),
(755,536,o),
(743,535,c),
(802,602,ls),
(811,613,o),
(820,624,o),
(832,633,cs),
(841,639,o),
(841,646,o),
(834,655,cs),
(792,708,l),
(779,707,l),
(778,700,l),
(779,686,o),
(777,672,o),
(772,659,cs),
(762,630,o),
(749,603,o),
(734,576,cs),
(709,530,l),
(626,519,o),
(544,513,o),
(461,509,c),
(461,533,o),
(451,554,o),
(443,575,c),
(429,572,l),
(428,569,l),
(430,537,o),
(424,506,o),
(412,476,cs),
(403,453,o),
(392,430,o),
(371,415,cs),
(363,408,l),
(376,368,l),
(380,361,ls),
(386,350,o),
(396,349,o),
(404,359,cs),
(409,365,o),
(414,371,o),
(418,379,cs),
(434,412,o),
(449,446,o),
(458,482,c),
(460,486,l),
(476,470,l),
(597,485,l),
(590,474,l),
(592,470,ls),
(609,442,o),
(629,416,o),
(641,385,cs),
(643,380,o),
(646,377,o),
(651,377,cs),
(657,376,o),
(660,380,o),
(662,385,cs),
(668,397,o),
(671,410,o),
(672,423,cs),
(673,433,o),
(669,439,o),
(661,444,cs),
(615,474,l),
(599,484,l),
(685,493,o),
(769,502,o),
(856,506,c),
(843,480,o),
(826,457,o),
(810,433,c),
(738,455,l),
(732,443,l),
(759,424,ls),
(794,398,o),
(826,369,o),
(857,340,cs),
(868,330,l)
);
},
{
attr = {
fillColor = (0,255);
};
closed = 1;
nodes = (
(568,543,l),
(577,570,ls),
(581,582,o),
(578,591,o),
(569,600,cs),
(514,654,l),
(506,660,l),
(494,653,l),
(513,616,o),
(530,579,o),
(540,539,cs),
(543,529,o),
(552,527,o),
(560,533,c)
);
},
{
attr = {
fillColor = (0,255);
};
closed = 1;
nodes = (
(680,562,l),
(689,590,ls),
(692,599,o),
(689,607,o),
(683,613,cs),
(665,632,o),
(647,652,o),
(628,670,c),
(625,674,o),
(622,676,o),
(618,678,c),
(609,672,l),
(647,567,l),
(651,555,ls),
(656,544,o),
(665,542,o),
(673,551,c)
);
},
{
attr = {
fillColor = (0,255);
};
closed = 1;
nodes = (
(461,656,l),
(547,669,l),
(691,695,ls),
(729,702,o),
(766,711,o),
(802,721,cs),
(824,726,o),
(845,728,o),
(866,720,c),
(877,731,o),
(877,734,o),
(866,745,cs),
(825,789,l),
(803,810,l),
(794,805,l),
(791,798,o),
(791,791,o),
(787,786,cs),
(783,781,o),
(777,777,o),
(773,774,cs),
(750,760,o),
(726,750,o),
(700,743,cs),
(659,731,o),
(616,719,o),
(573,710,cs),
(532,701,o),
(490,695,o),
(447,686,cs),
(422,683,l),
(429,651,l)
);
},
{
attr = {
fillColor = (0,255);
};
closed = 1;
nodes = (
(807,271,ls),
(822,272,o),
(828,284,o),
(816,295,cs),
(796,315,o),
(760,358,o),
(734,402,c),
(725,400,l),
(728,377,l),
(735,336,ls),
(738,317,o),
(735,314,o),
(717,314,cs),
(616,314,o),
(571,369,o),
(542,420,c),
(532,416,l),
(559,297,o),
(662,260,o),
(771,268,cs)
);
}
);
width = 1000;
}
);
unicode = 23329;
}
{
glyphname = uni5BD7;
layers = (
{
layerId = m01;
shapes = (
{
attr = {
fillColor = (0,255);
};
closed = 1;
nodes = (
(702,-112,o),
(708,-107,o),
(712,-100,cs),
(718,-92,o),
(723,-83,o),
(727,-75,cs),
(738,-55,o),
(743,-34,o),
(742,-11,cs),
(740,13,o),
(741,38,o),
(740,62,cs),
(740,73,l),
(752,73,ls),
(807,73,o),
(862,72,o),
(918,69,cs),
(927,68,o),
(934,70,o),
(939,79,cs),
(942,87,o),
(937,93,o),
(931,98,cs),
(911,118,o),
(888,132,o),
(864,146,c),
(825,125,o),
(783,121,o),
(741,117,c),
(740,127,l),
(740,171,l),
(744,242,ls),
(745,255,o),
(748,266,o),
(756,276,cs),
(759,279,o),
(760,283,o),
(762,286,c),
(756,295,o),
(712,324,o),
(690,334,c),
(679,329,o),
(669,323,o),
(658,320,cs),
(645,316,o),
(631,313,o),
(617,311,cs),
(530,302,l),
(518,302,l),
(517,314,o),
(519,326,o),
(522,338,cs),
(524,348,o),
(521,354,o),
(512,358,cs),
(460,383,l),
(457,383,l),
(453,378,l),
(461,338,l),
(462,325,o),
(464,311,o),
(462,298,c),
(301,290,l),
(252,320,l),
(321,341,o),
(387,365,o),
(449,397,c),
(468,386,o),
(488,379,o),
(508,373,cs),
(533,366,o),
(558,361,o),
(584,357,cs),
(617,352,o),
(651,349,o),
(685,350,c),
(724,356,ls),
(731,357,o),
(737,360,o),
(740,367,cs),
(742,375,o),
(737,380,o),
(732,385,cs),
(704,417,o),
(679,451,o),
(659,488,cs),
(652,502,l),
(641,499,l),
(658,406,l),
(652,402,o),
(647,401,o),
(641,401,cs),
(598,398,o),
(556,403,o),
(515,414,c),
(508,415,o),
(501,418,o),
(492,421,c),
(504,430,l),
(570,481,ls),
(600,506,o),
(623,539,o),
(649,568,cs),
(652,571,l),
(654,578,o),
(652,583,o),
(647,588,cs),
(599,641,l),
(589,635,l),
(592,615,o),
(590,596,o),
(581,578,cs),
(562,546,l),
(538,512,o),
(506,485,o),
(472,461,cs),
(450,446,l),
(428,464,o),
(411,485,o),
(396,507,cs),
(381,530,o),
(371,555,o),
(364,583,c),
(343,581,l),
(347,541,o),
(352,486,o),
(410,425,c),
(403,421,ls),
(390,414,o),
(378,407,o),
(364,401,cs),
(281,361,o),
(194,334,o),
(105,311,cs),
(74,303,l),
(81,279,l),
(158,295,l),
(236,314,l),
(237,311,o),
(239,309,o),
(239,306,c),
(243,289,o),
(248,273,o),
(250,257,cs),
(256,205,o),
(256,152,o),
(256,100,c),
(255,92,l),
(189,92,o),
(124,85,o),
(59,90,c),
(55,79,l),
(114,36,l),
(160,44,o),
(206,49,o),
(253,52,c),
(253,44,ls),
(251,13,o),
(248,-18,o),
(238,-48,c),
(249,-63,o),
(263,-75,o),
(277,-87,cs),
(286,-94,o),
(297,-94,o),
(305,-81,c),
(305,54,l),
(325,57,o),
(672,73,o),
(686,71,c),
(684,-15,l),
(682,-24,l),
(640,-8,o),
(599,7,o),
(558,25,c),
(553,16,l),
(569,3,ls),
(608,-32,o),
(646,-69,o),
(682,-107,cs),
(685,-111,o),
(689,-115,o),
(695,-115,c)
);
},
{
attr = {
fillColor = (0,255);
};
closed = 1;
nodes = (
(307,125,l),
(307,155,l),
(359,160,o),
(411,162,o),
(464,165,c),
(464,102,l),
(306,95,l)
);
},
{
attr = {
fillColor = (0,255);
};
closed = 1;
nodes = (
(308,252,l),
(464,262,l),
(464,202,l),
(308,193,l)
);
},
{
attr = {
fillColor = (0,255);
};
closed = 1;
nodes = (
(227,398,l),
(252,422,o),
(272,449,o),
(287,480,cs),
(295,498,o),
(302,517,o),
(298,538,cs),
(296,554,o),
(291,570,o),
(287,585,c),
(284,586,l),
(275,585,l),
(265,524,o),
(239,475,o),
(183,441,c),
(193,407,l),
(197,397,ls),
(202,388,o),
(209,386,o),
(218,392,cs)
);
},
{
attr = {
fillColor = (0,255);
};
closed = 1;
nodes = (
(515,167,l),
(552,170,l),
(645,174,ls),
(651,174,o),
(657,176,o),
(662,181,c),
(663,187,o),
(663,191,o),
(659,196,cs),
(651,206,o),
(641,215,o),
(632,222,c),
(574,211,ls),
(555,208,o),
(536,206,o),
(516,205,c),
(516,264,l),
(572,268,o),
(627,271,o),
(683,273,c),
(686,220,o),
(685,168,o),
(686,114,c),
(515,105,l)
);
},
{
attr = {
fillColor = (0,255);
};
closed = 1;
nodes = (
(158,481,o),
(163,485,o),
(167,490,cs),
(174,500,o),
(181,510,o),
(186,520,cs),
(205,558,o),
(221,597,o),
(232,637,cs),
(234,644,l),
(245,637,l),
(253,633,l),
(437,650,o),
(619,657,o),
(802,666,c),
(788,635,o),
(769,609,o),
(752,581,c),
(763,573,l),
(799,592,ls),
(833,610,o),
(869,624,o),
(908,628,cs),
(912,628,o),
(917,629,o),
(920,634,c),
(920,644,o),
(920,644,o),
(912,652,cs),
(886,679,o),
(859,704,o),
(830,727,cs),
(816,739,l),
(813,737,ls),
(800,727,o),
(785,718,o),
(768,715,cs),
(692,704,l),
(550,691,l),
(544,691,l),
(552,743,ls),
(554,762,o),
(551,766,o),
(533,774,cs),
(504,787,o),
(472,796,o),
(441,803,cs),
(416,808,l),
(414,803,l),
(411,797,l),
(448,767,o),
(480,733,o),
(502,689,c),
(411,685,o),
(321,679,o),
(232,678,c),
(223,700,o),
(212,720,o),
(200,738,c),
(189,736,l),
(189,716,ls),
(190,685,o),
(185,655,o),
(174,625,cs),
(162,594,o),
(146,564,o),
(119,543,cs),
(106,532,l),
(118,504,l),
(132,481,l),
(138,474,o),
(145,472,o),
(153,478,cs)
);
},
{
attr = {
fillColor = (0,255);
};
closed = 1;
nodes = (
(485,506,o),
(492,507,o),
(497,513,c),
(502,526,l),
(504,561,ls),
(505,567,o),
(502,572,o),
(497,576,cs),
(489,583,l),
(461,601,o),
(431,614,o),
(401,628,c),
(395,620,l),
(422,587,o),
(447,555,o),
(471,521,cs),
(479,511,l)
);
},
{
attr = {
fillColor = (0,255);
};
closed = 1;
nodes = (
(816,421,o),
(821,426,o),
(821,435,cs),
(818,492,l),
(817,498,o),
(813,503,o),
(807,506,cs),
(783,518,ls),
(749,532,o),
(714,543,o),
(679,553,cs),
(665,557,l),
(659,547,l),
(662,545,ls),
(705,511,o),
(747,475,o),
(786,436,cs),
(790,432,o),
(793,428,o),
(797,426,c),
(800,423,o),
(804,421,o),
(808,421,cs)
);
}
);
width = 1000;
}
);
unicode = 23511;
}
{
glyphname = uni5CDE;
layers = (
{
layerId = m01;
shapes = (
{
attr = {
fillColor = (0,255);
};
closed = 1;
nodes = (
(90,-81,o),
(116,-66,o),
(141,-49,cs),
(197,-11,o),
(241,39,o),
(269,100,cs),
(291,148,o),
(303,198,o),
(314,236,c),
(300,281,l),
(373,290,l),
(492,299,l),
(582,304,l),
(710,309,ls),
(748,310,o),
(787,309,o),
(825,308,cs),
(833,308,o),
(841,310,o),
(846,318,c),
(846,327,o),
(845,330,o),
(837,336,cs),
(817,353,o),
(795,367,o),
(775,380,c),
(737,366,ls),
(709,356,o),
(679,354,o),
(649,350,cs),
(599,345,l),
(548,341,l),
(562,354,o),
(577,366,o),
(592,377,cs),
(607,389,o),
(622,401,o),
(638,411,cs),
(653,422,o),
(670,431,o),
(687,442,c),
(686,444,o),
(685,447,o),
(683,448,c),
(663,467,o),
(641,483,o),
(618,498,c),
(598,481,o),
(577,472,o),
(553,469,cs),
(435,452,l),
(405,449,l),
(426,471,l),
(447,492,l),
(453,500,o),
(464,501,o),
(469,511,c),
(464,524,o),
(454,532,o),
(446,541,cs),
(419,569,l),
(514,578,o),
(609,582,o),
(704,587,c),
(711,575,l),
(731,545,ls),
(738,533,o),
(755,535,o),
(761,547,cs),
(766,559,l),
(780,624,ls),
(784,649,o),
(787,674,o),
(796,698,c),
(798,710,l),
(730,770,l),
(721,766,l),
(733,720,o),
(729,675,o),
(722,630,c),
(533,616,l),
(538,666,o),
(534,715,o),
(549,761,c),
(542,771,o),
(470,810,o),
(455,813,c),
(450,806,l),
(458,791,ls),
(471,768,o),
(475,743,o),
(476,718,cs),
(479,619,l),
(478,614,l),
(468,611,o),
(297,602,o),
(289,604,c),
(291,634,ls),
(293,654,o),
(294,673,o),
(297,692,cs),
(299,702,o),
(297,710,o),
(288,716,cs),
(224,758,l),
(218,753,l),
(223,739,o),
(229,726,o),
(232,713,cs),
(240,681,o),
(237,649,o),
(237,616,cs),
(237,610,o),
(233,606,o),
(228,602,cs),
(222,596,o),
(214,593,o),
(205,593,c),
(201,587,l),
(215,572,o),
(226,556,o),
(243,545,c),
(294,561,o),
(345,563,o),
(397,568,c),
(399,562,o),
(399,555,o),
(398,549,cs),
(396,534,o),
(389,521,o),
(381,509,cs),
(364,486,o),
(346,464,o),
(325,445,cs),
(266,386,o),
(201,336,o),
(129,295,cs),
(104,280,l),
(115,260,l),
(163,278,o),
(206,302,o),
(218,308,c),
(257,280,l),
(253,240,o),
(250,229,o),
(242,187,cs),
(231,127,o),
(206,73,o),
(167,26,cs),
(135,-12,o),
(97,-44,o),
(56,-72,cs),
(50,-76,l),
(53,-82,o),
(56,-88,o),
(61,-93,c)
);
},
{
attr = {
fillColor = (0,255);
};
closed = 1;
nodes = (
(736,-70,ls),
(769,-68,o),
(802,-64,o),
(835,-56,cs),
(895,-38,ls),
(906,-34,o),
(911,-26,o),
(911,-14,c),
(909,-5,l),
(899,72,l),
(895,135,l),
(893,149,l),
(878,150,l),
(874,125,ls),
(869,100,o),
(864,74,o),
(854,50,cs),
(845,29,o),
(831,12,o),
(809,4,cs),
(801,0,o),
(792,-3,o),
(783,-5,cs),
(737,-17,o),
(690,-21,o),
(643,-23,cs),
(592,-25,o),
(542,-23,o),
(492,-17,cs),
(449,-9,ls),
(439,-7,o),
(433,0,o),
(430,9,c),
(428,25,ls),
(425,73,o),
(428,120,o),
(431,168,cs),
(432,187,l),
(499,193,o),
(566,200,o),
(633,204,c),
(633,183,o),
(609,98,o),
(600,86,c),
(474,128,l),
(470,119,l),
(512,89,ls),
(540,68,o),
(566,46,o),
(589,21,cs),
(596,14,o),
(602,10,o),
(614,19,cs),
(621,24,o),
(628,31,o),
(633,38,cs),
(641,52,o),
(649,66,o),
(654,81,cs),
(685,169,ls),
(689,182,o),
(695,193,o),
(706,201,cs),
(710,204,o),
(713,207,o),
(714,212,c),
(708,222,o),
(662,253,o),
(639,263,c),
(626,252,o),
(612,244,o),
(595,241,cs),
(547,235,l),
(462,226,l),
(427,223,l),
(373,255,l),
(365,250,l),
(369,233,ls),
(377,201,o),
(377,168,o),
(376,134,cs),
(375,52,l),
(381,-7,l),
(385,-29,o),
(398,-44,o),
(419,-52,cs),
(427,-55,o),
(436,-59,o),
(445,-60,cs),
(470,-64,o),
(496,-68,o),
(522,-70,cs),
(560,-74,o),
(599,-75,o),
(638,-75,cs)
);
},
{
attr = {
fillColor = (0,255);
};
closed = 1;
nodes = (
(234,319,l),
(329,385,l),
(383,429,l),
(408,411,l),
(581,432,l),
(582,430,l),
(501,336,l),
(305,323,l)
);
}
);
width = 1000;
}
);
unicode = 23774;
}
{
glyphname = uni5DD8;
layers = (
{
layerId = m01;
shapes = (
{
attr = {
fillColor = (0,255);
};
closed = 1;
nodes = (
(424,138,l),
(431,140,l),
(445,126,o),
(457,111,o),
(467,94,c),
(469,89,o),
(471,83,o),
(477,82,c),
(479,83,ls),
(491,92,o),
(491,119,o),
(478,128,cs),
(473,132,o),
(467,134,o),
(462,137,cs),
(455,143,l),
(531,149,l),
(531,123,o),
(520,102,o),
(511,79,c),
(421,71,l)
);
},
{
attr = {
fillColor = (0,255);
};
closed = 1;
nodes = (
(585,95,l),
(562,87,l),
(536,82,l),
(544,94,o),
(550,105,o),
(559,113,cs),
(567,122,ls),
(572,128,o),
(572,132,o),
(566,138,cs),
(553,150,l),
(613,155,l),
(613,129,o),
(611,105,o),
(608,79,c)
);
},
{
attr = {
fillColor = (0,255);
};
closed = 1;
nodes = (
(482,181,o),
(479,190,o),
(479,199,c),
(482,200,l),
(526,204,o),
(570,210,o),
(615,210,cs),
(621,210,o),
(628,211,o),
(632,219,c),
(613,237,l),
(617,256,o),
(625,273,o),
(639,290,c),
(591,327,l),
(580,318,ls),
(574,313,o),
(567,309,o),
(559,308,cs),
(484,295,ls),
(479,294,o),
(475,295,o),
(470,298,cs),
(433,315,l),
(428,309,l),
(436,292,l),
(442,264,o),
(445,237,o),
(442,208,c),
(442,192,l),
(474,173,l)
);
},
{
attr = {
fillColor = (0,255);
};
closed = 1;
nodes = (
(477,269,l),
(582,282,l),
(576,240,l),
(544,235,o),
(512,231,o),
(479,228,c)
);
},
{
attr = {
fillColor = (0,255);
};
closed = 1;
nodes = (
(421,480,l),
(424,491,o),
(420,499,o),
(412,506,cs),
(391,524,l),
(499,538,l),
(506,518,o),
(503,498,o),
(503,478,c),
(475,475,o),
(448,469,o),
(420,469,c)
);
},
{
attr = {
fillColor = (0,255);
};
closed = 1;
nodes = (
(921,472,o),
(926,480,o),
(928,490,cs),
(931,521,ls),
(931,532,o),
(927,541,o),
(918,547,cs),
(905,556,o),
(892,565,o),
(879,572,cs),
(824,601,l),
(818,588,l),
(829,575,ls),
(855,545,o),
(880,514,o),
(898,479,cs),
(901,474,o),
(904,470,o),
(912,468,c)
);
},
{
attr = {
fillColor = (0,255);
};
closed = 1;
nodes = (
(294,73,l),
(268,31,o),
(239,-5,o),
(207,-40,c),
(220,-52,l),
(221,-52,l),
(258,-19,o),
(292,16,o),
(319,57,cs),
(339,87,o),
(354,119,o),
(367,152,cs),
(377,176,l),
(379,175,l),
(381,157,o),
(384,138,o),
(385,119,cs),
(384,24,ls),
(383,3,o),
(383,-19,o),
(374,-38,cs),
(371,-45,o),
(373,-51,o),
(378,-56,cs),
(403,-81,l),
(411,-88,l),
(420,-78,l),
(423,-33,o),
(419,11,o),
(421,56,c),
(430,48,l),
(435,42,o),
(440,41,o),
(448,43,c),
(488,48,l),
(490,15,o),
(484,-17,o),
(479,-47,c),
(515,-75,l),
(523,-67,l),
(521,-28,o),
(520,11,o),
(522,51,c),
(551,54,o),
(579,56,o),
(608,56,c),
(599,-10,ls),
(599,-13,o),
(596,-16,o),
(595,-20,c),
(574,-18,o),
(555,-9,o),
(536,-3,c),
(531,-11,l),
(556,-34,o),
(576,-60,o),
(595,-87,c),
(603,-90,o),
(608,-87,o),
(612,-81,cs),
(627,-60,o),
(642,-39,o),
(641,-11,c),
(642,-9,l),
(703,49,o),
(736,124,o),
(759,203,c),
(855,-3,l),
(893,-2,o),
(932,-1,o),
(970,2,c),
(970,14,l),
(954,24,ls),
(923,43,o),
(895,66,o),
(871,94,cs),
(834,139,o),
(803,188,o),
(773,238,cs),
(768,246,o),
(767,253,o),
(768,261,cs),
(777,324,l),
(784,375,l),
(790,376,l),
(925,383,l),
(931,384,o),
(937,383,o),
(942,385,c),
(947,385,o),
(951,388,o),
(955,389,c),
(955,405,o),
(932,430,o),
(909,440,c),
(871,421,o),
(829,416,o),
(788,409,c),
(788,426,l),
(801,576,ls),
(803,599,o),
(805,622,o),
(813,643,cs),
(816,651,o),
(814,658,o),
(808,664,cs),
(765,709,l),
(734,738,l),
(724,730,l),
(742,689,o),
(749,645,o),
(749,601,cs),
(749,576,ls),
(751,526,o),
(749,476,o),
(745,426,cs),
(743,404,l),
(651,397,l),
(653,390,l),
(686,361,l),
(742,370,l),
(742,363,l),
(733,288,ls),
(727,240,o),
(716,193,o),
(701,147,cs),
(689,111,o),
(674,77,o),
(654,45,cs),
(643,30,l),
(643,33,l),
(653,119,ls),
(654,132,o),
(657,145,o),
(666,155,c),
(669,162,l),
(652,177,o),
(634,190,o),
(615,202,c),
(607,196,ls),
(599,189,o),
(590,184,o),
(579,183,cs),
(559,180,l),
(420,167,l),
(382,193,l),
(396,245,o),
(404,298,o),
(411,352,c),
(419,344,o),
(427,338,o),
(435,332,c),
(438,328,o),
(442,327,o),
(447,328,cs),
(470,331,ls),
(504,337,o),
(538,343,o),
(573,344,cs),
(640,348,ls),
(647,349,o),
(652,350,o),
(654,359,c),
(646,373,o),
(631,381,o),
(619,391,c),
(612,389,ls),
(592,382,o),
(572,376,o),
(551,374,cs),
(432,361,l),
(412,360,l),
(420,455,l),
(442,438,l),
(503,449,l),
(508,433,ls),
(513,416,o),
(524,405,o),
(541,402,cs),
(571,398,ls),
(602,393,o),
(633,394,o),
(663,402,cs),
(676,406,o),
(678,413,o),
(675,424,cs),
(673,429,l),
(662,462,l),
(657,492,l),
(646,491,l),
(646,478,o),
(643,466,o),
(639,454,cs),
(634,439,o),
(623,431,o),
(608,430,c),
(558,432,ls),
(547,433,o),
(542,439,o),
(542,453,c),
(577,457,l),
(623,463,ls),
(629,464,o),
(634,465,o),
(636,472,c),
(630,483,o),
(613,497,o),
(600,503,c),
(583,490,o),
(563,486,o),
(541,485,c),
(546,521,l),
(542,530,o),
(532,533,o),
(522,541,c),
(645,553,l),
(616,504,l),
(629,493,l),
(647,506,ls),
(665,520,o),
(685,532,o),
(708,537,cs),
(714,539,o),
(719,542,o),
(722,547,c),
(718,560,o),
(680,597,o),
(663,606,c),
(655,600,ls),
(643,590,o),
(629,586,o),
(614,584,cs),
(570,577,l),
(542,573,l),
(542,622,l),
(546,623,l),
(634,633,l),
(685,637,ls),
(697,638,o),
(702,646,o),
(697,657,cs),
(694,662,l),
(684,674,o),
(673,684,o),
(659,691,c),
(642,680,o),
(624,672,o),
(605,668,cs),
(545,655,l),
(545,667,ls),
(547,687,o),
(546,707,o),
(555,725,cs),
(556,727,o),
(555,732,o),
(553,735,c),
(552,738,o),
(549,740,o),
(546,742,cs),
(473,795,l),
(466,789,o),
(465,783,o),
(470,776,c),
(473,769,ls),
(487,742,o),
(495,714,o),
(496,684,cs),
(498,647,o),
(498,610,o),
(498,573,c),
(497,569,l),
(473,565,o),
(348,554,o),
(330,555,c),
(327,549,l),
(359,518,l),
(372,519,l),
(373,508,ls),
(376,475,o),
(375,442,o),
(373,410,cs),
(371,358,o),
(366,305,o),
(358,254,cs),
(348,197,o),
(331,141,o),
(306,90,c)
);
},
{
attr = {
fillColor = (0,255);
};
closed = 1;
nodes = (
(315,162,o),
(317,165,o),
(317,174,cs),
(319,230,l),
(322,276,l),
(326,371,ls),
(327,397,o),
(328,422,o),
(331,449,cs),
(337,489,l),
(338,501,l),
(323,519,o),
(305,532,o),
(288,547,c),
(279,542,l),
(286,516,o),
(286,492,o),
(286,467,cs),
(287,404,o),
(284,340,o),
(281,277,cs),
(280,262,l),
(238,251,l),
(238,310,l),
(245,562,ls),
(246,592,o),
(246,622,o),
(253,652,cs),
(256,663,o),
(252,672,o),
(244,678,cs),
(201,713,l),
(182,727,l),
(175,721,l),
(176,717,l),
(185,697,o),
(189,675,o),
(193,654,cs),
(197,627,o),
(197,601,o),
(197,575,cs),
(198,247,l),
(197,240,l),
(149,229,l),
(155,496,l),
(139,514,o),
(117,525,o),
(97,542,c),
(91,537,l),
(93,533,ls),
(104,506,o),
(107,477,o),
(107,449,cs),
(107,252,ls),
(106,235,o),
(99,221,o),
(88,209,cs),
(83,203,l),
(91,189,o),
(105,179,o),
(116,166,c),
(142,180,o),
(169,191,o),
(196,201,cs),
(223,211,o),
(249,223,o),
(279,232,c),
(271,185,l),
(281,173,o),
(293,162,o),
(307,156,c)
);
}
);
width = 1000;
},
{
associatedMasterId = m01;
layerId = "4D9C1C5C-0E27-4BBA-A2DF-9135DEE1EE51";
name = "25年7月7日 17:58";
shapes = (
{
attr = {
fillColor = (0,255);
};
closed = 1;
nodes = (
(646,-101,o),
(651,-99,o),
(656,-93,cs),
(664,-83,ls),
(686,-54,o),
(703,-22,o),
(717,12,cs),
(751,95,o),
(767,182,o),
(779,270,cs),
(784,303,l),
(819,188,o),
(849,72,o),
(878,-45,c),
(914,-45,o),
(949,-43,o),
(984,-41,c),
(984,-28,l),
(969,-16,ls),
(945,4,o),
(928,30,o),
(914,58,cs),
(899,89,o),
(887,122,o),
(875,155,cs),
(851,223,o),
(829,291,o),
(809,360,cs),
(796,400,l),
(808,402,l),
(849,405,l),
(920,407,l),
(930,408,ls),
(938,409,o),
(942,413,o),
(943,420,c),
(939,433,o),
(913,457,o),
(895,466,c),
(864,449,o),
(831,444,o),
(797,439,c),
(797,449,l),
(801,521,l),
(807,653,l),
(813,698,l),
(816,708,o),
(814,716,o),
(806,722,c),
(773,753,l),
(739,782,l),
(734,779,l),
(730,775,l),
(744,738,o),
(750,699,o),
(750,660,cs),
(748,451,l),
(746,433,l),
(728,432,o),
(710,428,o),
(693,428,c),
(687,456,o),
(674,479,o),
(663,503,c),
(655,503,l),
(657,478,o),
(653,455,o),
(644,433,c),
(653,422,l),
(639,415,l),
(655,402,o),
(671,395,o),
(686,385,c),
(705,390,o),
(723,395,o),
(743,395,c),
(743,391,ls),
(741,351,o),
(738,310,o),
(733,269,cs),
(728,231,o),
(723,194,o),
(716,156,cs),
(709,113,o),
(698,71,o),
(685,29,cs),
(669,-14,l),
(668,-10,l),
(668,119,l),
(671,145,l),
(680,176,l),
(664,191,o),
(648,204,o),
(630,216,c),
(620,209,o),
(610,205,o),
(599,203,cs),
(558,196,o),
(517,193,o),
(476,190,cs),
(447,188,l),
(413,222,l),
(402,217,l),
(418,390,l),
(443,365,l),
(464,368,l),
(577,379,l),
(630,383,l),
(640,386,l),
(641,398,o),
(633,408,o),
(612,423,c),
(607,422,ls),
(581,415,o),
(554,412,o),
(528,409,cs),
(447,401,l),
(438,401,o),
(428,400,o),
(418,404,c),
(423,521,l),
(437,510,l),
(470,517,l),
(472,508,o),
(468,500,o),
(465,492,cs),
(457,471,ls),
(456,467,o),
(455,463,o),
(461,460,c),
(477,473,ls),
(482,477,o),
(485,483,o),
(493,487,c),
(493,466,l),
(494,447,l),
(502,441,ls),
(511,435,o),
(518,437,o),
(519,448,cs),
(519,462,l),
(520,476,l),
(553,457,l),
(556,444,l),
(562,442,ls),
(575,438,o),
(589,437,o),
(602,438,cs),
(612,438,o),
(619,443,o),
(624,451,cs),
(628,460,o),
(631,469,o),
(631,478,cs),
(629,515,l),
(625,522,l),
(621,515,l),
(618,504,ls),
(613,489,o),
(600,482,o),
(585,488,c),
(584,529,l),
(594,532,o),
(594,532,o),
(598,537,c),
(591,550,o),
(578,555,o),
(569,563,c),
(560,560,o),
(553,556,o),
(546,555,cs),
(436,538,l),
(426,538,l),
(426,579,l),
(497,587,o),
(567,597,o),
(639,602,c),
(629,580,l),
(613,550,l),
(612,546,o),
(610,543,o),
(615,539,c),
(651,558,l),
(691,574,l),
(694,584,o),
(710,583,o),
(716,594,c),
(712,605,o),
(676,642,o),
(657,654,c),
(639,638,o),
(558,626,o),
(540,628,c),
(542,676,l),
(549,678,l),
(643,686,ls),
(649,687,o),
(656,687,o),
(660,692,c),
(659,703,o),
(643,721,o),
(623,733,c),
(593,718,o),
(570,713,o),
(545,710,c),
(548,737,l),
(542,749,o),
(504,776,o),
(478,787,c),
(474,782,l),
(478,768,o),
(484,755,o),
(486,742,cs),
(494,704,o),
(494,664,o),
(494,625,c),
(493,622,l),
(420,617,l),
(367,666,l),
(359,661,l),
(360,654,l),
(372,618,o),
(374,580,o),
(374,543,cs),
(374,444,o),
(371,345,o),
(362,247,cs),
(357,204,o),
(352,161,o),
(344,119,cs),
(331,53,o),
(313,-11,o),
(281,-71,cs),
(279,-76,l),
(295,-86,l),
(299,-82,l),
(328,-42,o),
(349,3,o),
(365,50,cs),
(380,95,o),
(389,140,o),
(397,186,cs),
(401,215,l),
(404,212,l),
(407,206,ls),
(414,189,o),
(416,171,o),
(418,153,cs),
(421,114,o),
(420,74,o),
(417,34,cs),
(412,-18,l),
(407,-40,l),
(420,-52,o),
(430,-66,o),
(444,-74,c),
(455,-68,o),
(457,-60,o),
(457,-50,cs),
(457,43,l),
(458,52,l),
(470,38,l),
(515,44,l),
(517,12,o),
(514,-19,o),
(509,-49,c),
(521,-60,o),
(531,-72,o),
(545,-78,c),
(551,-72,o),
(552,-71,o),
(552,-62,cs),
(553,-6,l),
(553,46,l),
(560,47,l),
(608,49,l),
(613,50,o),
(619,50,o),
(623,55,c),
(620,68,o),
(611,76,o),
(602,82,c),
(583,79,l),
(582,81,l),
(615,125,l),
(603,137,o),
(592,149,o),
(577,159,c),
(573,144,o),
(571,129,o),
(566,116,cs),
(561,102,o),
(556,88,o),
(548,76,c),
(531,75,l),
(534,101,ls),
(535,113,o),
(530,123,o),
(520,129,cs),
(485,149,ls),
(482,151,o),
(477,150,o),
(474,151,c),
(472,149,l),
(477,136,o),
(486,126,o),
(492,113,cs),
(511,74,l),
(492,72,o),
(475,69,o),
(457,69,c),
(457,155,l),
(459,166,l),
(474,157,l),
(525,162,o),
(576,168,o),
(628,169,c),
(629,151,l),
(627,23,l),
(625,-13,l),
(622,-26,l),
(559,-2,l),
(555,-11,l),
(598,-54,l),
(639,-99,l)
);
},
{
attr = {
fillColor = (0,255);
};
closed = 1;
nodes = (
(330,126,o),
(332,129,o),
(332,139,cs),
(334,198,l),
(337,247,l),
(342,348,ls),
(343,376,o),
(344,403,o),
(347,431,cs),
(353,474,l),
(354,487,l),
(338,506,o),
(319,520,o),
(301,535,c),
(292,530,l),
(299,503,o),
(299,477,o),
(299,450,cs),
(300,383,o),
(297,315,o),
(294,248,cs),
(293,232,l),
(248,221,l),
(248,283,l),
(255,551,ls),
(256,583,o),
(256,615,o),
(264,647,cs),
(267,659,o),
(263,668,o),
(254,675,cs),
(209,712,l),
(188,727,l),
(181,721,l),
(182,716,l),
(191,695,o),
(196,672,o),
(200,649,cs),
(204,621,o),
(204,593,o),
(204,565,cs),
(205,216,l),
(204,209,l),
(153,197,l),
(160,481,l),
(143,500,o),
(119,512,o),
(98,530,c),
(92,525,l),
(94,521,ls),
(105,492,o),
(109,461,o),
(109,431,cs),
(108,222,ls),
(107,204,o),
(100,189,o),
(88,176,cs),
(83,170,l),
(92,155,o),
(106,144,o),
(118,130,c),
(146,145,o),
(174,157,o),
(203,167,cs),
(232,178,o),
(260,191,o),
(292,200,c),
(283,150,l),
(294,138,o),
(306,126,o),
(321,120,c)
);
},
{
attr = {
fillColor = (0,255);
};
closed = 1;
nodes = (
(473,224,ls),
(505,229,o),
(537,234,o),
(569,235,cs),
(624,237,l),
(635,239,l),
(634,246,l),
(620,263,l),
(623,284,o),
(632,303,o),
(644,322,c),
(600,355,l),
(590,345,o),
(579,340,o),
(567,338,cs),
(534,332,o),
(500,329,o),
(467,326,cs),
(433,324,l),
(441,310,o),
(454,303,o),
(464,293,c),
(505,301,o),
(546,304,o),
(588,309,c),
(584,274,l),
(582,269,l),
(550,264,l),
(442,254,ls),
(440,254,o),
(436,255,o),
(435,250,c),
(438,245,o),
(444,241,o),
(448,237,cs),
(463,223,l)
);
},
{
attr = {
fillColor = (0,255);
};
closed = 1;
nodes = (
(460,450,l),
(447,456,l),
(426,436,l),
(435,428,l)
);
},
{
attr = {
fillColor = (0,255);
};
closed = 1;
nodes = (
(520,497,o),
(527,506,o),
(526,517,c),
(520,518,o),
(513,511,o),
(505,519,c),
(560,528,l),
(562,513,o),
(562,500,o),
(561,486,c),
(522,486,l)
);
},
{
attr = {
fillColor = (0,255);
};
closed = 1;
nodes = (
(548,505,l),
(552,522,l),
(550,524,l),
(544,519,l),
(541,514,o),
(537,510,o),
(538,503,c)
);
},
{
attr = {
fillColor = (0,255);
};
closed = 1;
nodes = (
(895,485,o),
(901,491,o),
(904,500,cs),
(910,517,o),
(913,536,o),
(913,554,cs),
(913,562,o),
(909,568,o),
(903,574,cs),
(885,589,o),
(864,600,o),
(843,612,cs),
(816,626,l),
(811,612,l),
(834,580,ls),
(852,554,o),
(865,527,o),
(877,498,cs),
(879,493,o),
(880,488,o),
(886,485,c)
);
}
);
width = 1000;
}
);
unicode = 24024;
}
{
glyphname = uni5E70;
layers = (
{
layerId = m01;
shapes = (
{
attr = {
fillColor = (0,255);
};
closed = 1;
nodes = (
(279,-85,l),
(279,166,l),
(280,251,l),
(297,231,o),
(313,214,o),
(326,193,cs),
(338,171,ls),
(344,162,o),
(350,161,o),
(357,168,cs),
(378,192,o),
(393,217,o),
(393,250,cs),
(397,440,ls),
(397,459,o),
(399,478,o),
(404,497,cs),
(406,503,o),
(408,510,o),
(413,514,c),
(423,506,l),
(432,501,l),
(440,502,o),
(445,506,o),
(448,512,cs),
(458,531,ls),
(469,554,o),
(476,579,o),
(482,603,cs),
(489,627,l),
(610,637,l),
(615,610,o),
(619,584,o),
(618,557,c),
(479,547,l),
(474,541,l),
(514,510,l),
(550,515,o),
(585,520,o),
(620,522,c),
(620,472,l),
(467,461,l),
(465,455,l),
(504,425,l),
(544,431,o),
(582,436,o),
(619,438,c),
(619,389,l),
(396,374,l),
(408,358,o),
(423,346,o),
(439,334,c),
(497,346,o),
(560,351,o),
(619,357,c),
(617,325,l),
(652,301,ls),
(654,300,o),
(658,299,o),
(662,299,c),
(665,312,o),
(664,345,o),
(665,357,c),
(688,359,l),
(855,366,l),
(908,366,ls),
(915,366,o),
(920,368,o),
(923,374,cs),
(926,381,o),
(921,386,o),
(917,389,cs),
(869,428,l),
(855,422,o),
(844,416,o),
(832,413,cs),
(817,409,o),
(802,407,o),
(787,405,cs),
(674,393,l),
(665,393,l),
(665,443,l),
(690,444,l),
(800,452,l),
(815,454,ls),
(820,454,o),
(824,457,o),
(826,463,c),
(821,473,l),
(816,478,l),
(804,487,o),
(794,496,o),
(781,502,c),
(745,485,o),
(706,482,o),
(667,477,c),
(667,527,l),
(697,530,l),
(810,536,l),
(823,538,l),
(826,547,l),
(821,558,o),
(790,584,o),
(777,589,c),
(752,573,o),
(698,566,o),
(668,564,c),
(668,578,o),
(670,593,o),
(672,608,c),
(662,615,l),
(634,632,l),
(629,636,l),
(629,638,l),
(839,652,l),
(831,629,o),
(820,609,o),
(810,588,c),
(821,580,l),
(856,599,o),
(891,614,o),
(930,618,cs),
(936,619,o),
(942,621,o),
(945,628,c),
(945,635,o),
(940,641,o),
(935,646,cs),
(920,662,o),
(906,678,o),
(890,693,cs),
(859,721,l),
(841,707,o),
(822,698,o),
(801,694,cs),
(701,680,l),
(682,678,l),
(689,698,o),
(693,720,o),
(694,739,cs),
(694,749,o),
(691,756,o),
(683,761,cs),
(663,772,ls),
(633,786,o),
(601,795,o),
(569,803,c),
(561,803,l),
(557,791,l),
(577,776,o),
(595,760,o),
(610,740,cs),
(625,721,o),
(637,700,o),
(646,676,c),
(493,665,l),
(484,688,o),
(470,707,o),
(456,726,c),
(444,722,l),
(444,720,ls),
(448,694,o),
(447,667,o),
(441,641,cs),
(436,618,o),
(430,595,o),
(418,574,cs),
(412,563,o),
(401,554,o),
(399,539,c),
(351,577,l),
(334,554,o),
(312,543,o),
(283,541,c),
(287,597,o),
(284,653,o),
(301,707,c),
(294,719,o),
(216,782,o),
(202,788,c),
(196,782,l),
(200,773,ls),
(217,740,o),
(226,704,o),
(228,667,cs),
(232,540,l),
(231,532,l),
(174,525,l),
(113,574,l),
(104,568,l),
(107,561,l),
(111,544,o),
(117,527,o),
(119,509,cs),
(122,483,o),
(124,457,o),
(124,431,cs),
(125,386,o),
(123,340,o),
(122,294,cs),
(122,273,o),
(120,251,o),
(112,230,c),
(111,222,l),
(126,204,o),
(142,189,o),
(160,175,c),
(170,182,l),
(170,216,l),
(174,471,l),
(175,486,l),
(232,493,l),
(232,476,ls),
(232,339,o),
(230,202,o),
(226,65,c),
(221,8,l),
(219,-3,o),
(215,-14,o),
(211,-25,cs),
(209,-32,o),
(209,-38,o),
(215,-43,cs),
(227,-55,o),
(238,-67,o),
(251,-78,cs),
(268,-91,l)
);
},
{
attr = {
fillColor = (0,255);
};
closed = 1;
nodes = (
(416,-47,l),
(438,-21,o),
(454,8,o),
(468,38,cs),
(479,63,o),
(480,87,o),
(468,112,cs),
(458,133,l),
(447,131,l),
(442,69,o),
(412,23,o),
(361,-12,c),
(364,-27,o),
(369,-41,o),
(376,-56,cs),
(382,-67,o),
(389,-69,o),
(400,-62,c)
);
},
{
attr = {
fillColor = (0,255);
};
closed = 1;
nodes = (
(279,266,l),
(281,500,l),
(313,504,l),
(344,507,l),
(349,488,o),
(344,265,o),
(338,248,c)
);
},
{
attr = {
fillColor = (0,255);
};
closed = 1;
nodes = (
(854,-78,ls),
(860,-78,o),
(864,-75,o),
(867,-70,c),
(869,-62,o),
(865,-57,o),
(859,-52,cs),
(822,-17,o),
(794,24,o),
(771,69,cs),
(757,96,l),
(746,93,l),
(751,53,o),
(759,14,o),
(761,-26,c),
(719,-30,o),
(683,-28,o),
(645,-14,cs),
(619,-5,o),
(597,10,o),
(579,30,cs),
(562,48,o),
(550,68,o),
(539,90,cs),
(534,100,l),
(516,95,l),
(518,83,ls),
(524,42,o),
(542,7,o),
(573,-21,cs),
(606,-51,o),
(646,-67,o),
(689,-76,cs),
(734,-84,o),
(780,-85,o),
(825,-81,cs)
);
},
{
attr = {
fillColor = (0,255);
};
closed = 1;
nodes = (
(686,39,l),
(692,66,ls),
(695,75,o),
(692,82,o),
(685,88,cs),
(666,107,o),
(644,122,o),
(623,137,c),
(617,140,l),
(608,132,l),
(634,75,l),
(654,28,ls),
(660,15,o),
(672,14,o),
(679,26,cs)
);
},
{
attr = {
fillColor = (0,255);
};
closed = 1;
nodes = (
(520,119,l),
(519,142,l),
(524,143,l),
(576,148,l),
(669,155,l),
(773,163,l),
(779,159,o),
(790,151,o),
(799,144,cs),
(804,140,l),
(812,142,o),
(821,147,o),
(824,162,c),
(826,177,l),
(829,196,l),
(842,248,ls),
(844,258,o),
(850,267,o),
(858,274,cs),
(868,285,l),
(861,296,o),
(816,331,o),
(801,336,c),
(795,332,l),
(785,323,o),
(773,317,o),
(759,315,cs),
(667,305,l),
(563,296,l),
(510,292,l),
(456,323,l),
(450,316,l),
(473,260,o),
(472,202,o),
(469,144,c),
(483,133,o),
(495,121,o),
(510,113,c)
);
},
{
attr = {
fillColor = (0,255);
};
closed = 1;
nodes = (
(513,257,l),
(534,260,o),
(554,262,o),
(575,263,c),
(578,237,o),
(578,210,o),
(578,182,c),
(516,177,l)
);
},
{
attr = {
fillColor = (0,255);
};
closed = 1;
nodes = (
(617,208,o),
(616,230,o),
(621,253,c),
(606,266,l),
(674,272,l),
(677,244,o),
(674,217,o),
(673,189,c),
(619,185,l)
);
},
{
attr = {
fillColor = (0,255);
};
closed = 1;
nodes = (
(924,-41,o),
(933,-40,o),
(938,-31,cs),
(941,-26,o),
(943,-21,o),
(943,-16,c),
(945,-4,o),
(945,9,o),
(945,22,cs),
(946,38,o),
(939,49,o),
(925,57,cs),
(887,79,o),
(847,98,o),
(807,116,c),
(803,117,l),
(793,104,l),
(837,64,o),
(875,21,o),
(910,-26,cs),
(917,-34,ls)
);
},
{
attr = {
fillColor = (0,255);
};
closed = 1;
nodes = (
(721,261,l),
(707,274,l),
(792,279,l),
(779,188,l),
(762,198,l),
(713,192,l)
);
}
);
width = 1000;
}
);
unicode = 24176;
}
{
color = 0;
glyphname = uni5E93;
layers = (
{
layerId = m01;
shapes = (
{
attr = {
fillColor = (0,255);
};
closed = 1;
nodes = (
(396,198,o),
(419,203,o),
(441,206,cs),
(549,219,o),
(678,226,o),
(819,230,cs),
(831,230,o),
(842,237,o),
(828,251,cs),
(815,264,o),
(792,281,o),
(774,294,c),
(725,272,o),
(692,269,o),
(651,265,cs),
(593,259,o),
(485,252,o),
(429,248,c),
(464,321,o),
(501,395,o),
(540,470,cs),
(551,491,o),
(563,512,o),
(579,534,c),
(565,555,o),
(550,572,o),
(525,599,c),
(506,595,l),
(510,536,o),
(499,502,o),
(482,460,cs),
(466,420,o),
(422,327,o),
(395,279,cs),
(386,264,o),
(369,250,o),
(348,244,c),
(342,232,l),
(353,217,o),
(362,206,o),
(374,193,c)
);
},
{
attr = {
fillColor = (0,255);
};
closed = 1;
nodes = (
(211,46,o),
(253,207,o),
(285,409,cs),
(290,442,o),
(295,498,o),
(301,523,c),
(289,538,o),
(265,563,o),
(247,579,c),
(222,581,l),
(225,561,o),
(227,546,o),
(228,524,cs),
(234,320,o),
(195,98,o),
(13,-88,c),
(34,-107,l)
);
},
{
attr = {
fillColor = (0,255);
};
closed = 1;
nodes = (
(468,68,o),
(768,73,o),
(909,73,cs),
(928,73,o),
(937,82,o),
(923,97,cs),
(909,112,o),
(891,127,o),
(866,145,c),
(822,127,o),
(794,119,o),
(703,114,cs),
(566,106,o),
(367,97,o),
(237,97,c),
(233,85,l),
(250,70,o),
(268,56,o),
(289,43,c)
);
},
{
attr = {
fillColor = (0,255);
};
closed = 1;
nodes = (
(615,-123,l),
(616,74,o),
(613,117,o),
(618,281,cs),
(619,316,o),
(621,335,o),
(624,351,c),
(612,360,o),
(591,375,o),
(568,389,c),
(556,383,l),
(569,311,o),
(569,86,o),
(554,-46,cs),
(553,-54,o),
(552,-64,o),
(548,-81,c),
(602,-130,l)
);
},
{
attr = {
fillColor = (0,255);
};
closed = 1;
nodes = (
(449,409,o),
(699,418,o),
(836,421,cs),
(860,422,o),
(859,438,o),
(847,448,cs),
(829,464,o),
(810,479,o),
(789,494,c),
(772,484,o),
(754,479,o),
(736,474,cs),
(674,456,o),
(390,439,o),
(304,443,c),
(298,426,l),
(315,414,o),
(332,403,o),
(352,392,c)
);
},
{
attr = {
fillColor = (0,255);
};
closed = 1;
nodes = (
(422,589,o),
(678,607,o),
(861,604,cs),
(888,604,o),
(894,616,o),
(880,633,cs),
(870,645,o),
(856,657,o),
(825,683,c),
(799,670,o),
(776,664,o),
(755,660,cs),
(644,636,o),
(280,620,o),
(167,625,c),
(163,608,l),
(185,593,o),
(209,580,o),
(233,569,c)
);
},
{
attr = {
fillColor = (0,255);
};
closed = 1;
nodes = (
(550,657,o),
(572,661,o),
(582,686,cs),
(587,699,o),
(590,714,o),
(591,727,cs),
(592,744,o),
(590,750,o),
(574,759,cs),
(553,770,o),
(491,790,o),
(441,802,c),
(434,787,l),
(484,751,o),
(510,721,o),
(540,673,cs)
);
}
);
width = 1000;
}
);
unicode = 24211;
}
{
glyphname = uni5F27;
layers = (
{
layerId = m01;
shapes = (
{
attr = {
fillColor = (0,255);
};
closed = 1;
nodes = (
(222,-80,o),
(225,-78,o),
(227,-75,c),
(248,-53,o),
(266,-28,o),
(276,1,cs),
(293,50,o),
(306,101,o),
(319,151,cs),
(340,241,ls),
(344,255,o),
(350,266,o),
(361,275,c),
(365,277,o),
(367,281,o),
(369,284,c),
(366,293,o),
(322,331,o),
(308,338,c),
(293,326,ls),
(286,320,o),
(278,316,o),
(268,314,cs),
(182,299,ls),
(173,297,o),
(163,297,o),
(153,296,c),
(172,441,l),
(350,457,ls),
(360,458,o),
(363,466,o),
(357,474,cs),
(350,481,l),
(338,494,l),
(339,504,l),
(354,619,ls),
(357,637,o),
(362,653,o),
(376,666,c),
(379,668,o),
(380,671,o),
(381,673,c),
(377,685,o),
(334,720,o),
(317,728,c),
(315,726,ls),
(299,706,o),
(279,695,o),
(253,691,cs),
(197,681,o),
(140,674,o),
(81,673,c),
(77,663,l),
(115,636,ls),
(122,631,o),
(129,630,o),
(137,631,cs),
(277,652,l),
(302,655,l),
(299,600,o),
(294,546,o),
(288,492,c),
(167,477,l),
(148,492,o),
(134,508,o),
(116,520,c),
(111,517,l),
(107,514,l),
(110,507,ls),
(118,486,o),
(123,465,o),
(121,442,cs),
(109,316,ls),
(107,300,o),
(100,287,o),
(86,279,c),
(83,274,l),
(94,260,o),
(109,250,o),
(121,240,c),
(165,254,ls),
(176,257,o),
(187,258,o),
(199,260,cs),
(292,274,l),
(287,236,ls),
(277,185,o),
(267,134,o),
(252,85,cs),
(246,63,o),
(237,41,o),
(229,20,cs),
(227,14,o),
(224,8,o),
(216,5,c),
(197,12,l),
(94,59,l),
(82,64,l),
(80,59,o),
(77,56,o),
(74,52,c),
(99,32,ls),
(138,1,o),
(173,-33,o),
(201,-74,cs),
(205,-79,ls),
(210,-84,o),
(214,-84,o),
(219,-81,c)
);
},
{
attr = {
fillColor = (0,255);
};
closed = 1;
nodes = (
(977,1,l),
(912,43,o),
(883,79,o),
(860,120,cs),
(800,222,o),
(749,366,o),
(711,492,cs),
(707,506,o),
(705,509,o),
(695,517,cs),
(679,529,o),
(668,537,o),
(657,542,c),
(645,537,l),
(678,468,o),
(810,74,o),
(829,4,cs),
(834,-16,o),
(844,-19,o),
(857,-18,cs),
(899,-16,o),
(933,-18,o),
(976,-19,c)
);
},
{
attr = {
fillColor = (0,255);
};
closed = 1;
nodes = (
(471,65,o),
(495,260,o),
(503,463,cs),
(504,479,o),
(508,513,o),
(510,525,c),
(494,549,o),
(470,571,o),
(446,593,c),
(431,584,l),
(444,548,o),
(448,501,o),
(448,463,cs),
(446,266,o),
(432,85,o),
(286,-81,c),
(305,-100,l)
);
},
{
attr = {
fillColor = (0,255);
};
closed = 1;
nodes = (
(750,-19,o),
(761,-19,o),
(770,-1,cs),
(775,10,o),
(778,21,o),
(782,41,cs),
(785,58,o),
(782,67,o),
(768,82,cs),
(728,124,o),
(703,147,o),
(655,191,c),
(641,181,l),
(687,118,o),
(716,56,o),
(742,-1,cs)
);
},
{
attr = {
fillColor = (0,255);
};
closed = 1;
nodes = (
(601,-4,o),
(656,41,o),
(718,87,c),
(704,111,l),
(674,90,o),
(633,65,o),
(600,50,c),
(604,175,o),
(612,295,o),
(621,422,cs),
(624,460,o),
(626,488,o),
(633,515,c),
(614,539,o),
(591,559,o),
(567,576,c),
(558,570,l),
(573,525,o),
(575,500,o),
(573,437,cs),
(568,262,o),
(561,116,o),
(551,55,cs),
(546,24,o),
(528,12,o),
(498,-2,c),
(496,-14,l),
(508,-30,o),
(524,-46,o),
(542,-60,c)
);
},
{
attr = {
fillColor = (0,255);
};
closed = 1;
nodes = (
(582,560,o),
(690,598,o),
(771,640,cs),
(792,651,o),
(810,659,o),
(829,667,c),
(807,701,o),
(784,726,o),
(754,755,c),
(741,748,l),
(746,719,o),
(734,707,o),
(715,688,cs),
(672,647,o),
(567,590,o),
(460,549,c),
(480,524,l)
);
}
);
width = 1000;
}
);
unicode = 24359;
}
{
glyphname = uni6039;
layers = (
{
layerId = m01;
shapes = (
{
attr = {
fillColor = (0,255);
};
closed = 1;
nodes = (
(655,197,o),
(693,198,o),
(732,201,cs),
(764,204,o),
(795,208,o),
(826,215,cs),
(845,220,o),
(863,226,o),
(882,233,cs),
(897,239,o),
(900,249,o),
(897,265,cs),
(893,285,o),
(889,305,o),
(887,325,cs),
(880,406,l),
(879,416,l),
(865,416,l),
(861,392,ls),
(858,370,o),
(852,348,o),
(844,326,cs),
(833,295,o),
(812,275,o),
(780,265,cs),
(748,255,o),
(715,251,o),
(682,249,cs),
(641,246,o),
(599,247,o),
(558,251,cs),
(545,252,o),
(533,255,o),
(520,257,cs),
(501,261,o),
(491,273,o),
(488,292,cs),
(486,309,o),
(484,326,o),
(484,343,cs),
(486,464,l),
(488,487,l),
(576,516,l),
(576,505,l),
(574,424,ls),
(573,392,o),
(574,360,o),
(564,328,c),
(576,310,o),
(593,295,o),
(609,279,c),
(621,287,l),
(620,369,o),
(620,449,o),
(623,531,c),
(756,572,l),
(755,565,l),
(750,542,ls),
(741,507,o),
(731,472,o),
(718,438,cs),
(716,433,o),
(715,427,o),
(709,423,c),
(686,425,o),
(663,432,o),
(640,437,c),
(639,436,o),
(637,435,o),
(637,433,c),
(634,427,l),
(661,408,o),
(682,384,o),
(701,357,cs),
(706,351,ls),
(710,348,o),
(715,348,o),
(720,352,cs),
(727,359,ls),
(738,371,o),
(747,384,o),
(753,399,cs),
(779,461,l),
(810,548,ls),
(815,563,o),
(823,577,o),
(836,587,c),
(844,596,l),
(840,608,o),
(791,645,o),
(772,652,c),
(765,642,ls),
(753,628,o),
(740,614,o),
(722,607,cs),
(653,581,l),
(625,571,l),
(625,579,l),
(629,648,ls),
(630,666,o),
(632,683,o),
(635,700,cs),
(636,711,o),
(640,720,o),
(642,732,c),
(617,760,o),
(585,782,o),
(555,806,c),
(546,798,l),
(563,765,o),
(571,729,o),
(572,693,cs),
(576,564,l),
(575,555,l),
(490,526,l),
(491,559,o),
(491,612,o),
(499,643,cs),
(501,651,o),
(499,657,o),
(493,662,cs),
(482,673,l),
(422,722,l),
(412,715,l),
(422,695,o),
(428,674,o),
(432,652,cs),
(437,620,o),
(439,587,o),
(439,555,cs),
(439,512,l),
(400,498,o),
(362,488,o),
(323,478,c),
(325,474,o),
(325,471,o),
(327,470,c),
(341,460,o),
(355,451,o),
(371,444,c),
(394,454,o),
(416,464,o),
(438,471,c),
(439,467,l),
(437,362,ls),
(437,337,o),
(439,312,o),
(441,288,cs),
(444,263,o),
(455,243,o),
(475,228,cs),
(486,220,o),
(498,215,o),
(511,211,cs),
(545,202,o),
(581,199,o),
(617,198,cs)
);
},
{
attr = {
fillColor = (0,255);
};
closed = 1;
nodes = (
(154,-46,o),
(159,-42,o),
(163,-37,cs),
(180,-16,l),
(203,18,o),
(219,55,o),
(232,94,cs),
(237,110,o),
(237,126,o),
(231,141,cs),
(215,182,l),
(212,188,l),
(199,185,l),
(199,171,ls),
(199,151,o),
(195,132,o),
(186,114,cs),
(176,91,o),
(162,70,o),
(148,51,cs),
(137,37,o),
(125,24,o),
(110,14,cs),
(98,6,l),
(103,-11,o),
(109,-27,o),
(117,-41,cs),
(125,-56,o),
(135,-58,o),
(148,-50,cs)
);
},
{
attr = {
fillColor = (0,255);
};
closed = 1;
nodes = (
(789,-89,o),
(795,-88,o),
(800,-85,c),
(808,-82,o),
(811,-75,o),
(807,-68,cs),
(796,-53,l),
(775,-36,l),
(744,-4,o),
(715,30,o),
(688,66,cs),
(657,111,l),
(645,107,l),
(658,62,o),
(675,18,o),
(686,-27,c),
(683,-29,l),
(648,-30,o),
(612,-29,o),
(578,-24,cs),
(554,-20,o),
(531,-15,o),
(508,-9,cs),
(468,1,o),
(432,20,o),
(399,45,cs),
(365,72,o),
(341,106,o),
(322,143,cs),
(317,152,l),
(301,148,l),
(301,142,l),
(309,104,o),
(325,69,o),
(349,39,cs),
(384,-3,o),
(428,-32,o),
(478,-53,cs),
(531,-74,o),
(587,-83,o),
(644,-87,cs),
(690,-91,o),
(737,-89,o),
(783,-89,cs)
);
},
{
attr = {
fillColor = (0,255);
};
closed = 1;
nodes = (
(539,41,o),
(543,44,o),
(548,54,cs),
(556,72,o),
(560,91,o),
(561,111,cs),
(561,117,o),
(558,123,o),
(554,127,cs),
(546,135,ls),
(517,161,o),
(484,182,o),
(452,203,cs),
(448,205,l),
(439,196,l),
(441,192,l),
(470,143,l),
(515,59,ls),
(519,52,o),
(521,45,o),
(529,42,c)
);
},
{
attr = {
fillColor = (0,255);
};
closed = 1;
nodes = (
(295,183,l),
(295,221,l),
(299,410,ls),
(299,429,o),
(300,449,o),
(305,469,cs),
(307,482,l),
(265,512,l),
(326,592,ls),
(345,617,o),
(361,644,o),
(384,665,c),
(386,672,o),
(382,677,o),
(379,682,cs),
(320,779,l),
(315,787,l),
(308,784,l),
(302,782,l),
(302,779,l),
(303,773,ls),
(310,737,o),
(306,701,o),
(293,667,cs),
(281,634,o),
(265,603,o),
(246,574,cs),
(195,495,o),
(132,426,o),
(58,366,cs),
(37,349,l),
(54,329,l),
(126,373,o),
(187,427,o),
(244,489,c),
(248,465,o),
(248,443,o),
(248,422,cs),
(247,356,l),
(244,291,l),
(234,227,l),
(245,213,o),
(274,184,o),
(286,177,c)
);
},
{
attr = {
fillColor = (0,255);
};
closed = 1;
nodes = (
(893,1,o),
(905,2,o),
(910,15,cs),
(914,26,l),
(916,43,o),
(917,61,o),
(915,78,cs),
(912,102,o),
(911,103,o),
(890,115,cs),
(858,133,o),
(825,149,o),
(792,163,cs),
(740,185,l),
(731,172,l),
(753,153,ls),
(794,116,o),
(831,75,o),
(866,33,cs),
(884,11,ls)
);
}
);
width = 1000;
}
);
unicode = 24633;
}
{
color = 6;
glyphname = uni611B;
layers = (
{
layerId = m01;
shapes = (
{
attr = {
fillColor = (0,255);
};
closed = 1;
nodes = (
(113,308,o),
(119,312,o),
(122,317,cs),
(132,331,o),
(141,346,o),
(148,361,cs),
(163,392,o),
(176,424,o),
(183,458,c),
(437,471,l),
(430,458,l),
(432,454,ls),
(453,423,o),
(471,390,o),
(486,356,cs),
(488,350,o),
(492,344,o),
(499,344,cs),
(507,344,o),
(511,350,o),
(513,357,cs),
(522,391,ls),
(526,405,o),
(522,416,o),
(509,424,cs),
(447,464,l),
(444,465,o),
(441,466,o),
(439,471,c),
(817,490,l),
(806,460,o),
(784,439,o),
(768,413,c),
(777,406,l),
(785,410,l),
(824,425,ls),
(854,435,o),
(884,439,o),
(914,441,cs),
(929,443,l),
(935,450,o),
(933,455,o),
(930,460,c),
(920,472,l),
(857,538,l),
(832,563,l),
(829,562,l),
(802,540,o),
(773,525,o),
(737,524,cs),
(716,524,o),
(695,521,o),
(674,519,cs),
(626,516,l),
(626,518,l),
(713,621,ls),
(718,628,o),
(718,630,o),
(714,637,cs),
(709,643,l),
(670,684,l),
(661,692,l),
(654,687,l),
(655,671,o),
(652,650,o),
(644,632,cs),
(609,553,l),
(588,514,l),
(451,503,o),
(316,497,o),
(181,490,c),
(163,549,l),
(151,547,l),
(153,470,o),
(121,407,o),
(71,352,c),
(73,347,l),
(89,312,ls),
(93,303,o),
(100,300,o),
(108,305,cs)
);
},
{
attr = {
fillColor = (0,255);
};
closed = 1;
nodes = (
(223,220,l),
(233,233,o),
(245,245,o),
(252,259,cs),
(295,344,ls),
(298,351,o),
(297,358,o),
(294,365,cs),
(270,410,l),
(262,409,l),
(259,395,o),
(258,382,o),
(253,370,cs),
(242,332,o),
(220,299,o),
(191,273,cs),
(169,250,l),
(187,216,ls),
(193,206,o),
(198,204,o),
(209,210,c)
);
},
{
attr = {
fillColor = (0,255);
};
closed = 1;
nodes = (
(205,-101,l),
(263,-87,o),
(322,-70,o),
(379,-47,cs),
(429,-27,o),
(478,-2,o),
(521,32,c),
(531,38,l),
(557,20,l),
(695,-82,ls),
(705,-91,o),
(715,-94,o),
(727,-92,cs),
(795,-84,l),
(907,-77,l),
(916,-75,l),
(916,-56,l),
(790,-40,o),
(674,2,o),
(563,65,c),
(571,73,l),
(631,132,ls),
(647,148,o),
(661,164,o),
(679,176,c),
(684,181,l),
(679,195,o),
(635,231,o),
(618,236,c),
(603,228,ls),
(591,220,o),
(580,215,o),
(567,213,cs),
(526,204,o),
(484,202,o),
(443,197,cs),
(418,195,l),
(417,197,l),
(435,218,ls),
(441,228,o),
(442,231,o),
(436,239,c),
(394,283,l),
(385,276,l),
(383,257,ls),
(381,239,o),
(373,222,o),
(363,207,cs),
(335,160,o),
(296,118,o),
(254,82,cs),
(217,50,o),
(177,24,o),
(135,0,cs),
(95,-24,l),
(105,-44,l),
(210,2,o),
(306,61,o),
(381,150,c),
(495,64,l),
(407,-6,o),
(304,-45,o),
(197,-77,c),
(202,-101,l)
);
},
{
attr = {
fillColor = (0,255);
};
closed = 1;
nodes = (
(418,158,l),
(418,161,l),
(593,175,l),
(589,154,o),
(545,105,o),
(522,89,c)
);
},
{
attr = {
fillColor = (0,255);
};
closed = 1;
nodes = (
(652,265,o),
(672,267,o),
(690,274,cs),
(695,276,o),
(702,277,o),
(706,282,c),
(704,291,o),
(697,297,o),
(691,303,cs),
(661,337,o),
(629,371,o),
(605,411,c),
(602,414,l),
(593,410,l),
(601,375,o),
(612,344,o),
(617,309,c),
(601,306,l),
(563,306,ls),
(529,306,o),
(496,313,o),
(464,324,cs),
(409,343,o),
(367,376,o),
(342,428,c),
(340,431,l),
(329,427,l),
(330,420,ls),
(341,372,o),
(369,335,o),
(410,309,cs),
(448,286,o),
(488,275,o),
(530,267,cs),
(569,261,o),
(592,261,o),
(632,264,cs)
);
},
{
attr = {
fillColor = (0,255);
};
closed = 1;
nodes = (
(361,524,o),
(365,534,o),
(369,544,cs),
(374,556,o),
(372,566,o),
(363,575,cs),
(315,622,ls),
(307,630,o),
(306,630,o),
(294,624,c),
(295,620,l),
(333,517,ls),
(338,505,o),
(347,504,o),
(355,515,cs)
);
},
{
attr = {
fillColor = (0,255);
};
closed = 1;
nodes = (
(509,529,o),
(512,532,o),
(514,536,cs),
(527,568,ls),
(531,578,o),
(528,587,o),
(520,594,c),
(472,646,l),
(464,653,l),
(451,647,l),
(456,629,l),
(468,598,o),
(481,567,o),
(488,535,cs),
(489,531,l),
(493,524,o),
(500,522,o),
(506,527,cs)
);
},
{
attr = {
fillColor = (0,255);
};
closed = 1;
nodes = (
(787,279,o),
(800,282,o),
(804,297,c),
(805,305,l),
(804,344,ls),
(804,356,o),
(799,363,o),
(790,370,cs),
(781,375,o),
(774,380,o),
(766,383,cs),
(665,426,l),
(660,427,l),
(655,418,l),
(684,390,ls),
(715,358,o),
(749,328,o),
(775,291,c),
(777,289,ls)
);
},
{
attr = {
fillColor = (0,255);
};
closed = 1;
nodes = (
(298,631,l),
(387,645,ls),
(442,654,o),
(496,665,o),
(550,678,cs),
(590,688,o),
(628,700,o),
(667,712,cs),
(682,716,o),
(696,718,o),
(710,713,c),
(712,713,l),
(718,711,o),
(722,713,o),
(725,717,cs),
(729,721,o),
(728,725,o),
(726,729,cs),
(720,739,l),
(678,787,l),
(657,808,l),
(646,805,l),
(645,782,o),
(630,769,o),
(613,758,cs),
(597,748,ls),
(570,733,o),
(541,722,o),
(511,712,cs),
(443,690,o),
(372,676,o),
(301,661,cs),
(247,652,l),
(254,625,l)
);
}
);
width = 1000;
}
);
unicode = 24859;
}
{
color = 0;
glyphname = uni6350;
layers = (
{
layerId = m01;
shapes = (
{
attr = {
fillColor = (0,255);
};
closed = 1;
nodes = (
(816,-119,o),
(825,-119,o),
(833,-110,cs),
(853,-88,o),
(870,-59,o),
(870,-27,cs),
(868,114,o),
(869,223,o),
(873,324,cs),
(874,345,o),
(877,365,o),
(892,381,cs),
(899,388,o),
(899,394,o),
(891,400,cs),
(867,418,o),
(842,435,o),
(818,449,c),
(803,433,o),
(785,422,o),
(764,418,cs),
(683,402,o),
(610,396,o),
(526,391,c),
(530,351,l),
(623,360,o),
(725,369,o),
(816,376,c),
(819,254,o),
(820,92,o),
(815,10,cs),
(814,-5,o),
(813,-11,o),
(809,-19,c),
(761,-3,o),
(716,14,o),
(669,34,c),
(661,22,l),
(743,-37,o),
(773,-68,o),
(809,-110,cs)
);
},
{
attr = {
fillColor = (0,255);
};
closed = 1;
nodes = (
(212,218,o),
(404,349,o),
(453,384,c),
(437,403,l),
(345,344,o),
(126,210,o),
(41,197,c),
(38,186,l),
(118,143,l)
);
},
{
attr = {
fillColor = (0,255);
};
closed = 1;
nodes = (
(274,-104,o),
(282,-103,o),
(290,-93,cs),
(312,-68,o),
(320,-26,o),
(320,2,cs),
(319,269,o),
(318,478,o),
(326,613,cs),
(328,639,o),
(331,665,o),
(344,698,c),
(315,729,o),
(269,768,o),
(239,791,c),
(224,777,l),
(251,737,o),
(263,694,o),
(265,649,cs),
(271,385,o),
(268,301,o),
(266,49,cs),
(266,22,o),
(265,12,o),
(262,2,c),
(224,15,o),
(185,30,o),
(134,49,c),
(128,36,l),
(203,-20,o),
(241,-59,o),
(267,-94,cs)
);
},
{
attr = {
fillColor = (0,255);
};
closed = 1;
nodes = (
(541,-94,l),
(541,61,o),
(543,207,o),
(547,352,cs),
(547,370,o),
(549,379,o),
(552,388,c),
(530,409,o),
(509,428,o),
(478,444,c),
(466,434,l),
(479,409,o),
(488,376,o),
(491,347,cs),
(500,268,o),
(494,142,o),
(490,55,cs),
(489,26,o),
(486,-3,o),
(470,-44,c),
(485,-64,o),
(501,-83,o),
(525,-103,c)
);
},
{
attr = {
fillColor = (0,255);
};
closed = 1;
nodes = (
(186,463,o),
(323,485,o),
(446,497,cs),
(461,499,o),
(466,511,o),
(455,522,cs),
(441,535,o),
(426,549,o),
(412,560,c),
(381,540,o),
(371,536,o),
(331,528,cs),
(278,517,o),
(238,509,o),
(185,501,cs),
(151,496,o),
(115,493,o),
(62,491,c),
(59,477,l),
(119,441,l)
);
},
{
attr = {
fillColor = (0,255);
};
closed = 1;
nodes = (
(601,112,o),
(691,118,o),
(772,123,cs),
(786,124,o),
(792,134,o),
(783,144,cs),
(771,158,o),
(757,170,o),
(744,180,c),
(731,173,o),
(711,165,o),
(685,161,cs),
(615,150,o),
(538,145,o),
(520,145,c),
(520,106,l)
);
},
{
attr = {
fillColor = (0,255);
};
closed = 1;
nodes = (
(604,231,o),
(690,237,o),
(767,242,cs),
(781,243,o),
(787,252,o),
(778,263,cs),
(766,278,o),
(753,289,o),
(739,299,c),
(724,291,o),
(699,283,o),
(677,279,cs),
(640,273,o),
(568,266,o),
(525,264,c),
(527,226,l)
);
},
{
attr = {
fillColor = (0,255);
};
closed = 1;
nodes = (
(572,452,l),
(569,509,o),
(564,617,o),
(568,659,cs),
(569,667,o),
(571,676,o),
(573,683,c),
(548,710,o),
(520,734,o),
(490,755,c),
(474,742,l),
(499,707,o),
(508,677,o),
(510,642,cs),
(513,605,o),
(514,577,o),
(514,548,cs),
(514,522,o),
(510,503,o),
(504,487,c),
(519,470,o),
(537,456,o),
(557,443,c)
);
},
{
attr = {
fillColor = (0,255);
};
closed = 1;
nodes = (
(649,502,o),
(742,509,o),
(850,513,cs),
(865,514,o),
(871,523,o),
(860,534,cs),
(829,562,l),
(817,560,o),
(806,557,o),
(794,556,cs),
(715,547,o),
(637,540,o),
(558,535,c),
(559,495,l)
);
},
{
attr = {
fillColor = (0,255);
};
closed = 1;
nodes = (
(833,540,l),
(845,613,ls),
(849,639,o),
(856,662,o),
(878,681,cs),
(884,686,o),
(885,693,o),
(876,700,cs),
(857,714,o),
(832,731,o),
(806,747,c),
(791,734,o),
(776,719,o),
(757,714,cs),
(721,705,o),
(617,695,o),
(554,690,c),
(555,648,l),
(630,656,o),
(712,665,o),
(788,671,c),
(788,627,o),
(784,582,o),
(778,538,c)
);
}
);
width = 1000;
}
);
unicode = 25424;
}
{
glyphname = uni6450;
layers = (
{
layerId = m01;
shapes = (
{
attr = {
fillColor = (0,255);
};
closed = 1;
nodes = (
(216,-96,o),
(224,-95,o),
(232,-83,cs),
(243,-68,o),
(251,-52,o),
(257,-35,cs),
(263,-20,o),
(262,-5,o),
(262,10,cs),
(263,239,l),
(263,255,l),
(387,343,l),
(376,361,l),
(339,338,o),
(302,316,o),
(263,295,c),
(266,475,l),
(269,477,l),
(351,487,ls),
(359,488,o),
(368,488,o),
(376,490,cs),
(390,493,o),
(393,502,o),
(383,512,cs),
(354,540,l),
(347,544,l),
(322,530,o),
(295,523,o),
(267,517,c),
(267,523,l),
(271,626,ls),
(272,650,o),
(274,673,o),
(282,695,c),
(282,697,l),
(279,705,o),
(279,705,o),
(271,713,cs),
(249,734,o),
(224,753,o),
(199,771,cs),
(182,784,l),
(173,776,l),
(179,765,ls),
(191,744,o),
(200,722,o),
(203,699,cs),
(209,633,ls),
(211,600,o),
(211,567,o),
(212,533,cs),
(213,507,l),
(157,499,o),
(102,489,o),
(46,487,c),
(45,480,l),
(93,443,l),
(133,453,o),
(172,460,o),
(213,467,c),
(213,269,l),
(172,246,o),
(86,201,o),
(34,190,c),
(32,182,l),
(90,148,l),
(103,142,l),
(117,150,l),
(182,197,l),
(213,219,l),
(213,213,l),
(211,36,l),
(209,14,ls),
(209,10,o),
(207,7,o),
(206,3,c),
(166,12,o),
(129,24,o),
(91,36,c),
(86,26,l),
(96,18,l),
(106,11,ls),
(143,-17,o),
(178,-48,o),
(207,-84,cs)
);
},
{
attr = {
fillColor = (0,255);
};
closed = 1;
nodes = (
(456,-86,o),
(459,-83,o),
(459,-78,cs),
(459,-70,l),
(462,164,ls),
(462,201,o),
(460,238,o),
(469,277,c),
(447,296,l),
(449,300,l),
(487,366,ls),
(498,386,o),
(507,407,o),
(521,426,c),
(522,430,l),
(519,441,o),
(472,503,o),
(462,510,c),
(454,504,l),
(459,480,o),
(458,456,o),
(452,432,cs),
(445,400,o),
(435,369,o),
(422,340,cs),
(391,269,o),
(349,204,o),
(298,145,cs),
(295,141,l),
(310,128,l),
(349,164,o),
(383,203,o),
(414,246,c),
(414,241,ls),
(415,174,o),
(414,107,o),
(410,40,cs),
(408,17,o),
(406,-5,o),
(399,-27,c),
(398,-39,l),
(414,-56,o),
(432,-73,o),
(449,-87,c)
);
},
{
attr = {
fillColor = (0,255);
};
closed = 1;
nodes = (
(537,-26,o),
(573,42,o),
(598,116,c),
(612,106,l),
(816,-59,ls),
(826,-68,o),
(838,-70,o),
(851,-66,cs),
(859,-63,l),
(970,-30,l),
(970,-13,l),
(877,-4,o),
(793,28,o),
(715,78,c),
(714,103,o),
(717,219,o),
(720,229,c),
(773,235,l),
(862,243,ls),
(866,243,o),
(870,243,o),
(874,245,c),
(884,248,o),
(886,256,o),
(881,264,c),
(876,269,l),
(857,289,l),
(832,308,l),
(799,282,o),
(759,274,o),
(719,265,c),
(722,299,o),
(721,332,o),
(728,365,c),
(707,386,o),
(681,400,o),
(657,417,c),
(649,410,l),
(654,394,ls),
(664,364,o),
(668,332,o),
(668,301,cs),
(668,130,l),
(666,106,l),
(606,147,l),
(618,179,o),
(619,212,o),
(635,243,c),
(616,274,o),
(592,303,o),
(566,330,c),
(562,328,l),
(558,325,l),
(560,317,ls),
(564,301,o),
(567,285,o),
(567,268,cs),
(567,237,o),
(565,207,o),
(561,177,cs),
(556,139,o),
(547,103,o),
(535,67,cs),
(520,22,o),
(499,-21,o),
(472,-61,cs),
(465,-73,l),
(481,-82,l)
);
},
{
attr = {
fillColor = (0,255);
};
closed = 1;
nodes = (
(373,422,ls),
(418,474,o),
(454,532,o),
(484,593,cs),
(497,620,o),
(508,649,o),
(525,674,c),
(525,676,l),
(520,689,o),
(470,754,o),
(456,766,c),
(447,761,l),
(451,736,ls),
(455,710,o),
(452,685,o),
(447,661,cs),
(430,583,o),
(402,510,o),
(358,443,cs),
(343,420,l),
(360,408,l)
);
},
{
attr = {
fillColor = (0,255);
};
closed = 1;
nodes = (
(568,434,o),
(591,474,o),
(613,517,c),
(617,512,l),
(656,456,l),
(664,444,l),
(678,442,o),
(683,445,o),
(685,457,c),
(687,493,ls),
(687,503,o),
(684,511,o),
(675,516,cs),
(643,534,l),
(625,543,l),
(676,675,l),
(673,686,o),
(622,748,o),
(610,756,c),
(602,750,l),
(606,727,o),
(608,704,o),
(606,681,cs),
(603,648,o),
(597,615,o),
(589,583,cs),
(576,532,o),
(559,483,o),
(536,436,cs),
(521,406,l),
(539,396,l)
);
},
{
attr = {
fillColor = (0,255);
};
closed = 1;
nodes = (
(728,448,o),
(752,488,o),
(776,531,c),
(781,524,l),
(812,493,o),
(840,460,o),
(867,425,c),
(878,413,l),
(884,408,o),
(892,409,o),
(896,415,cs),
(898,418,o),
(900,422,o),
(900,426,cs),
(902,444,o),
(903,462,o),
(901,480,cs),
(899,490,o),
(895,497,o),
(885,502,cs),
(791,549,l),
(786,552,l),
(843,694,l),
(839,704,o),
(783,771,o),
(769,782,c),
(760,776,l),
(768,745,o),
(770,723,o),
(766,693,cs),
(756,626,ls),
(742,558,o),
(721,493,o),
(683,433,c),
(679,425,l),
(697,412,l)
);
}
);
width = 1000;
}
);
unicode = 25680;
}
{
color = 4;
glyphname = uni6559;
layers = (
{
layerId = m01;
shapes = (
{
attr = {
fillColor = (0,255);
};
closed = 1;
nodes = (
(320,590,o),
(242,582,o),
(156,583,c),
(150,574,l),
(203,538,l),
(301,553,o),
(398,567,o),
(496,569,cs),
(508,569,o),
(512,578,o),
(505,588,cs),
(495,602,o),
(483,612,o),
(468,621,c),
(442,608,o),
(432,605,o),
(401,601,cs)
);
},
{
attr = {
fillColor = (0,255);
};
closed = 1;
nodes = (
(656,157,o),
(717,63,o),
(777,-31,cs),
(791,-53,o),
(798,-57,o),
(816,-55,cs),
(862,-49,o),
(908,-46,o),
(954,-46,c),
(953,-29,l),
(917,-18,o),
(860,9,o),
(842,21,cs),
(755,77,o),
(654,203,o),
(607,287,cs),
(600,300,o),
(589,303,o),
(582,302,cs),
(568,301,o),
(559,298,o),
(544,291,c),
(546,279,l),
(558,281,o),
(569,277,o),
(579,264,cs)
);
},
{
attr = {
fillColor = (0,255);
};
closed = 1;
nodes = (
(389,448,l),
(390,511,o),
(391,575,o),
(392,638,cs),
(392,670,o),
(398,700,o),
(407,720,c),
(389,741,o),
(339,780,o),
(312,796,c),
(304,786,l),
(325,747,o),
(336,694,o),
(338,649,cs),
(341,581,o),
(341,512,o),
(338,444,c)
);
},
{
attr = {
fillColor = (0,255);
};
closed = 1;
nodes = (
(216,414,o),
(495,441,o),
(602,435,cs),
(610,435,o),
(614,445,o),
(609,452,cs),
(596,469,o),
(577,485,o),
(556,494,c),
(534,483,o),
(510,474,o),
(474,470,cs),
(313,450,o),
(229,443,o),
(60,440,c),
(58,430,l),
(124,393,l)
);
},
{
attr = {
fillColor = (0,255);
};
closed = 1;
nodes = (
(133,94,o),
(153,79,o),
(177,64,c),
(305,114,o),
(429,160,o),
(557,204,c),
(548,230,l),
(469,200,o),
(208,132,o),
(179,128,cs),
(156,124,o),
(139,122,o),
(121,121,c),
(117,109,l)
);
},
{
attr = {
fillColor = (0,255);
};
closed = 1;
nodes = (
(631,397,o),
(678,518,o),
(717,635,cs),
(722,650,o),
(727,665,o),
(736,679,cs),
(738,682,o),
(743,686,o),
(733,700,cs),
(714,726,o),
(690,757,o),
(658,791,c),
(645,781,l),
(653,754,o),
(660,720,o),
(659,697,cs),
(653,569,o),
(601,420,o),
(529,311,c),
(547,301,l)
);
},
{
attr = {
fillColor = (0,255);
};
closed = 1;
nodes = (
(744,420,o),
(832,429,o),
(918,431,cs),
(940,432,o),
(947,442,o),
(929,460,cs),
(910,479,o),
(891,493,o),
(875,505,c),
(857,490,o),
(835,478,o),
(811,473,cs),
(753,460,o),
(676,446,o),
(619,440,c),
(616,431,l),
(625,422,o),
(638,413,o),
(652,407,c)
);
},
{
attr = {
fillColor = (0,255);
};
closed = 1;
nodes = (
(660,-2,o),
(711,121,o),
(772,331,cs),
(775,340,o),
(779,351,o),
(787,363,c),
(776,381,o),
(750,409,o),
(729,426,c),
(714,419,l),
(719,402,o),
(722,381,o),
(716,341,cs),
(686,134,o),
(600,30,o),
(413,-71,c),
(421,-90,l)
);
},
{
attr = {
fillColor = (0,255);
};
closed = 1;
nodes = (
(304,298,o),
(381,315,o),
(449,326,c),
(435,294,o),
(421,274,o),
(394,248,c),
(410,229,l),
(438,256,o),
(478,291,o),
(497,305,cs),
(507,313,o),
(516,318,o),
(530,324,cs),
(535,326,o),
(540,333,o),
(535,339,cs),
(519,359,o),
(508,369,o),
(485,382,c),
(471,370,o),
(462,365,o),
(440,360,cs),
(351,341,o),
(249,324,o),
(200,325,c),
(198,316,l),
(215,300,o),
(232,291,o),
(251,282,c)
);
},
{
attr = {
fillColor = (0,255);
};
closed = 1;
nodes = (
(413,208,o),
(413,218,o),
(416,236,c),
(397,252,o),
(376,268,o),
(354,281,c),
(346,274,l),
(363,248,o),
(367,211,o),
(367,189,cs),
(366,116,o),
(367,44,o),
(362,8,cs),
(361,-2,o),
(359,-9,o),
(357,-13,c),
(323,-5,o),
(281,12,o),
(237,31,c),
(230,19,l),
(265,-6,o),
(327,-57,o),
(352,-92,cs),
(358,-98,o),
(364,-99,o),
(371,-94,cs),
(376,-91,o),
(389,-74,o),
(400,-54,cs),
(406,-43,o),
(409,-30,o),
(410,-16,cs),
(412,24,o),
(414,150,o),
(413,190,cs)
);
},
{
attr = {
fillColor = (0,255);
};
closed = 1;
nodes = (
(244,220,o),
(382,316,o),
(555,576,cs),
(577,610,o),
(585,616,o),
(600,626,c),
(583,658,o),
(568,682,o),
(539,720,c),
(527,715,l),
(534,668,o),
(515,626,o),
(497,587,cs),
(413,401,o),
(214,245,o),
(42,163,c),
(53,141,l)
);
}
);
width = 1000;
},
{
associatedMasterId = m01;
layerId = "208B29E0-DEA4-42A2-A767-FF6B213F3C99";
name = "24年12月12日 18:28";
shapes = (
{
attr = {
fillColor = (0,255);
};
closed = 1;
nodes = (
(378,-90,o),
(406,-55,o),
(408,-26,cs),
(413,14,o),
(413,103,o),
(415,153,c),
(557,206,l),
(548,230,l),
(504,213,o),
(460,201,o),
(415,189,c),
(415,204,o),
(414,219,o),
(414,234,c),
(465,278,ls),
(484,294,o),
(503,310,o),
(530,324,cs),
(535,326,o),
(541,333,o),
(535,339,cs),
(517,357,o),
(504,367,o),
(484,383,c),
(470,371,o),
(465,367,o),
(444,360,cs),
(405,352,o),
(393,350,o),
(372,346,c),
(417,391,o),
(412,386,o),
(452,432,c),
(465,433,o),
(487,434,o),
(498,435,cs),
(531,437,o),
(563,439,o),
(596,436,c),
(577,393,o),
(556,351,o),
(529,311,c),
(547,301,l),
(581,336,o),
(608,376,o),
(632,418,c),
(652,407,l),
(676,411,o),
(690,414,o),
(715,416,c),
(723,377,o),
(699,238,o),
(675,192,c),
(644,229,o),
(626,257,o),
(603,298,cs),
(600,303,o),
(595,305,o),
(590,304,cs),
(578,301,o),
(564,298,o),
(553,294,cs),
(545,291,o),
(544,288,o),
(548,285,cs),
(562,275,o),
(574,264,o),
(585,251,cs),
(602,227,o),
(619,203,o),
(655,152,c),
(609,57,o),
(506,-21,o),
(413,-71,c),
(421,-90,l),
(528,-50,o),
(620,9,o),
(684,107,c),
(715,61,o),
(746,15,o),
(777,-31,cs),
(792,-53,o),
(798,-55,o),
(816,-54,cs),
(851,-52,o),
(927,-48,o),
(954,-46,c),
(953,-29,l),
(917,-18,o),
(860,9,o),
(842,21,cs),
(789,55,o),
(714,135,o),
(707,149,c),
(737,208,o),
(758,282,o),
(772,331,cs),
(774,338,o),
(778,346,o),
(783,355,cs),
(786,361,o),
(787,363,o),
(783,369,cs),
(772,383,o),
(753,402,o),
(738,419,c),
(790,424,o),
(903,431,o),
(918,431,cs),
(940,431,o),
(947,442,o),
(929,460,cs),
(910,479,o),
(891,493,o),
(875,505,c),
(853,492,o),
(835,480,o),
(811,473,cs),
(761,460,o),
(693,451,o),
(645,446,c),
(670,503,o),
(686,543,o),
(717,635,cs),
(722,650,o),
(727,665,o),
(736,679,cs),
(738,682,o),
(743,686,o),
(733,700,cs),
(714,726,o),
(690,757,o),
(658,791,c),
(645,781,l),
(653,754,o),
(660,720,o),
(659,697,cs),
(656,630,o),
(637,552,o),
(605,456,c),
(590,473,o),
(573,485,o),
(556,497,c),
(533,488,o),
(512,477,o),
(484,473,c),
(493,483,o),
(505,502,o),
(512,512,cs),
(567,592,ls),
(574,602,o),
(579,607,o),
(588,611,cs),
(595,614,o),
(599,618,o),
(592,632,cs),
(578,660,o),
(563,684,o),
(539,720,c),
(539,720,o),
(527,715,o),
(527,715,c),
(534,670,o),
(520,630,o),
(500,593,c),
(467,625,l),
(444,611,o),
(418,603,o),
(391,601,c),
(391,616,o),
(395,672,o),
(403,708,cs),
(405,717,o),
(405,722,o),
(399,728,cs),
(391,736,o),
(323,791,o),
(312,796,c),
(304,786,l),
(337,725,o),
(339,659,o),
(338,593,c),
(277,587,o),
(217,582,o),
(156,583,c),
(150,574,l),
(203,538,l),
(248,545,o),
(293,551,o),
(338,557,c),
(338,457,l),
(292,452,o),
(182,442,o),
(154,441,cs),
(129,440,o),
(66,440,o),
(60,440,c),
(58,430,l),
(124,393,l),
(177,405,o),
(225,410,o),
(275,415,cs),
(302,419,o),
(351,422,o),
(387,426,c),
(375,406,o),
(316,346,o),
(297,334,c),
(265,330,o),
(233,324,o),
(200,325,c),
(196,318,l),
(240,284,l),
(175,240,o),
(114,193,o),
(42,163,c),
(53,141,l),
(133,171,o),
(211,213,o),
(324,301,c),
(365,310,o),
(402,318,o),
(449,326,c),
(444,311,o),
(407,257,o),
(396,249,c),
(382,260,o),
(368,271,o),
(354,281,c),
(346,274,l),
(364,244,o),
(367,204,o),
(365,176,c),
(352,172,ls),
(312,162,o),
(273,152,o),
(233,142,cs),
(203,135,o),
(180,129,o),
(148,124,cs),
(141,123,o),
(132,123,o),
(120,123,c),
(115,113,l),
(133,99,o),
(150,85,o),
(168,71,cs),
(174,67,o),
(178,66,o),
(189,71,cs),
(235,90,o),
(305,116,o),
(366,137,c),
(366,104,o),
(364,33,o),
(362,4,cs),
(361,-8,o),
(360,-17,o),
(345,-11,cs),
(314,1,o),
(273,17,o),
(234,30,c),
(230,19,l),
(265,-6,o),
(327,-57,o),
(352,-92,cs),
(358,-98,o),
(364,-99,o),
(371,-94,cs)
);
},
{
attr = {
fillColor = (0,255);
};
closed = 1;
nodes = (
(389,493,o),
(389,528,o),
(389,562,c),
(489,569,l),
(472,533,o),
(445,490,o),
(426,463,c),
(389,460,l)
);
}
);
width = 1000;
}
);
unicode = 25945;
}
{
color = 4;
glyphname = uni6593;
layers = (
{
layerId = m01;
shapes = (
{
attr = {
fillColor = (0,255);
};
closed = 1;
nodes = (
(443,110,o),
(445,388,o),
(451,510,cs),
(453,551,o),
(454,562,o),
(461,582,c),
(455,597,o),
(401,652,o),
(386,661,c),
(375,651,l),
(388,628,o),
(395,604,o),
(398,569,cs),
(408,466,o),
(399,180,o),
(396,68,cs),
(395,36,o),
(390,2,o),
(380,-38,c),
(395,-59,o),
(412,-77,o),
(431,-94,c),
(444,-84,l)
);
},
{
attr = {
fillColor = (0,255);
};
closed = 1;
nodes = (
(265,275,o),
(218,324,o),
(147,390,c),
(128,375,l),
(209,285,o),
(264,210,o),
(320,113,cs),
(329,97,o),
(343,98,o),
(347,113,cs),
(353,134,o),
(354,153,o),
(352,164,cs),
(349,180,o),
(343,191,o),
(338,196,cs)
);
},
{
attr = {
fillColor = (0,255);
};
closed = 1;
nodes = (
(187,490,o),
(268,505,o),
(370,518,cs),
(383,520,o),
(388,531,o),
(379,542,cs),
(370,554,o),
(357,565,o),
(342,573,c),
(319,559,o),
(306,555,o),
(285,550,cs),
(227,535,o),
(155,521,o),
(69,516,c),
(66,506,l),
(115,471,l)
);
},
{
attr = {
fillColor = (0,255);
};
closed = 1;
nodes = (
(785,34,o),
(794,44,o),
(796,54,cs),
(799,74,o),
(799,86,o),
(797,103,cs),
(795,114,o),
(794,118,o),
(778,128,cs),
(739,150,o),
(699,167,o),
(660,186,c),
(654,172,l),
(715,121,o),
(729,106,o),
(772,51,cs)
);
},
{
attr = {
fillColor = (0,255);
};
closed = 1;
nodes = (
(254,590,o),
(268,589,o),
(275,602,cs),
(285,620,o),
(288,647,o),
(287,666,cs),
(287,684,o),
(272,693,o),
(257,700,cs),
(223,718,o),
(187,733,o),
(151,744,c),
(144,732,l),
(204,672,o),
(224,643,o),
(245,606,cs)
);
},
{
attr = {
fillColor = (0,255);
};
closed = 1;
nodes = (
(583,272,o),
(589,273,o),
(592,277,cs),
(597,282,o),
(602,295,o),
(602,307,cs),
(602,314,o),
(601,318,o),
(596,324,cs),
(581,337,o),
(563,349,o),
(544,358,c),
(539,347,l),
(562,320,o),
(577,290,o),
(581,278,cs)
);
},
{
attr = {
fillColor = (0,255);
};
closed = 1;
nodes = (
(646,271,l),
(674,291,o),
(699,314,o),
(709,325,cs),
(716,333,o),
(720,337,o),
(724,340,c),
(717,355,o),
(705,370,o),
(688,385,c),
(680,378,l),
(684,367,o),
(683,362,o),
(679,352,cs),
(670,329,o),
(659,308,o),
(638,280,c)
);
},
{
attr = {
fillColor = (0,255);
};
closed = 1;
nodes = (
(842,-106,o),
(848,-108,o),
(859,-96,cs),
(883,-69,o),
(895,-49,o),
(895,-8,cs),
(892,189,o),
(894,385,o),
(899,582,cs),
(899,620,o),
(905,656,o),
(925,689,c),
(903,714,o),
(878,734,o),
(850,750,c),
(835,736,o),
(818,725,o),
(798,720,cs),
(785,716,o),
(661,699,o),
(596,699,c),
(594,690,l),
(608,676,o),
(625,664,o),
(643,652,c),
(706,663,o),
(775,673,o),
(844,678,c),
(847,449,o),
(847,180,o),
(843,26,cs),
(842,6,o),
(839,-7,o),
(836,-16,c),
(799,-5,o),
(762,7,o),
(725,22,c),
(719,11,l),
(761,-20,o),
(804,-61,o),
(833,-96,cs)
);
},
{
attr = {
fillColor = (0,255);
};
closed = 1;
nodes = (
(529,627,o),
(537,644,cs),
(545,661,o),
(549,683,o),
(549,701,cs),
(550,711,o),
(546,721,o),
(538,726,cs),
(503,749,o),
(470,765,o),
(414,786,c),
(406,774,l),
(450,731,o),
(479,695,o),
(506,645,cs),
(518,623,o)
);
},
{
attr = {
fillColor = (0,255);
};
closed = 1;
nodes = (
(729,227,o),
(732,230,o),
(728,238,cs),
(721,253,o),
(717,257,o),
(705,268,c),
(694,262,o),
(681,258,o),
(669,256,cs),
(624,249,o),
(576,244,o),
(530,241,c),
(532,209,l),
(593,217,o),
(667,223,o),
(723,227,cs)
);
},
{
attr = {
fillColor = (0,255);
};
closed = 1;
nodes = (
(438,7,l),
(515,53,o),
(581,112,o),
(634,192,c),
(608,241,l),
(590,183,o),
(507,84,o),
(439,39,c)
);
},
{
attr = {
fillColor = (0,255);
};
closed = 1;
nodes = (
(518,420,o),
(499,431,o),
(480,440,c),
(472,432,l),
(482,414,o),
(488,395,o),
(490,375,cs),
(495,320,o),
(499,284,o),
(496,231,cs),
(496,223,o),
(494,215,o),
(491,207,c),
(505,194,o),
(518,184,o),
(532,177,c),
(540,182,l),
(536,248,o),
(536,314,o),
(535,380,cs),
(535,389,o),
(536,398,o),
(537,407,c)
);
},
{
attr = {
fillColor = (0,255);
};
closed = 1;
nodes = (
(517,373,l),
(589,386,o),
(660,393,o),
(737,396,c),
(736,344,o),
(734,302,o),
(726,250,cs),
(725,241,o),
(717,233,o),
(705,229,c),
(715,221,o),
(725,209,o),
(730,198,cs),
(735,186,o),
(745,188,o),
(750,194,cs),
(758,203,o),
(762,215,o),
(764,227,cs),
(771,272,o),
(775,315,o),
(778,360,cs),
(779,373,o),
(785,386,o),
(796,395,cs),
(803,402,o),
(803,405,o),
(795,413,cs),
(781,428,o),
(765,440,o),
(747,450,c),
(735,440,o),
(721,432,o),
(705,430,cs),
(643,421,o),
(580,412,o),
(518,407,c)
);
},
{
attr = {
fillColor = (0,255);
};
closed = 1;
nodes = (
(599,482,o),
(700,492,o),
(804,494,cs),
(818,494,o),
(821,505,o),
(811,515,cs),
(800,529,o),
(787,540,o),
(773,550,c),
(736,534,o),
(727,530,o),
(707,527,cs),
(599,514,o),
(540,508,o),
(467,505,c),
(465,497,l),
(477,485,o),
(489,476,o),
(503,467,c)
);
},
{
attr = {
fillColor = (0,255);
};
closed = 1;
nodes = (
(652,511,cs),
(652,541,o),
(655,565,o),
(662,590,c),
(654,601,o),
(619,628,o),
(599,640,c),
(591,634,l),
(603,588,o),
(606,572,o),
(608,544,cs),
(619,367,o),
(621,205,o),
(611,81,cs),
(609,52,o),
(605,30,o),
(594,2,c),
(606,-13,o),
(622,-27,o),
(641,-38,c),
(653,-33,l),
(649,316,o),
(652,496,o)
);
},
{
attr = {
fillColor = (0,255);
};
closed = 1;
nodes = (
(218,92,o),
(278,205,o),
(325,383,cs),
(329,398,o),
(334,413,o),
(344,425,cs),
(346,428,l),
(340,442,o),
(311,476,o),
(284,500,c),
(271,493,l),
(276,474,o),
(278,454,o),
(277,435,cs),
(265,275,o),
(190,121,o),
(37,-2,c),
(52,-20,l)
);
}
);
width = 1000;
},
{
associatedMasterId = m01;
layerId = "10AA9603-FACD-4CB0-A912-9D0FE94B92C6";
name = "24年12月12日 18:28";
shapes = (
{
attr = {
fillColor = (0,255);
};
closed = 1;
nodes = (
(444,-84,l),
(444,11,l),
(508,49,o),
(563,97,o),
(610,155,c),
(610,147,o),
(608,95,o),
(608,87,cs),
(606,61,o),
(605,36,o),
(597,11,cs),
(595,4,o),
(597,-1,o),
(601,-5,cs),
(632,-34,l),
(642,-40,l),
(651,-33,l),
(649,52,o),
(648,136,o),
(650,221,c),
(707,226,l),
(713,222,o),
(720,214,o),
(726,205,cs),
(733,193,ls),
(737,186,o),
(742,185,o),
(748,190,cs),
(752,194,o),
(755,198,o),
(757,203,cs),
(760,214,o),
(764,226,o),
(765,238,cs),
(779,360,ls),
(781,373,o),
(785,386,o),
(796,395,cs),
(803,402,o),
(803,406,o),
(795,413,cs),
(762,440,l),
(746,451,l),
(732,442,o),
(721,433,o),
(705,430,cs),
(681,427,l),
(652,423,l),
(652,485,l),
(656,486,l),
(750,493,l),
(804,494,ls),
(809,494,o),
(814,495,o),
(816,500,cs),
(818,506,o),
(815,511,o),
(811,515,cs),
(800,529,o),
(787,540,o),
(773,550,c),
(735,531,o),
(695,527,o),
(654,521,c),
(654,546,o),
(656,568,o),
(662,590,c),
(654,601,o),
(619,628,o),
(599,640,c),
(595,636,l),
(591,634,l),
(604,594,o),
(612,536,o),
(607,515,c),
(537,509,l),
(467,505,l),
(463,498,l),
(497,471,ls),
(502,467,o),
(506,467,o),
(512,468,cs),
(582,479,l),
(610,481,l),
(610,418,l),
(527,409,l),
(480,440,l),
(472,432,l),
(482,414,o),
(488,395,o),
(490,375,cs),
(492,354,o),
(495,333,o),
(495,312,cs),
(496,231,l),
(493,207,l),
(532,177,l),
(540,182,l),
(540,211,l),
(597,217,l),
(571,160,o),
(474,50,o),
(442,40,c),
(443,60,l),
(448,425,ls),
(448,457,o),
(450,488,o),
(452,520,cs),
(453,541,o),
(454,562,o),
(461,582,c),
(455,597,o),
(401,652,o),
(386,661,c),
(375,651,l),
(388,628,o),
(393,604,o),
(397,579,cs),
(401,546,o),
(402,513,o),
(403,480,cs),
(405,342,o),
(400,205,o),
(396,68,cs),
(395,45,o),
(395,21,o),
(389,-1,cs),
(380,-28,ls),
(378,-35,o),
(379,-41,o),
(384,-46,cs),
(412,-76,l),
(431,-94,l)
);
},
{
attr = {
fillColor = (0,255);
};
closed = 1;
nodes = (
(142,36,o),
(211,110,o),
(261,203,c),
(264,200,l),
(320,113,ls),
(322,109,o),
(324,105,o),
(328,102,c),
(333,96,o),
(341,97,o),
(345,103,c),
(348,106,o),
(350,110,o),
(350,113,cs),
(350,177,ls),
(350,183,o),
(347,188,o),
(342,193,cs),
(310,227,l),
(283,254,l),
(284,257,ls),
(299,298,o),
(313,340,o),
(325,383,cs),
(329,398,o),
(334,413,o),
(344,425,cs),
(346,428,l),
(340,442,o),
(311,476,o),
(284,500,c),
(275,495,l),
(276,484,ls),
(276,468,o),
(278,452,o),
(277,435,cs),
(276,405,o),
(270,375,o),
(262,346,cs),
(248,290,l),
(216,323,o),
(183,357,o),
(147,390,c),
(128,375,l),
(172,326,o),
(206,283,o),
(231,247,c),
(229,244,l),
(196,167,o),
(147,100,o),
(86,43,cs),
(37,-2,l),
(52,-20,l)
);
},
{
attr = {
fillColor = (0,255);
};
closed = 1;
nodes = (
(137,476,o),
(157,482,o),
(178,486,cs),
(305,508,l),
(370,517,ls),
(377,518,o),
(385,517,o),
(387,526,cs),
(389,533,o),
(384,538,o),
(379,542,cs),
(353,565,l),
(342,573,l),
(319,559,o),
(296,550,o),
(270,544,cs),
(240,537,o),
(209,531,o),
(178,526,cs),
(101,517,l),
(69,516,l),
(66,506,l),
(115,470,l)
);
},
{
attr = {
fillColor = (0,255);
};
closed = 1;
nodes = (
(786,34,o),
(794,44,o),
(796,54,cs),
(799,74,o),
(799,86,o),
(797,103,cs),
(795,114,o),
(794,118,o),
(778,128,cs),
(739,150,o),
(699,167,o),
(660,186,c),
(654,172,l),
(715,121,o),
(727,107,o),
(772,51,cs)
);
},
{
attr = {
fillColor = (0,255);
};
closed = 1;
nodes = (
(259,589,o),
(264,589,o),
(270,594,c),
(276,597,o),
(279,603,o),
(281,609,cs),
(287,628,o),
(288,647,o),
(287,666,cs),
(287,674,o),
(284,682,o),
(278,687,cs),
(271,692,o),
(265,697,o),
(257,700,cs),
(185,731,l),
(151,744,l),
(144,732,l),
(146,730,ls),
(184,692,o),
(218,652,o),
(245,606,c),
(254,594,l)
);
},
{
attr = {
fillColor = (0,255);
};
closed = 1;
nodes = (
(535,377,l),
(611,386,l),
(611,250,l),
(538,242,l)
);
},
{
attr = {
fillColor = (0,255);
};
closed = 1;
nodes = (
(598,281,o),
(607,307,o),
(601,319,c),
(596,324,ls),
(581,337,o),
(563,349,o),
(544,358,c),
(539,351,l),
(563,312,l),
(572,300,o),
(576,285,o),
(585,273,c)
);
},
{
attr = {
fillColor = (0,255);
};
closed = 1;
nodes = (
(705,268,l),
(651,254,l),
(651,275,l),
(717,330,ls),
(725,337,o),
(726,340,o),
(719,349,cs),
(688,385,l),
(680,378,l),
(684,367,o),
(680,356,o),
(676,346,cs),
(670,331,o),
(661,317,o),
(651,302,c),
(651,389,l),
(679,393,o),
(707,395,o),
(737,396,c),
(736,347,o),
(732,299,o),
(727,250,c)
);
},
{
attr = {
fillColor = (0,255);
};
closed = 1;
nodes = (
(849,-103,o),
(853,-102,o),
(856,-99,cs),
(872,-83,o),
(885,-65,o),
(891,-43,cs),
(895,-25,o),
(895,-6,o),
(895,12,cs),
(894,202,o),
(894,392,o),
(899,582,cs),
(899,602,o),
(901,621,o),
(903,641,cs),
(904,654,o),
(908,667,o),
(917,677,c),
(925,689,l),
(903,714,o),
(875,730,o),
(850,750,c),
(835,736,o),
(818,725,o),
(798,720,cs),
(785,716,o),
(773,714,o),
(760,712,cs),
(711,705,o),
(661,699,o),
(611,699,cs),
(596,699,l),
(594,690,l),
(636,658,l),
(641,653,o),
(647,653,o),
(655,654,cs),
(822,676,l),
(846,678,l),
(846,658,l),
(844,55,l),
(840,-4,ls),
(840,-8,o),
(838,-11,o),
(836,-16,c),
(725,22,l),
(719,11,l),
(726,5,ls),
(766,-24,o),
(802,-57,o),
(833,-96,c),
(844,-106,l)
);
},
{
attr = {
fillColor = (0,255);
};
closed = 1;
nodes = (
(535,638,o),
(539,643,o),
(541,648,cs),
(546,665,o),
(549,683,o),
(549,701,cs),
(550,711,o),
(546,720,o),
(538,726,cs),
(516,740,ls),
(486,758,o),
(453,771,o),
(420,784,cs),
(414,786,l),
(406,774,l),
(414,766,ls),
(451,730,o),
(481,690,o),
(506,645,cs),
(511,636,l),
(517,629,o),
(523,627,o),
(530,634,cs)
);
}
);
width = 1000;
}
);
unicode = 26003;
}
{
glyphname = uni6683;
layers = (
{
layerId = m01;
shapes = (
{
attr = {
fillColor = (0,255);
};
closed = 1;
nodes = (
(608,-100,l),
(608,45,l),
(612,45,l),
(762,51,l),
(906,50,ls),
(913,50,o),
(920,51,o),
(926,53,cs),
(935,56,o),
(938,64,o),
(933,72,cs),
(925,82,l),
(897,108,l),
(868,129,l),
(852,120,o),
(836,113,o),
(819,110,cs),
(782,102,o),
(744,99,o),
(707,96,cs),
(629,91,l),
(608,90,l),
(610,177,l),
(658,181,l),
(818,190,l),
(833,192,l),
(841,195,o),
(844,202,o),
(841,210,c),
(836,217,l),
(798,253,l),
(787,248,o),
(779,244,o),
(769,241,cs),
(742,231,o),
(712,228,o),
(683,225,cs),
(612,219,l),
(612,297,l),
(619,297,l),
(698,304,l),
(796,311,l),
(854,313,ls),
(861,313,o),
(868,314,o),
(873,320,c),
(876,330,o),
(871,337,o),
(865,343,cs),
(836,369,l),
(816,384,l),
(791,369,o),
(766,359,o),
(738,356,cs),
(635,343,l),
(613,341,l),
(619,406,l),
(610,415,o),
(558,439,o),
(546,440,c),
(542,436,o),
(545,431,o),
(545,427,c),
(548,408,o),
(553,388,o),
(554,368,cs),
(556,326,o),
(558,283,o),
(558,241,cs),
(559,162,o),
(557,84,o),
(553,6,cs),
(552,-14,o),
(549,-33,o),
(543,-52,cs),
(541,-62,l),
(551,-76,o),
(586,-106,o),
(596,-109,c)
);
},
{
attr = {
fillColor = (0,255);
};
closed = 1;
nodes = (
(421,-109,o),
(431,-106,o),
(435,-96,cs),
(437,-92,o),
(438,-88,o),
(438,-83,cs),
(439,-38,ls),
(439,62,o),
(440,162,o),
(444,262,cs),
(445,301,o),
(445,340,o),
(452,379,cs),
(453,389,o),
(450,394,o),
(442,399,cs),
(393,426,l),
(383,430,l),
(378,427,o),
(378,424,o),
(379,420,cs),
(381,405,o),
(385,390,o),
(386,375,cs),
(386,332,l),
(369,331,l),
(241,321,ls),
(203,318,o),
(165,316,o),
(126,317,cs),
(123,317,l),
(120,315,l),
(119,309,l),
(144,286,l),
(167,267,l),
(278,280,l),
(387,289,l),
(389,271,o),
(389,221,o),
(386,214,c),
(308,209,o),
(229,200,o),
(150,199,c),
(148,191,l),
(188,153,l),
(255,163,o),
(321,169,o),
(388,174,c),
(387,92,l),
(277,83,o),
(169,73,o),
(60,71,c),
(57,66,l),
(56,62,l),
(74,46,o),
(90,28,o),
(109,15,c),
(114,16,ls),
(158,26,o),
(204,30,o),
(250,35,cs),
(362,47,l),
(386,49,l),
(385,12,o),
(384,-24,o),
(371,-58,c),
(376,-65,l),
(391,-80,l),
(413,-101,ls)
);
},
{
attr = {
fillColor = (0,255);
};
closed = 1;
nodes = (
(319,395,o),
(322,398,o),
(322,408,cs),
(322,435,l),
(432,443,o),
(541,449,o),
(650,454,c),
(656,446,l),
(674,416,l),
(681,405,ls),
(686,398,o),
(693,397,o),
(700,402,cs),
(704,404,o),
(707,408,o),
(710,411,c),
(720,426,o),
(728,441,o),
(730,459,cs),
(740,549,l),
(752,650,ls),
(755,669,o),
(760,687,o),
(774,701,cs),
(782,709,o),
(781,715,o),
(773,723,c),
(754,738,l),
(702,775,l),
(689,766,ls),
(675,755,o),
(659,748,o),
(641,746,cs),
(550,737,l),
(487,732,l),
(312,721,l),
(240,769,l),
(231,761,l),
(236,750,ls),
(245,730,o),
(252,710,o),
(254,688,cs),
(257,667,o),
(260,646,o),
(261,626,cs),
(265,492,ls),
(265,480,o),
(262,467,o),
(261,454,cs),
(258,439,l),
(273,422,o),
(287,403,o),
(308,391,c)
);
},
{
attr = {
fillColor = (0,255);
};
closed = 1;
nodes = (
(633,509,l),
(612,503,ls),
(593,499,o),
(574,495,o),
(555,493,cs),
(505,488,o),
(454,485,o),
(404,481,cs),
(333,477,l),
(321,477,l),
(321,555,l),
(328,557,l),
(642,576,l),
(648,577,o),
(653,579,o),
(657,586,c),
(655,589,o),
(655,595,o),
(652,598,cs),
(642,611,o),
(631,621,o),
(618,630,c),
(598,623,o),
(579,618,o),
(558,615,cs),
(479,606,l),
(380,599,l),
(330,596,l),
(319,596,l),
(319,676,l),
(442,686,o),
(565,693,o),
(689,700,c),
(693,670,o),
(680,493,o),
(672,476,c)
);
}
);
width = 1000;
}
);
unicode = 26243;
}
{
color = 4;
glyphname = uni6717;
layers = (
{
layerId = m01;
shapes = (
{
attr = {
fillColor = (0,255);
};
closed = 1;
nodes = (
(224,409,l),
(281,415,o),
(342,423,o),
(395,428,cs),
(416,430,o),
(418,439,o),
(408,451,cs),
(400,460,o),
(391,469,o),
(382,478,c),
(350,459,o),
(277,450,o),
(225,443,c)
);
},
{
attr = {
fillColor = (0,255);
};
closed = 1;
nodes = (
(394,647,o),
(398,663,cs),
(403,680,o),
(406,698,o),
(404,716,cs),
(402,731,o),
(394,742,o),
(378,750,cs),
(354,762,o),
(280,783,o),
(251,788,c),
(245,775,l),
(293,739,o),
(338,691,o),
(365,650,cs),
(375,635,o)
);
},
{
attr = {
fillColor = (0,255);
};
closed = 1;
nodes = (
(634,434,l),
(696,442,o),
(736,447,o),
(798,451,cs),
(806,452,o),
(811,460,o),
(806,467,cs),
(796,481,o),
(786,492,o),
(770,505,c),
(760,498,o),
(746,493,o),
(728,488,cs),
(701,481,o),
(667,476,o),
(634,472,c)
);
},
{
attr = {
fillColor = (0,255);
};
closed = 1;
nodes = (
(474,332,l),
(476,398,o),
(480,467,o),
(490,531,cs),
(493,550,o),
(498,561,o),
(512,575,cs),
(516,579,o),
(518,583,o),
(513,588,cs),
(496,607,o),
(468,624,o),
(440,636,c),
(430,619,o),
(416,610,o),
(396,606,cs),
(360,600,o),
(289,589,o),
(220,583,c),
(226,545,l),
(294,554,o),
(365,562,o),
(434,567,c),
(432,482,o),
(429,401,o),
(424,325,c)
);
},
{
attr = {
fillColor = (0,255);
};
closed = 1;
nodes = (
(421,144,o),
(465,79,cs),
(478,59,o),
(491,74,o),
(495,86,cs),
(500,103,o),
(501,120,o),
(500,137,cs),
(500,148,o),
(495,157,o),
(487,163,cs),
(447,193,o),
(425,208,o),
(345,248,c),
(334,234,l),
(401,170,o)
);
},
{
attr = {
fillColor = (0,255);
};
closed = 1;
nodes = (
(418,159,l),
(358,125,o),
(297,93,o),
(227,59,c),
(228,225,o),
(230,390,o),
(236,536,cs),
(237,563,o),
(238,568,o),
(239,576,c),
(215,603,o),
(190,624,o),
(158,642,c),
(146,631,l),
(160,607,o),
(174,572,o),
(176,536,cs),
(182,429,o),
(184,218,o),
(173,67,cs),
(171,43,o),
(150,29,o),
(127,22,c),
(123,6,l),
(138,-10,o),
(155,-26,o),
(176,-42,c),
(273,31,o),
(306,55,o),
(431,141,c)
);
},
{
attr = {
fillColor = (0,255);
};
closed = 1;
nodes = (
(642,627,l),
(704,637,o),
(765,644,o),
(827,648,c),
(832,434,o),
(830,188,o),
(826,35,cs),
(826,25,o),
(826,-1,o),
(820,-15,c),
(774,2,o),
(722,24,o),
(674,47,c),
(664,31,l),
(737,-20,o),
(772,-46,o),
(823,-103,cs),
(832,-113,o),
(839,-112,o),
(847,-102,cs),
(870,-75,o),
(883,-44,o),
(882,-7,cs),
(879,92,o),
(880,547,o),
(888,619,cs),
(890,633,o),
(892,645,o),
(906,660,cs),
(911,665,o),
(913,670,o),
(904,679,cs),
(883,701,o),
(859,717,o),
(831,729,c),
(817,708,o),
(798,696,o),
(774,691,cs),
(727,680,o),
(681,675,o),
(634,672,c)
);
},
{
attr = {
fillColor = (0,255);
};
closed = 1;
nodes = (
(616,255,l),
(685,264,o),
(730,268,o),
(798,271,cs),
(808,271,o),
(811,282,o),
(806,290,cs),
(798,303,o),
(786,317,o),
(773,326,c),
(761,320,o),
(748,313,o),
(724,308,cs),
(699,303,o),
(660,297,o),
(624,294,c)
);
},
{
attr = {
fillColor = (0,255);
};
closed = 1;
nodes = (
(651,228,o),
(652,584,cs),
(652,603,o),
(656,632,o),
(664,658,c),
(637,683,o),
(609,707,o),
(575,729,c),
(561,718,l),
(587,680,o),
(594,643,o),
(595,604,cs),
(599,378,o),
(622,97,o),
(401,-92,c),
(418,-110,l),
(628,45,o)
);
},
{
attr = {
fillColor = (0,255);
};
closed = 1;
nodes = (
(453,340,o),
(443,338,o),
(430,336,cs),
(390,330,o),
(267,315,o),
(230,312,c),
(222,274,l),
(329,285,o),
(414,294,o),
(495,301,cs),
(506,302,o),
(512,305,o),
(505,315,cs),
(496,327,o),
(483,335,o),
(469,346,c)
);
}
);
width = 1000;
},
{
associatedMasterId = m01;
layerId = "6EBDE203-4BF4-4A54-9248-62025184627A";
name = "24年12月12日 18:28";
shapes = (
{
attr = {
fillColor = (0,255);
};
closed = 1;
nodes = (
(224,409,l),
(281,415,o),
(342,423,o),
(395,428,cs),
(416,430,o),
(418,439,o),
(408,451,cs),
(400,460,o),
(391,469,o),
(382,478,c),
(350,459,o),
(277,450,o),
(225,443,c)
);
},
{
attr = {
fillColor = (0,255);
};
closed = 1;
nodes = (
(394,647,o),
(398,663,cs),
(403,680,o),
(405,698,o),
(404,716,cs),
(403,731,o),
(394,742,o),
(382,748,cs),
(362,757,o),
(280,783,o),
(251,788,c),
(245,775,l),
(293,739,o),
(338,691,o),
(365,650,cs),
(375,635,o)
);
},
{
attr = {
fillColor = (0,255);
};
closed = 1;
nodes = (
(634,434,l),
(696,442,o),
(736,445,o),
(798,451,cs),
(806,452,o),
(811,460,o),
(806,467,cs),
(797,479,o),
(791,487,o),
(770,506,c),
(740,487,o),
(687,478,o),
(634,472,c)
);
},
{
attr = {
fillColor = (0,255);
};
closed = 1;
nodes = (
(474,332,l),
(474,347,l),
(483,460,l),
(491,530,ls),
(493,549,o),
(500,563,o),
(514,577,cs),
(518,581,o),
(519,586,o),
(514,590,cs),
(495,605,o),
(468,621,o),
(442,637,c),
(435,629,ls),
(425,617,o),
(412,609,o),
(396,606,cs),
(360,600,o),
(289,589,o),
(220,583,c),
(226,545,l),
(294,554,o),
(365,561,o),
(434,568,c),
(432,482,o),
(429,401,o),
(424,325,c)
);
},
{
attr = {
fillColor = (0,255);
};
closed = 1;
nodes = (
(421,144,o),
(465,79,cs),
(478,59,o),
(491,74,o),
(495,86,cs),
(500,103,o),
(501,120,o),
(500,137,cs),
(500,148,o),
(495,157,o),
(487,163,cs),
(434,203,o),
(391,225,o),
(349,246,cs),
(345,248,l),
(334,234,l),
(401,170,o)
);
},
{
attr = {
fillColor = (0,255);
};
closed = 1;
nodes = (
(418,159,l),
(358,125,o),
(297,93,o),
(225,59,c),
(231,284,l),
(232,303,l),
(232,419,l),
(233,435,l),
(235,556,l),
(238,577,l),
(213,604,o),
(185,622,o),
(160,643,c),
(147,632,l),
(161,608,o),
(173,572,o),
(176,536,cs),
(183,429,o),
(184,218,o),
(172,57,cs),
(171,45,o),
(166,38,o),
(156,32,cs),
(151,29,o),
(137,25,o),
(127,22,c),
(125,9,l),
(164,-33,ls),
(173,-42,o),
(178,-42,o),
(188,-34,cs),
(199,-25,o),
(208,-16,o),
(220,-8,cs),
(297,47,o),
(321,63,o),
(431,141,c)
);
},
{
attr = {
fillColor = (0,255);
};
closed = 1;
nodes = (
(642,629,l),
(827,650,l),
(832,436,o),
(829,148,o),
(825,-5,cs),
(825,-15,o),
(819,-16,o),
(814,-14,cs),
(768,5,o),
(722,26,o),
(674,47,c),
(664,31,l),
(699,7,ls),
(743,-26,o),
(786,-61,o),
(823,-103,cs),
(831,-113,o),
(839,-112,o),
(847,-102,cs),
(870,-75,o),
(883,-44,o),
(882,-7,cs),
(879,92,o),
(880,547,o),
(888,619,cs),
(890,633,o),
(892,645,o),
(906,660,cs),
(911,665,o),
(913,671,o),
(904,679,cs),
(881,697,o),
(857,713,o),
(831,729,c),
(817,708,o),
(798,696,o),
(774,691,cs),
(727,680,o),
(681,675,o),
(634,672,c)
);
},
{
attr = {
fillColor = (0,255);
};
closed = 1;
nodes = (
(616,257,l),
(632,258,l),
(671,261,o),
(759,269,o),
(798,273,cs),
(808,274,o),
(812,282,o),
(806,290,cs),
(788,315,o),
(795,306,o),
(773,328,c),
(726,300,o),
(675,301,o),
(624,294,c)
);
},
{
attr = {
fillColor = (0,255);
};
closed = 1;
nodes = (
(645,334,o),
(648,406,o),
(650,463,cs),
(652,531,o),
(653,598,o),
(654,666,c),
(575,729,l),
(561,718,l),
(587,680,o),
(594,643,o),
(595,604,cs),
(597,568,o),
(598,521,o),
(597,485,cs),
(597,265,o),
(588,68,o),
(401,-92,c),
(418,-110,l),
(547,-23,o),
(613,99,o),
(636,266,cs)
);
},
{
attr = {
fillColor = (0,255);
};
closed = 1;
nodes = (
(431,337,l),
(391,329,o),
(267,315,o),
(230,312,c),
(222,274,l),
(329,285,o),
(414,294,o),
(495,301,cs),
(506,302,o),
(512,305,o),
(505,315,cs),
(496,327,o),
(483,335,o),
(469,346,c)
);
}
);
visible = 1;
width = 1000;
}
);
unicode = 26391;
}
{
glyphname = uni6793;
layers = (
{
layerId = m01;
shapes = (
{
attr = {
fillColor = (0,255);
};
closed = 1;
nodes = (
(737,-107,l),
(742,-104,l),
(739,4,o),
(739,111,o),
(742,219,c),
(810,225,l),
(934,229,l),
(943,230,l),
(959,235,o),
(963,248,o),
(951,260,cs),
(933,278,o),
(911,294,o),
(888,307,c),
(844,281,o),
(794,275,o),
(744,263,c),
(744,270,ls),
(746,342,o),
(747,413,o),
(750,484,cs),
(758,651,l),
(763,695,l),
(770,727,l),
(764,739,o),
(689,799,o),
(674,803,c),
(667,796,l),
(670,786,l),
(684,753,o),
(690,718,o),
(691,683,cs),
(693,585,l),
(691,305,l),
(689,255,l),
(580,241,o),
(474,217,o),
(364,209,c),
(363,199,l),
(384,185,o),
(402,167,o),
(424,157,c),
(511,183,o),
(599,197,o),
(689,212,c),
(689,195,l),
(685,43,ls),
(684,13,o),
(682,-18,o),
(673,-47,c),
(671,-51,o),
(672,-55,o),
(672,-59,c),
(689,-79,o),
(709,-97,o),
(730,-112,c)
);
},
{
attr = {
fillColor = (0,255);
};
closed = 1;
nodes = (
(324,-82,l),
(322,1,l),
(322,166,l),
(323,249,l),
(324,333,l),
(350,310,o),
(373,286,o),
(393,260,cs),
(402,250,l),
(408,245,o),
(415,245,o),
(420,250,cs),
(425,255,o),
(427,260,o),
(427,266,cs),
(428,287,o),
(426,308,o),
(420,329,cs),
(418,335,o),
(414,340,o),
(407,342,cs),
(356,358,l),
(324,366,l),
(327,482,l),
(351,485,l),
(441,491,ls),
(448,491,o),
(455,493,o),
(459,500,c),
(461,508,o),
(456,514,o),
(451,518,cs),
(414,551,l),
(413,553,o),
(411,553,o),
(409,554,c),
(384,538,o),
(357,531,o),
(328,526,c),
(328,537,l),
(333,628,ls),
(334,649,o),
(334,671,o),
(342,692,cs),
(347,706,o),
(342,715,o),
(331,724,cs),
(248,792,l),
(244,793,l),
(239,789,l),
(240,785,l),
(262,742,o),
(271,696,o),
(272,649,cs),
(272,608,o),
(274,568,o),
(275,528,c),
(274,518,l),
(205,510,o),
(138,498,o),
(69,498,c),
(68,493,l),
(85,475,o),
(109,456,o),
(121,450,c),
(270,475,l),
(271,472,l),
(270,467,ls),
(253,410,o),
(229,356,o),
(200,304,cs),
(162,238,o),
(116,176,o),
(64,120,cs),
(48,101,l),
(67,83,l),
(110,118,o),
(148,157,o),
(183,199,cs),
(217,240,o),
(247,286,o),
(274,333,c),
(274,291,ls),
(273,206,o),
(272,121,o),
(268,37,cs),
(266,17,o),
(263,-3,o),
(258,-23,cs),
(255,-37,l),
(272,-57,o),
(288,-77,o),
(310,-92,c)
);
},
{
attr = {
fillColor = (0,255);
};
closed = 1;
nodes = (
(605,295,o),
(615,297,o),
(619,308,cs),
(623,322,l),
(623,366,ls),
(623,378,o),
(617,388,o),
(606,393,cs),
(594,399,ls),
(564,412,o),
(534,422,o),
(503,432,cs),
(468,442,l),
(463,430,l),
(467,426,l),
(512,393,o),
(552,354,o),
(587,311,c),
(596,302,ls)
);
},
{
attr = {
fillColor = (0,255);
};
closed = 1;
nodes = (
(614,483,o),
(623,483,o),
(629,491,cs),
(632,495,o),
(634,499,o),
(635,504,cs),
(639,546,ls),
(640,566,o),
(632,578,o),
(615,587,cs),
(581,604,o),
(546,618,o),
(510,631,cs),
(482,641,l),
(481,639,l),
(476,628,l),
(482,623,ls),
(526,587,o),
(565,545,o),
(600,498,cs),
(607,490,ls)
);
}
);
width = 1000;
}
);
unicode = 26515;
}
{
glyphname = uni6831;
layers = (
{
layerId = m01;
shapes = (
{
attr = {
fillColor = (0,255);
};
closed = 1;
nodes = (
(405,190,ls),
(442,196,o),
(478,203,o),
(516,206,cs),
(619,215,l),
(693,220,l),
(806,225,l),
(929,223,l),
(940,224,ls),
(950,226,o),
(954,234,o),
(949,244,c),
(940,254,l),
(903,286,l),
(882,300,l),
(841,275,o),
(795,271,o),
(748,264,c),
(757,468,l),
(766,469,l),
(875,473,l),
(894,475,ls),
(904,476,o),
(908,484,o),
(903,493,cs),
(899,499,l),
(884,516,o),
(867,529,o),
(848,541,c),
(821,525,o),
(791,516,o),
(760,511,c),
(760,515,l),
(768,635,l),
(773,674,l),
(783,707,l),
(772,720,l),
(732,758,l),
(690,793,l),
(680,786,l),
(693,745,ls),
(701,716,o),
(705,687,o),
(705,658,cs),
(705,510,l),
(704,503,l),
(593,492,l),
(593,497,l),
(596,596,ls),
(598,625,o),
(596,654,o),
(605,682,cs),
(607,688,o),
(605,694,o),
(601,698,cs),
(593,706,l),
(532,757,l),
(513,772,l),
(505,763,l),
(525,725,o),
(534,684,o),
(536,642,cs),
(539,592,o),
(540,541,o),
(541,491,c),
(540,486,l),
(424,480,l),
(425,476,l),
(467,437,l),
(492,441,o),
(516,446,o),
(541,448,c),
(541,246,l),
(438,239,l),
(336,235,l),
(334,228,l),
(383,186,l)
);
},
{
attr = {
fillColor = (0,255);
};
closed = 1;
nodes = (
(390,-81,ls),
(434,-54,o),
(477,-23,o),
(512,15,cs),
(543,47,o),
(571,81,o),
(601,115,c),
(597,125,l),
(581,147,o),
(563,169,o),
(543,189,c),
(534,184,l),
(534,164,ls),
(533,150,o),
(528,136,o),
(523,123,cs),
(508,87,o),
(486,54,o),
(461,24,cs),
(433,-9,o),
(402,-38,o),
(370,-66,cs),
(362,-74,l),
(368,-82,l),
(375,-89,l)
);
},
{
attr = {
fillColor = (0,255);
};
closed = 1;
nodes = (
(313,-79,l),
(311,-49,ls),
(309,87,o),
(311,223,o),
(313,359,cs),
(314,375,l),
(327,365,o),
(339,357,o),
(350,347,cs),
(409,291,ls),
(414,286,o),
(420,284,o),
(426,286,cs),
(433,289,o),
(435,295,o),
(436,301,cs),
(436,307,l),
(431,346,ls),
(428,360,o),
(420,369,o),
(406,374,cs),
(343,393,l),
(314,401,l),
(317,473,l),
(361,479,o),
(404,484,o),
(447,487,c),
(457,496,o),
(458,501,o),
(450,510,cs),
(423,537,l),
(408,549,l),
(382,526,o),
(351,521,o),
(319,514,c),
(319,521,l),
(323,622,ls),
(324,648,o),
(325,673,o),
(335,697,cs),
(337,702,o),
(336,707,o),
(333,711,c),
(326,717,l),
(263,770,l),
(237,791,l),
(229,784,l),
(231,779,ls),
(252,736,o),
(262,691,o),
(263,644,cs),
(266,515,l),
(266,505,l),
(201,496,o),
(137,485,o),
(71,483,c),
(68,477,l),
(116,437,l),
(165,451,o),
(215,457,o),
(265,466,c),
(267,454,o),
(267,449,o),
(263,439,cs),
(249,402,o),
(232,366,o),
(212,332,cs),
(168,258,o),
(115,192,o),
(54,131,cs),
(36,113,l),
(52,97,l),
(137,160,o),
(207,236,o),
(265,325,c),
(266,316,l),
(264,198,l),
(257,43,ls),
(257,25,o),
(254,8,o),
(248,-10,c),
(244,-29,l),
(261,-51,o),
(280,-71,o),
(301,-88,c)
);
},
{
attr = {
fillColor = (0,255);
};
closed = 1;
nodes = (
(860,-81,o),
(876,-78,o),
(881,-63,cs),
(883,-57,o),
(885,-50,o),
(885,-44,cs),
(883,13,ls),
(882,25,o),
(877,35,o),
(866,42,cs),
(829,70,ls),
(783,103,o),
(734,132,o),
(686,161,cs),
(678,165,l),
(666,151,l),
(728,92,o),
(782,28,o),
(831,-40,cs),
(850,-68,ls)
);
},
{
attr = {
fillColor = (0,255);
};
closed = 1;
nodes = (
(589,318,o),
(592,386,o),
(592,454,c),
(705,464,l),
(699,261,l),
(663,255,o),
(627,254,o),
(590,250,c)
);
}
);
width = 1000;
}
);
unicode = 26673;
}
{
color = 4;
glyphname = uni6839;
layers = (
{
layerId = m01;
shapes = (
{
attr = {
fillColor = (0,255);
};
closed = 1;
nodes = (
(320,356,l),
(371,321,o),
(395,295,o),
(422,261,cs),
(434,245,o),
(445,251,o),
(448,264,cs),
(452,279,o),
(452,295,o),
(448,319,cs),
(446,331,o),
(439,337,o),
(427,342,cs),
(395,356,o),
(364,367,o),
(332,375,c)
);
},
{
attr = {
fillColor = (0,255);
};
closed = 1;
nodes = (
(727,184,l),
(773,220,o),
(822,255,o),
(864,284,cs),
(877,293,o),
(885,297,o),
(903,306,c),
(889,334,o),
(870,360,o),
(847,385,c),
(836,380,l),
(834,358,o),
(829,344,o),
(817,326,cs),
(785,280,o),
(760,254,o),
(706,205,c)
);
},
{
attr = {
fillColor = (0,255);
};
closed = 1;
nodes = (
(545,491,l),
(603,499,o),
(660,506,o),
(718,510,cs),
(728,510,o),
(733,520,o),
(729,528,cs),
(719,545,o),
(712,554,o),
(697,565,c),
(682,557,o),
(667,551,o),
(652,547,cs),
(618,539,o),
(582,535,o),
(546,531,c)
);
},
{
attr = {
fillColor = (0,255);
};
closed = 1;
nodes = (
(287,513,o),
(162,500,o),
(76,501,c),
(74,491,l),
(129,453,l),
(263,477,o),
(372,487,o),
(464,491,cs),
(489,493,o),
(483,507,o),
(478,514,cs),
(468,528,o),
(455,540,o),
(439,552,c),
(419,540,o),
(399,533,o),
(377,529,cs)
);
},
{
attr = {
fillColor = (0,255);
};
closed = 1;
nodes = (
(773,433,c),
(750,416,o),
(732,410,o),
(710,407,cs),
(655,400,o),
(597,395,o),
(542,391,c),
(541,350,l),
(618,359,o),
(723,367,o),
(814,371,cs),
(827,372,o),
(831,383,o),
(825,391,cs),
(811,408,o),
(797,419,o)
);
},
{
attr = {
fillColor = (0,255);
};
closed = 1;
nodes = (
(641,293,cs),
(634,301,o),
(625,304,o),
(615,302,cs),
(604,300,o),
(592,296,o),
(577,290,c),
(577,280,l),
(596,275,o),
(609,263,o),
(620,251,cs),
(700,163,o),
(765,84,o),
(850,-23,cs),
(855,-29,o),
(862,-33,o),
(871,-31,cs),
(913,-22,o),
(954,-15,o),
(996,-12,c),
(997,5,l),
(942,21,o),
(903,41,o),
(875,63,cs),
(782,135,o),
(727,190,o)
);
},
{
attr = {
fillColor = (0,255);
};
closed = 1;
nodes = (
(798,406,l),
(801,472,o),
(807,548,o),
(815,614,cs),
(818,638,o),
(821,657,o),
(837,677,cs),
(845,686,o),
(844,688,o),
(837,694,cs),
(817,713,o),
(794,730,o),
(764,741,c),
(749,725,o),
(730,710,o),
(707,706,cs),
(652,696,o),
(596,689,o),
(541,683,c),
(547,641,l),
(617,651,o),
(686,659,o),
(756,665,c),
(755,578,o),
(749,492,o),
(745,405,c)
);
},
{
attr = {
fillColor = (0,255);
};
closed = 1;
nodes = (
(292,464,l),
(227,304,o),
(181,236,o),
(59,103,c),
(76,83,l),
(165,157,o),
(244,248,o),
(313,368,c)
);
},
{
attr = {
fillColor = (0,255);
};
closed = 1;
nodes = (
(547,159,o),
(552,481,o),
(556,643,cs),
(556,655,o),
(559,663,o),
(562,674,c),
(536,705,o),
(505,733,o),
(472,757,c),
(460,746,l),
(490,679,o),
(497,638,o),
(499,595,cs),
(505,451,o),
(501,85,o),
(492,10,cs),
(489,-15,o),
(482,-28,o),
(464,-37,c),
(462,-51,l),
(477,-68,o),
(494,-87,o),
(513,-100,c),
(589,-30,o),
(665,35,o),
(740,98,c),
(726,115,l),
(666,74,o),
(609,35,o),
(546,0,c)
);
},
{
attr = {
fillColor = (0,255);
};
closed = 1;
nodes = (
(289,201,o),
(284,52,cs),
(283,19,o),
(279,-12,o),
(267,-44,c),
(279,-62,o),
(308,-90,o),
(325,-104,c),
(338,-96,l),
(335,249,o),
(336,408,o),
(346,623,cs),
(347,652,o),
(352,683,o),
(359,709,c),
(328,740,o),
(295,769,o),
(261,797,c),
(252,789,l),
(254,785,ls),
(270,751,o),
(282,715,o),
(284,677,cs),
(292,523,o)
);
}
);
width = 1000;
},
{
associatedMasterId = m01;
layerId = "8C159E2D-375F-4776-8260-7DE111DF0ACA";
name = "24年12月12日 18:28";
shapes = (
{
attr = {
fillColor = (0,255);
};
closed = 1;
nodes = (
(338,-96,l),
(335,50,o),
(336,196,o),
(339,344,c),
(345,340,l),
(372,315,o),
(399,289,o),
(423,261,cs),
(430,253,l),
(437,249,o),
(445,251,o),
(448,258,c),
(449,267,l),
(447,319,ls),
(446,331,o),
(440,338,o),
(428,342,cs),
(361,366,l),
(339,373,l),
(341,482,l),
(420,489,l),
(467,491,ls),
(473,491,o),
(479,493,o),
(481,499,cs),
(484,505,o),
(482,510,o),
(478,514,cs),
(459,534,l),
(439,552,l),
(408,534,o),
(376,527,o),
(342,523,c),
(342,527,l),
(346,623,l),
(351,676,l),
(359,709,l),
(328,740,o),
(295,769,o),
(261,797,c),
(252,789,l),
(254,785,ls),
(270,751,o),
(282,715,o),
(284,677,cs),
(287,627,o),
(287,576,o),
(289,525,c),
(288,515,l),
(217,508,o),
(147,499,o),
(76,501,c),
(74,491,l),
(125,456,ls),
(130,453,o),
(134,453,o),
(139,454,cs),
(168,459,l),
(243,471,l),
(288,477,l),
(289,467,o),
(290,458,o),
(286,449,cs),
(276,424,o),
(267,399,o),
(254,375,cs),
(208,283,o),
(149,200,o),
(79,125,cs),
(59,103,l),
(68,93,l),
(76,83,l),
(161,154,o),
(232,235,o),
(288,329,c),
(289,321,l),
(284,52,ls),
(284,23,o),
(281,-5,o),
(272,-33,cs),
(269,-41,o),
(271,-49,o),
(276,-56,cs),
(289,-73,o),
(303,-88,o),
(320,-102,c),
(321,-104,o),
(324,-105,o),
(326,-106,c)
);
},
{
attr = {
fillColor = (0,255);
};
closed = 1;
nodes = (
(959,-17,l),
(996,-11,l),
(996,5,l),
(991,8,l),
(937,24,o),
(889,50,o),
(846,84,c),
(773,149,ls),
(759,161,o),
(746,175,o),
(733,189,c),
(739,194,l),
(860,280,ls),
(870,288,o),
(881,295,o),
(893,300,cs),
(897,302,o),
(902,303,o),
(903,311,c),
(885,336,o),
(866,362,o),
(843,385,c),
(839,382,l),
(836,378,l),
(834,356,o),
(825,338,o),
(813,320,cs),
(795,294,o),
(774,271,o),
(752,249,cs),
(712,210,l),
(638,295,ls),
(631,303,o),
(626,304,o),
(617,301,cs),
(585,290,l),
(582,288,l),
(582,280,l),
(598,273,o),
(609,262,o),
(620,251,cs),
(648,222,l),
(733,120,ls),
(770,76,o),
(806,30,o),
(842,-15,c),
(850,-23,ls),
(856,-28,o),
(862,-31,o),
(871,-30,cs)
);
},
{
attr = {
fillColor = (0,255);
};
closed = 1;
nodes = (
(516,-98,o),
(518,-98,o),
(519,-96,c),
(589,-28,o),
(665,35,o),
(740,98,c),
(726,115,l),
(666,74,o),
(607,35,o),
(544,-3,c),
(551,351,l),
(559,352,l),
(720,365,ls),
(751,368,o),
(783,369,o),
(814,371,cs),
(821,372,o),
(826,374,o),
(830,381,c),
(825,397,o),
(809,404,o),
(798,416,c),
(798,419,l),
(805,514,l),
(814,603,ls),
(817,630,o),
(819,657,o),
(839,678,c),
(840,680,ls),
(843,687,o),
(843,689,o),
(837,694,cs),
(816,709,l),
(765,743,l),
(763,742,l),
(761,740,ls),
(746,724,o),
(730,710,o),
(707,706,cs),
(673,700,l),
(593,688,l),
(551,684,l),
(527,711,o),
(500,734,o),
(472,757,c),
(462,748,l),
(474,721,ls),
(492,681,o),
(498,638,o),
(499,595,cs),
(501,550,o),
(502,504,o),
(502,459,cs),
(502,315,o),
(500,171,o),
(493,27,cs),
(493,14,o),
(491,2,o),
(490,-10,cs),
(489,-20,o),
(483,-27,o),
(475,-32,cs),
(468,-37,ls),
(463,-42,o),
(463,-45,o),
(466,-51,c),
(471,-57,l),
(504,-92,l),
(513,-100,l)
);
},
{
attr = {
fillColor = (0,255);
};
closed = 1;
nodes = (
(554,494,l),
(579,498,l),
(708,510,l),
(718,512,ls),
(725,513,o),
(730,516,o),
(732,524,c),
(726,541,o),
(711,552,o),
(697,565,c),
(652,542,o),
(604,538,o),
(555,531,c),
(554,569,o),
(555,606,o),
(557,643,c),
(756,666,l),
(755,583,o),
(750,501,o),
(746,418,c),
(733,411,o),
(720,408,o),
(707,407,cs),
(552,390,l)
);
}
);
width = 1000;
}
);
unicode = 26681;
}
{
glyphname = uni6ACC;
layers = (
{
layerId = m01;
shapes = (
{
attr = {
fillColor = (0,255);
};
closed = 1;
nodes = (
(286,-81,l),
(286,-46,l),
(288,291,l),
(289,341,l),
(290,364,l),
(300,355,l),
(351,300,ls),
(355,295,o),
(359,290,o),
(365,290,c),
(374,294,o),
(378,298,o),
(378,306,cs),
(378,322,o),
(377,337,o),
(375,352,cs),
(375,361,o),
(370,367,o),
(361,370,cs),
(351,375,l),
(298,393,l),
(290,396,l),
(292,471,l),
(386,479,l),
(416,481,ls),
(424,481,o),
(430,484,o),
(432,494,c),
(430,498,o),
(428,504,o),
(424,508,cs),
(395,534,l),
(387,540,l),
(359,522,o),
(327,517,o),
(294,512,c),
(294,523,l),
(298,621,ls),
(300,645,o),
(301,669,o),
(311,692,cs),
(313,698,o),
(311,704,o),
(306,709,cs),
(285,727,l),
(215,783,l),
(210,785,l),
(205,782,l),
(201,778,l),
(204,771,ls),
(226,729,o),
(236,684,o),
(237,638,cs),
(239,515,l),
(239,504,l),
(179,497,o),
(120,491,o),
(58,488,c),
(62,480,l),
(109,443,l),
(152,454,o),
(194,458,o),
(237,465,c),
(236,460,l),
(226,433,o),
(217,405,o),
(206,378,cs),
(188,336,o),
(168,296,o),
(144,258,cs),
(113,206,o),
(76,158,o),
(36,112,cs),
(28,103,l),
(42,92,l),
(47,88,l),
(87,122,o),
(123,160,o),
(155,201,cs),
(188,242,o),
(216,286,o),
(239,333,c),
(241,328,l),
(237,115,l),
(233,39,ls),
(232,19,o),
(230,0,o),
(223,-19,cs),
(219,-31,o),
(222,-40,o),
(231,-48,cs),
(262,-78,ls),
(266,-82,o),
(271,-84,o),
(275,-87,c)
);
},
{
attr = {
fillColor = (0,255);
};
closed = 1;
nodes = (
(400,210,o),
(404,214,o),
(408,219,cs),
(418,234,o),
(426,252,o),
(432,270,cs),
(455,347,l),
(589,362,o),
(724,366,o),
(861,374,c),
(854,360,l),
(830,321,l),
(825,309,l),
(833,301,l),
(847,309,ls),
(878,326,o),
(911,332,o),
(944,336,cs),
(949,337,o),
(954,337,o),
(956,342,cs),
(959,348,o),
(958,353,o),
(954,358,cs),
(937,377,ls),
(918,399,o),
(898,418,o),
(874,437,c),
(848,416,o),
(818,409,o),
(784,408,c),
(784,416,l),
(799,548,ls),
(801,569,o),
(806,589,o),
(818,606,cs),
(820,609,o),
(820,613,o),
(821,618,c),
(757,662,l),
(751,658,l),
(738,646,o),
(724,638,o),
(707,636,cs),
(651,628,l),
(610,624,l),
(643,658,l),
(654,665,ls),
(664,671,o),
(665,676,o),
(657,684,cs),
(642,698,l),
(658,699,ls),
(725,702,o),
(792,706,o),
(859,706,cs),
(877,706,ls),
(886,707,o),
(890,714,o),
(886,723,cs),
(882,731,l),
(866,747,o),
(848,762,o),
(830,772,c),
(778,754,l),
(734,743,o),
(690,739,o),
(646,735,cs),
(603,731,o),
(559,728,o),
(515,726,cs),
(490,724,o),
(466,725,o),
(440,724,cs),
(390,724,l),
(385,717,l),
(439,679,l),
(520,688,ls),
(546,691,o),
(573,694,o),
(602,695,c),
(593,667,o),
(580,643,o),
(565,620,c),
(531,620,l),
(477,663,l),
(468,656,l),
(480,631,o),
(486,605,o),
(488,578,cs),
(493,519,o),
(496,460,o),
(495,401,cs),
(494,387,l),
(478,384,o),
(464,385,o),
(450,387,c),
(425,438,l),
(414,432,l),
(416,394,ls),
(417,353,o),
(403,318,o),
(381,285,cs),
(375,275,o),
(365,267,o),
(356,257,c),
(378,209,l),
(382,203,o),
(389,202,o),
(395,207,cs)
);
},
{
attr = {
fillColor = (0,255);
};
closed = 1;
nodes = (
(355,-99,l),
(458,-76,ls),
(527,-59,o),
(592,-33,o),
(651,8,cs),
(654,10,l),
(727,-37,l),
(797,-86,ls),
(806,-93,o),
(816,-95,o),
(826,-92,cs),
(957,-65,l),
(957,-45,l),
(910,-38,o),
(863,-32,o),
(818,-18,cs),
(773,-4,o),
(729,15,o),
(688,37,c),
(690,40,l),
(718,64,o),
(742,90,o),
(767,116,cs),
(774,124,o),
(782,130,o),
(790,136,cs),
(794,139,o),
(798,141,o),
(798,147,c),
(793,155,o),
(743,190,o),
(729,194,c),
(727,192,l),
(715,178,o),
(699,168,o),
(679,165,cs),
(593,153,l),
(567,150,l),
(585,176,ls),
(590,183,o),
(590,186,o),
(585,193,cs),
(579,199,l),
(544,233,l),
(535,228,l),
(540,209,o),
(534,192,o),
(526,176,cs),
(516,154,o),
(501,134,o),
(484,116,cs),
(449,80,o),
(411,48,o),
(368,20,cs),
(337,0,l),
(345,-20,l),
(410,7,o),
(466,47,o),
(518,93,c),
(553,78,o),
(585,57,o),
(618,36,c),
(596,21,o),
(575,8,o),
(553,-3,cs),
(501,-31,o),
(445,-51,o),
(389,-66,cs),
(345,-78,l),
(348,-100,l)
);
},
{
attr = {
fillColor = (0,255);
};
closed = 1;
nodes = (
(453,171,o),
(457,173,o),
(459,176,cs),
(477,199,o),
(494,222,o),
(505,250,cs),
(517,279,o),
(508,305,o),
(500,332,c),
(490,330,l),
(482,285,o),
(465,247,o),
(429,220,c),
(431,204,o),
(435,189,o),
(440,175,cs),
(441,170,o),
(444,168,o),
(449,170,cs)
);
},
{
attr = {
fillColor = (0,255);
};
closed = 1;
nodes = (
(600,87,ls),
(588,93,o),
(577,101,o),
(567,108,cs),
(559,112,o),
(550,117,o),
(539,116,c),
(553,133,l),
(583,112,l),
(626,124,o),
(668,129,o),
(712,135,c),
(693,105,o),
(671,82,o),
(646,59,c)
);
},
{
attr = {
fillColor = (0,255);
};
closed = 1;
nodes = (
(655,257,o),
(659,262,o),
(661,267,cs),
(671,296,ls),
(675,308,o),
(672,315,o),
(663,322,cs),
(613,358,l),
(605,349,l),
(629,296,l),
(641,267,l),
(647,258,l)
);
},
{
attr = {
fillColor = (0,255);
};
closed = 1;
nodes = (
(860,203,o),
(862,210,o),
(864,216,cs),
(865,220,l),
(869,254,ls),
(870,263,o),
(867,270,o),
(860,276,cs),
(851,283,ls),
(834,297,o),
(818,307,o),
(798,317,cs),
(748,340,l),
(741,330,l),
(756,314,o),
(772,299,o),
(785,282,cs),
(804,259,o),
(820,235,o),
(837,211,cs),
(841,206,o),
(845,200,o),
(852,201,cs)
);
},
{
attr = {
fillColor = (0,255);
};
closed = 1;
nodes = (
(538,431,l),
(592,436,l),
(696,444,l),
(719,445,l),
(724,446,o),
(727,447,o),
(729,452,cs),
(732,458,o),
(730,462,o),
(727,466,cs),
(720,476,o),
(710,482,o),
(700,488,c),
(687,484,o),
(676,479,o),
(665,477,cs),
(612,470,l),
(551,464,l),
(538,464,l),
(538,506,l),
(709,520,l),
(724,524,l),
(727,532,o),
(725,538,o),
(722,542,cs),
(696,565,l),
(682,559,ls),
(665,551,o),
(647,548,o),
(629,546,cs),
(550,537,l),
(538,537,l),
(538,582,l),
(608,592,o),
(676,595,o),
(747,602,c),
(745,535,o),
(743,470,o),
(739,403,c),
(538,389,l)
);
},
{
attr = {
fillColor = (0,255);
};
closed = 1;
nodes = (
(773,191,ls),
(787,192,o),
(791,202,o),
(784,214,cs),
(775,227,ls),
(759,247,o),
(743,268,o),
(732,292,cs),
(719,317,l),
(706,312,l),
(708,291,l),
(712,251,ls),
(714,234,o),
(710,231,o),
(693,231,cs),
(610,231,o),
(562,283,o),
(536,331,c),
(527,327,l),
(550,216,o),
(644,180,o),
(739,188,cs)
);
}
);
width = 1000;
}
);
unicode = 27340;
}
{
glyphname = uni6AD1;
layers = (
{
layerId = m01;
shapes = (
{
attr = {
fillColor = (0,255);
};
closed = 1;
nodes = (
(281,-75,l),
(277,86,o),
(280,245,o),
(285,407,c),
(292,402,ls),
(321,378,o),
(349,352,o),
(374,324,cs),
(382,316,ls),
(389,310,o),
(397,311,o),
(401,321,cs),
(403,327,l),
(405,341,o),
(403,354,o),
(402,367,cs),
(400,383,o),
(392,392,o),
(377,398,cs),
(304,425,l),
(286,431,l),
(288,492,l),
(302,494,l),
(414,504,l),
(423,506,l),
(429,509,o),
(432,514,o),
(429,520,cs),
(422,530,l),
(399,554,l),
(386,563,l),
(360,543,o),
(311,534,o),
(290,535,c),
(295,640,ls),
(296,658,o),
(298,676,o),
(305,693,cs),
(309,704,o),
(308,714,o),
(297,722,cs),
(232,773,l),
(210,790,l),
(203,783,l),
(225,745,o),
(236,705,o),
(238,662,cs),
(242,532,l),
(241,525,l),
(182,519,o),
(123,509,o),
(62,507,c),
(59,499,l),
(103,464,l),
(150,473,o),
(196,481,o),
(243,487,c),
(234,454,ls),
(211,383,o),
(176,318,o),
(132,257,cs),
(104,217,o),
(72,179,o),
(38,144,cs),
(22,127,l),
(38,109,l),
(78,142,o),
(115,177,o),
(149,216,cs),
(183,254,o),
(211,296,o),
(238,339,c),
(240,335,l),
(237,235,l),
(230,61,ls),
(229,33,o),
(228,5,o),
(218,-21,cs),
(215,-28,o),
(216,-34,o),
(221,-40,cs),
(234,-53,o),
(246,-67,o),
(261,-78,c),
(270,-83,l)
);
},
{
attr = {
fillColor = (0,255);
};
closed = 1;
nodes = (
(393,-69,l),
(393,-25,l),
(540,-13,l),
(547,-25,l),
(563,-62,ls),
(565,-66,o),
(566,-70,o),
(572,-72,c),
(584,-61,l),
(595,-47,o),
(599,-31,o),
(599,-13,cs),
(606,142,ls),
(607,168,o),
(609,195,o),
(612,221,cs),
(613,235,o),
(617,248,o),
(626,260,c),
(630,270,l),
(610,288,o),
(589,302,o),
(568,318,c),
(551,300,o),
(545,296,o),
(528,292,cs),
(502,287,l),
(429,278,l),
(386,274,l),
(339,306,l),
(333,301,l),
(344,270,o),
(348,240,o),
(349,209,cs),
(353,155,o),
(353,101,o),
(352,47,cs),
(351,23,o),
(350,-1,o),
(343,-24,cs),
(341,-30,o),
(342,-35,o),
(346,-40,cs),
(375,-72,l),
(382,-78,l)
);
},
{
attr = {
fillColor = (0,255);
};
closed = 1;
nodes = (
(392,119,l),
(406,107,l),
(453,113,l),
(453,15,l),
(392,10,l)
);
},
{
attr = {
fillColor = (0,255);
};
closed = 1;
nodes = (
(535,30,l),
(520,23,o),
(506,19,o),
(490,18,c),
(491,117,l),
(563,124,l),
(562,84,o),
(561,45,o),
(558,7,c)
);
},
{
attr = {
fillColor = (0,255);
};
closed = 1;
nodes = (
(393,239,l),
(451,245,l),
(454,212,o),
(454,180,o),
(453,146,c),
(393,140,l)
);
},
{
attr = {
fillColor = (0,255);
};
closed = 1;
nodes = (
(539,161,l),
(493,150,l),
(492,178,o),
(494,204,o),
(497,231,c),
(477,246,l),
(477,248,l),
(564,257,l),
(564,140,l)
);
},
{
attr = {
fillColor = (0,255);
};
closed = 1;
nodes = (
(691,-70,l),
(691,-24,l),
(845,-13,l),
(856,-33,o),
(862,-53,o),
(873,-73,c),
(877,-71,o),
(880,-70,o),
(883,-67,cs),
(895,-55,o),
(903,-40,o),
(905,-23,cs),
(912,117,l),
(917,197,ls),
(917,209,o),
(919,221,o),
(920,232,cs),
(922,247,o),
(927,261,o),
(937,272,c),
(943,281,l),
(921,300,o),
(898,316,o),
(875,332,c),
(871,328,ls),
(860,316,o),
(848,308,o),
(832,306,cs),
(805,301,l),
(726,292,l),
(690,289,l),
(640,330,l),
(633,325,l),
(639,296,ls),
(645,263,o),
(648,231,o),
(648,198,cs),
(650,71,ls),
(650,39,o),
(651,6,o),
(643,-25,cs),
(641,-31,o),
(643,-36,o),
(646,-41,c),
(673,-72,l),
(680,-78,l)
);
},
{
attr = {
fillColor = (0,255);
};
closed = 1;
nodes = (
(691,131,l),
(710,115,l),
(751,120,l),
(751,14,l),
(691,11,l)
);
},
{
attr = {
fillColor = (0,255);
};
closed = 1;
nodes = (
(837,30,l),
(822,23,o),
(807,20,o),
(791,18,c),
(789,27,o),
(789,85,o),
(792,125,c),
(870,132,l),
(867,90,o),
(867,50,o),
(863,9,c)
);
},
{
attr = {
fillColor = (0,255);
};
closed = 1;
nodes = (
(691,253,l),
(749,259,l),
(753,224,o),
(752,189,o),
(752,153,c),
(691,148,l)
);
},
{
attr = {
fillColor = (0,255);
};
closed = 1;
nodes = (
(838,172,l),
(824,163,o),
(809,161,o),
(794,158,c),
(793,172,o),
(794,186,o),
(795,199,cs),
(796,241,l),
(773,260,l),
(871,269,l),
(873,261,o),
(872,154,o),
(869,145,c)
);
},
{
attr = {
fillColor = (0,255);
};
closed = 1;
nodes = (
(502,337,o),
(503,342,o),
(503,348,cs),
(504,379,l),
(505,387,l),
(728,403,l),
(762,343,l),
(773,340,o),
(778,346,o),
(783,353,cs),
(793,365,o),
(798,380,o),
(799,396,cs),
(801,443,l),
(809,564,ls),
(811,590,o),
(813,616,o),
(817,642,cs),
(819,661,o),
(825,679,o),
(838,694,c),
(840,695,o),
(840,697,o),
(841,699,c),
(836,708,o),
(781,749,o),
(767,755,c),
(752,737,o),
(733,725,o),
(710,721,cs),
(630,711,l),
(554,704,l),
(503,700,l),
(437,755,l),
(429,748,l),
(431,742,ls),
(444,705,o),
(453,668,o),
(455,629,cs),
(458,568,o),
(460,507,o),
(457,445,cs),
(456,427,o),
(456,408,o),
(449,391,c),
(447,381,l),
(460,365,o),
(474,350,o),
(488,336,cs),
(490,334,o),
(493,334,o),
(495,334,c)
);
},
{
attr = {
fillColor = (0,255);
};
closed = 1;
nodes = (
(503,543,l),
(529,518,l),
(596,527,l),
(596,430,l),
(503,423,l)
);
},
{
attr = {
fillColor = (0,255);
};
closed = 1;
nodes = (
(505,662,l),
(592,670,l),
(598,634,o),
(597,598,o),
(597,562,c),
(565,559,o),
(535,555,o),
(505,554,c)
);
},
{
attr = {
fillColor = (0,255);
};
closed = 1;
nodes = (
(718,450,l),
(693,438,o),
(667,436,o),
(640,433,c),
(642,531,l),
(724,538,ls),
(732,539,o),
(739,541,o),
(742,551,c),
(736,566,o),
(722,574,o),
(711,584,c),
(677,573,l),
(643,567,l),
(644,597,o),
(643,625,o),
(649,653,c),
(623,670,l),
(623,672,l),
(762,684,l),
(762,673,l),
(759,544,l),
(754,438,l),
(752,420,l)
);
}
);
width = 1000;
}
);
unicode = 27345;
}
{
color = 0;
glyphname = uni6B65;
layers = (
{
layerId = m01;
shapes = (
{
attr = {
fillColor = (0,255);
};
closed = 1;
nodes = (
(386,-63,o),
(587,7,o),
(758,231,cs),
(772,250,o),
(791,270,o),
(812,291,c),
(798,321,o),
(771,363,o),
(747,391,c),
(729,385,l),
(735,338,o),
(729,310,o),
(707,272,cs),
(579,48,o),
(350,-22,o),
(85,-80,c),
(93,-112,l)
);
},
{
attr = {
fillColor = (0,255);
};
closed = 1;
nodes = (
(243,77,o),
(252,85,o),
(264,100,cs),
(284,126,o),
(330,210,o),
(353,269,cs),
(359,284,o),
(360,294,o),
(356,308,cs),
(354,316,o),
(342,337,o),
(328,360,c),
(312,357,l),
(319,281,o),
(258,179,o),
(201,144,c),
(210,123,o),
(221,105,o),
(232,91,cs)
);
},
{
attr = {
fillColor = (0,255);
};
closed = 1;
nodes = (
(550,106,l),
(550,187,o),
(551,251,o),
(554,318,cs),
(555,334,o),
(556,349,o),
(560,364,c),
(543,380,o),
(525,396,o),
(507,407,c),
(491,406,l),
(494,391,o),
(497,365,o),
(498,345,cs),
(501,295,o),
(500,268,o),
(498,213,cs),
(497,197,o),
(494,169,o),
(488,147,c),
(502,128,o),
(517,116,o),
(538,100,c)
);
},
{
attr = {
fillColor = (0,255);
};
closed = 1;
nodes = (
(367,412,l),
(366,511,o),
(367,543,o),
(368,576,cs),
(369,590,o),
(372,612,o),
(377,632,c),
(352,657,o),
(325,679,o),
(293,700,c),
(279,688,l),
(297,659,o),
(306,624,o),
(309,579,cs),
(313,521,o),
(314,496,o),
(314,412,c)
);
},
{
attr = {
fillColor = (0,255);
};
closed = 1;
nodes = (
(284,396,o),
(781,417,o),
(929,407,cs),
(951,405,o),
(957,417,o),
(945,432,cs),
(925,456,o),
(903,471,o),
(876,489,c),
(817,463,o),
(771,458,o),
(707,453,cs),
(560,441,o),
(243,424,o),
(93,428,c),
(87,415,l),
(107,399,o),
(130,384,o),
(153,371,c)
);
},
{
attr = {
fillColor = (0,255);
};
closed = 1;
nodes = (
(563,427,l),
(563,520,o),
(565,614,o),
(568,676,cs),
(569,694,o),
(573,722,o),
(579,742,c),
(551,769,o),
(518,796,o),
(488,817,c),
(473,804,l),
(496,772,o),
(505,711,o),
(507,665,cs),
(510,594,o),
(511,509,o),
(509,424,c)
);
},
{
attr = {
fillColor = (0,255);
};
closed = 1;
nodes = (
(655,583,o),
(722,587,o),
(804,589,cs),
(824,590,o),
(832,604,o),
(817,619,cs),
(799,635,o),
(780,650,o),
(760,662,c),
(702,629,o),
(647,625,o),
(560,616,c),
(562,574,l)
);
}
);
width = 1000;
}
);
unicode = 27493;
}
{
glyphname = uni6F92;
layers = (
{
layerId = m01;
shapes = (
{
attr = {
fillColor = (0,255);
};
closed = 1;
nodes = (
(844,92,o),
(849,96,o),
(852,101,cs),
(862,114,o),
(869,129,o),
(869,147,cs),
(875,328,ls),
(876,368,o),
(879,407,o),
(881,447,cs),
(882,464,o),
(885,481,o),
(897,494,c),
(903,505,l),
(894,514,l),
(829,553,l),
(819,546,o),
(811,539,o),
(802,535,cs),
(792,530,o),
(781,528,o),
(769,526,cs),
(704,516,l),
(674,514,l),
(752,601,l),
(745,617,o),
(730,627,o),
(721,642,c),
(726,643,l),
(822,649,l),
(925,652,l),
(932,653,o),
(938,655,o),
(943,660,c),
(946,668,o),
(941,674,o),
(936,679,cs),
(904,709,l),
(885,722,l),
(846,705,ls),
(821,696,o),
(794,693,o),
(767,690,cs),
(698,683,l),
(598,676,l),
(517,676,l),
(510,675,l),
(510,663,l),
(550,627,l),
(596,633,o),
(642,639,o),
(690,641,c),
(684,618,ls),
(672,582,o),
(653,548,o),
(634,515,cs),
(631,509,o),
(625,507,o),
(619,508,c),
(559,544,l),
(554,540,l),
(556,532,l),
(565,497,ls),
(570,468,o),
(572,438,o),
(572,409,cs),
(570,202,ls),
(570,187,o),
(567,172,o),
(563,158,cs),
(561,153,o),
(561,147,o),
(560,142,c),
(575,125,o),
(589,108,o),
(608,95,c),
(618,103,l),
(618,129,l),
(804,140,l),
(826,105,ls),
(829,100,o),
(832,95,o),
(838,92,c)
);
},
{
attr = {
fillColor = (0,255);
};
closed = 1;
nodes = (
(184,-59,o),
(187,-53,o),
(188,-45,cs),
(191,-9,ls),
(195,19,o),
(203,47,o),
(212,74,cs),
(237,149,o),
(270,221,o),
(300,294,cs),
(311,320,l),
(304,324,o),
(298,330,o),
(289,331,c),
(280,316,l),
(221,202,l),
(148,75,ls),
(143,66,o),
(136,57,o),
(129,49,cs),
(122,40,o),
(112,36,o),
(100,36,cs),
(90,35,l),
(89,25,l),
(156,-58,l),
(162,-64,o),
(169,-65,o),
(177,-62,cs)
);
},
{
attr = {
fillColor = (0,255);
};
closed = 1;
nodes = (
(223,348,o),
(228,355,o),
(228,364,cs),
(231,418,ls),
(232,430,o),
(226,438,o),
(215,442,cs),
(199,448,o),
(183,455,o),
(166,460,cs),
(136,470,o),
(106,478,o),
(75,487,c),
(70,474,l),
(78,468,ls),
(113,440,o),
(145,409,o),
(174,374,cs),
(195,349,ls),
(201,341,o),
(207,341,o),
(215,345,cs)
);
},
{
attr = {
fillColor = (0,255);
};
closed = 1;
nodes = (
(464,-94,ls),
(541,-66,o),
(607,-22,o),
(668,32,c),
(689,47,l),
(694,52,l),
(689,60,l),
(644,109,ls),
(641,112,o),
(638,115,o),
(632,113,c),
(629,104,ls),
(625,91,o),
(620,78,o),
(612,67,cs),
(601,52,o),
(590,37,o),
(577,23,cs),
(543,-14,o),
(504,-43,o),
(461,-68,cs),
(439,-82,l),
(448,-100,l)
);
},
{
attr = {
fillColor = (0,255);
};
closed = 1;
nodes = (
(427,193,l),
(553,280,l),
(543,297,l),
(432,243,l),
(432,255,l),
(433,301,ls),
(435,351,o),
(437,400,o),
(444,450,c),
(445,453,o),
(444,457,o),
(443,461,c),
(400,484,l),
(405,486,l),
(466,494,l),
(526,500,ls),
(532,501,o),
(536,503,o),
(539,507,c),
(541,514,o),
(538,520,o),
(533,524,cs),
(493,558,l),
(491,558,l),
(468,543,o),
(441,535,o),
(414,530,cs),
(312,513,l),
(254,506,l),
(252,505,l),
(252,499,l),
(301,465,l),
(377,482,l),
(385,439,o),
(385,396,o),
(385,352,cs),
(380,221,l),
(276,182,l),
(276,175,l),
(316,139,ls),
(331,125,o),
(332,125,o),
(348,137,cs)
);
},
{
attr = {
fillColor = (0,255);
};
closed = 1;
nodes = (
(906,-96,o),
(920,-93,o),
(926,-81,cs),
(928,-77,o),
(929,-72,o),
(929,-68,cs),
(931,-47,o),
(930,-26,o),
(925,-5,cs),
(924,1,o),
(920,6,o),
(915,10,cs),
(896,22,ls),
(850,50,o),
(802,74,o),
(754,97,c),
(748,98,l),
(741,85,l),
(743,82,l),
(798,35,o),
(847,-20,o),
(889,-79,c),
(896,-87,ls)
);
},
{
attr = {
fillColor = (0,255);
};
closed = 1;
nodes = (
(264,550,o),
(278,550,o),
(286,562,cs),
(289,567,o),
(292,574,o),
(293,580,c),
(295,628,ls),
(296,638,o),
(291,645,o),
(282,650,cs),
(265,657,ls),
(227,672,o),
(186,681,o),
(145,692,c),
(141,681,l),
(185,645,o),
(224,606,o),
(257,561,cs)
);
},
{
attr = {
fillColor = (0,255);
};
closed = 1;
nodes = (
(619,175,o),
(618,231,o),
(621,246,c),
(656,250,l),
(769,260,l),
(788,260,l),
(795,261,o),
(801,262,o),
(804,269,c),
(802,280,o),
(788,296,o),
(769,309,c),
(722,288,o),
(671,288,o),
(621,283,c),
(621,355,l),
(643,357,ls),
(667,360,o),
(691,362,o),
(716,363,cs),
(787,368,ls),
(793,368,o),
(798,370,o),
(802,374,c),
(805,380,o),
(802,385,o),
(798,389,cs),
(768,417,l),
(722,398,o),
(672,397,o),
(623,392,c),
(623,469,l),
(823,486,l),
(823,448,l),
(820,292,l),
(817,184,l),
(816,178,o),
(816,172,o),
(811,167,c),
(780,192,l),
(728,174,o),
(674,172,o),
(621,167,c)
);
}
);
width = 1000;
}
);
unicode = 28562;
}
{
glyphname = uni7168;
layers = (
{
layerId = m01;
shapes = (
{
attr = {
fillColor = (0,255);
};
closed = 1;
nodes = (
(143,-2,o),
(213,77,o),
(249,183,c),
(258,176,l),
(276,156,o),
(297,137,o),
(314,117,cs),
(333,95,o),
(351,71,o),
(369,47,cs),
(373,42,o),
(377,37,o),
(385,38,cs),
(392,40,o),
(396,46,o),
(398,53,cs),
(399,56,ls),
(403,73,o),
(401,89,o),
(399,106,cs),
(398,122,o),
(390,132,o),
(376,140,cs),
(340,163,o),
(304,183,o),
(266,203,cs),
(257,208,l),
(274,263,o),
(282,318,o),
(288,373,c),
(322,399,o),
(353,426,o),
(384,454,cs),
(394,464,o),
(405,474,o),
(418,480,c),
(426,489,l),
(410,515,o),
(391,537,o),
(373,561,c),
(362,555,l),
(365,530,o),
(357,508,o),
(345,489,cs),
(308,437,l),
(294,419,l),
(294,462,l),
(303,614,ls),
(304,634,o),
(306,655,o),
(313,674,cs),
(316,684,o),
(314,691,o),
(307,697,cs),
(214,780,l),
(204,770,l),
(212,756,ls),
(221,736,o),
(229,716,o),
(234,695,cs),
(241,664,o),
(243,633,o),
(245,602,cs),
(247,540,o),
(246,478,o),
(242,415,cs),
(239,356,o),
(232,298,o),
(218,240,cs),
(203,183,o),
(181,129,o),
(148,80,cs),
(122,42,o),
(92,8,o),
(61,-24,cs),
(39,-49,l),
(51,-64,l)
);
},
{
attr = {
fillColor = (0,255);
};
closed = 1;
nodes = (
(118,258,o),
(126,258,o),
(132,266,c),
(138,276,l),
(161,342,l),
(190,454,ls),
(197,479,o),
(197,487,o),
(183,513,cs),
(176,527,o),
(172,535,o),
(154,567,c),
(142,562,l),
(146,530,o),
(145,516,o),
(145,488,cs),
(143,456,o),
(136,426,o),
(125,396,cs),
(116,369,o),
(106,341,o),
(81,321,c),
(93,297,l),
(112,266,ls)
);
},
{
attr = {
fillColor = (0,255);
};
closed = 1;
nodes = (
(534,-50,o),
(603,6,o),
(671,65,c),
(659,79,l),
(511,-13,l),
(511,-1,l),
(515,116,ls),
(518,159,o),
(516,203,o),
(526,245,c),
(524,250,l),
(488,279,l),
(500,281,l),
(551,285,l),
(666,292,l),
(785,297,l),
(897,297,ls),
(918,297,o),
(922,303,o),
(914,314,cs),
(901,330,o),
(877,349,o),
(854,365,c),
(834,356,ls),
(810,346,o),
(786,343,o),
(761,340,cs),
(652,330,l),
(513,321,l),
(375,317,l),
(367,317,l),
(367,307,l),
(382,297,o),
(396,287,o),
(409,276,c),
(414,273,o),
(420,272,o),
(426,273,cs),
(458,278,l),
(460,271,ls),
(465,243,o),
(466,216,o),
(466,188,cs),
(466,126,o),
(465,65,o),
(461,4,cs),
(459,-20,o),
(452,-38,o),
(429,-48,cs),
(424,-50,o),
(421,-54,o),
(417,-57,c),
(425,-73,o),
(460,-108,o),
(471,-111,c)
);
},
{
attr = {
fillColor = (0,255);
};
closed = 1;
nodes = (
(930,-58,l),
(970,-53,l),
(970,-44,l),
(969,-36,l),
(867,-12,o),
(785,45,o),
(710,116,c),
(826,220,l),
(823,233,o),
(779,281,o),
(766,287,c),
(761,286,o),
(759,282,o),
(760,277,c),
(760,263,o),
(756,251,o),
(751,239,cs),
(735,206,o),
(715,176,o),
(693,146,cs),
(687,139,l),
(673,152,ls),
(651,176,o),
(629,198,o),
(611,226,cs),
(606,234,o),
(599,236,o),
(589,234,cs),
(552,226,l),
(552,216,l),
(572,205,o),
(587,189,o),
(602,173,cs),
(667,99,l),
(770,-21,l),
(798,-56,ls),
(806,-65,o),
(814,-70,o),
(828,-68,cs)
);
},
{
attr = {
fillColor = (0,255);
};
closed = 1;
nodes = (
(506,373,l),
(505,390,l),
(505,407,l),
(742,423,l),
(749,414,l),
(767,384,ls),
(770,379,o),
(773,374,o),
(780,373,c),
(783,375,o),
(786,376,o),
(788,379,cs),
(800,394,o),
(810,410,o),
(812,431,cs),
(816,490,l),
(825,574,l),
(836,650,ls),
(838,667,o),
(844,682,o),
(857,695,cs),
(860,698,o),
(861,703,o),
(863,706,c),
(857,714,o),
(821,739,o),
(786,760,c),
(761,737,ls),
(754,731,o),
(746,728,o),
(737,727,cs),
(668,719,l),
(498,704,l),
(432,756,l),
(428,751,l),
(424,747,l),
(427,739,ls),
(439,710,o),
(445,679,o),
(448,647,cs),
(453,587,o),
(456,528,o),
(456,468,cs),
(456,453,o),
(454,437,o),
(450,422,cs),
(448,410,l),
(464,394,o),
(479,378,o),
(497,366,c)
);
},
{
attr = {
fillColor = (0,255);
};
closed = 1;
nodes = (
(501,552,l),
(523,538,ls),
(528,535,o),
(532,535,o),
(537,535,c),
(596,543,l),
(608,543,l),
(608,450,l),
(504,442,l)
);
},
{
attr = {
fillColor = (0,255);
};
closed = 1;
nodes = (
(501,666,l),
(604,676,l),
(610,643,o),
(608,611,o),
(609,578,c),
(501,568,l)
);
},
{
attr = {
fillColor = (0,255);
};
closed = 1;
nodes = (
(732,471,l),
(707,461,o),
(680,458,o),
(653,455,c),
(654,547,l),
(673,549,l),
(744,554,l),
(750,554,l),
(763,557,o),
(767,567,o),
(758,576,cs),
(729,603,l),
(706,590,o),
(681,588,o),
(655,583,c),
(657,611,o),
(656,639,o),
(660,667,c),
(642,677,l),
(688,683,o),
(733,684,o),
(779,688,c),
(778,606,o),
(770,526,o),
(763,446,c)
);
}
);
width = 1000;
}
);
unicode = 29032;
}
{
color = 0;
glyphname = uni7231;
layers = (
{
layerId = m01;
shapes = (
{
attr = {
fillColor = (0,255);
};
closed = 1;
nodes = (
(249,29,o),
(375,131,o),
(455,336,cs),
(466,363,o),
(475,384,o),
(483,403,c),
(472,421,o),
(449,450,o),
(433,469,c),
(416,464,l),
(424,428,o),
(413,381,o),
(399,340,cs),
(337,155,o),
(210,58,o),
(43,-36,c),
(56,-58,l)
);
},
{
attr = {
fillColor = (0,255);
};
closed = 1;
nodes = (
(432,-49,o),
(531,0,o),
(682,176,cs),
(693,189,o),
(705,200,o),
(717,207,cs),
(728,214,o),
(732,219,o),
(721,229,cs),
(703,245,o),
(678,263,o),
(653,278,c),
(635,262,o),
(611,251,o),
(586,247,cs),
(501,234,o),
(429,227,o),
(390,227,c),
(381,211,l),
(394,200,o),
(406,190,o),
(419,183,c),
(481,194,o),
(570,206,o),
(629,209,c),
(534,54,o),
(405,-10,o),
(177,-62,c),
(184,-89,l)
);
},
{
attr = {
fillColor = (0,255);
};
closed = 1;
nodes = (
(174,293,o),
(202,416,o),
(211,461,cs),
(215,481,o),
(200,519,o),
(183,545,c),
(170,542,l),
(179,424,o),
(116,350,o),
(87,328,c),
(94,308,o),
(104,286,o),
(115,273,cs),
(121,265,o),
(129,263,o),
(137,268,cs)
);
},
{
attr = {
fillColor = (0,255);
};
closed = 1;
nodes = (
(820,-81,o),
(877,-75,o),
(934,-70,c),
(934,-41,l),
(850,-33,o),
(783,-25,o),
(707,5,cs),
(614,41,o),
(539,83,o),
(434,146,cs),
(425,151,o),
(416,155,o),
(406,154,cs),
(391,152,o),
(381,150,o),
(366,146,c),
(368,131,l),
(391,127,o),
(410,119,o),
(429,109,cs),
(504,68,o),
(615,-5,o),
(711,-77,cs),
(731,-92,o),
(739,-95,o),
(763,-91,cs)
);
},
{
attr = {
fillColor = (0,255);
};
closed = 1;
nodes = (
(376,312,o),
(624,329,o),
(771,327,cs),
(787,327,o),
(790,339,o),
(779,350,cs),
(761,369,o),
(744,383,o),
(721,398,c),
(685,381,o),
(652,372,o),
(605,366,cs),
(517,355,o),
(307,335,o),
(193,337,c),
(188,324,l),
(202,311,o),
(219,299,o),
(239,290,c)
);
},
{
attr = {
fillColor = (0,255);
};
closed = 1;
nodes = (
(368,517,o),
(372,529,o),
(375,540,cs),
(378,553,o),
(377,565,o),
(369,574,cs),
(348,597,o),
(321,624,o),
(296,648,c),
(279,638,l),
(297,600,o),
(313,557,o),
(328,509,cs),
(334,490,o),
(351,489,o),
(361,506,cs)
);
},
{
attr = {
fillColor = (0,255);
};
closed = 1;
nodes = (
(816,404,o),
(857,418,o),
(881,424,cs),
(891,427,o),
(904,429,o),
(918,431,cs),
(937,434,o),
(938,444,o),
(925,460,cs),
(896,495,o),
(858,526,o),
(823,548,c),
(795,530,o),
(773,521,o),
(739,515,cs),
(625,493,o),
(301,473,o),
(197,474,c),
(199,460,l),
(211,448,o),
(224,440,o),
(240,434,c),
(386,450,o),
(650,466,o),
(807,473,c),
(791,443,o),
(775,416,o),
(758,392,c),
(772,380,l)
);
},
{
attr = {
fillColor = (0,255);
};
closed = 1;
nodes = (
(530,531,o),
(537,543,o),
(541,555,cs),
(546,567,o),
(544,579,o),
(536,589,cs),
(517,613,o),
(487,648,o),
(464,670,c),
(444,668,l),
(467,613,o),
(478,578,o),
(491,523,cs),
(495,504,o),
(511,504,o),
(522,519,cs)
);
},
{
attr = {
fillColor = (0,255);
};
closed = 1;
nodes = (
(377,641,o),
(587,676,o),
(674,697,cs),
(699,702,o),
(729,710,o),
(760,718,c),
(749,738,o),
(722,768,o),
(690,801,c),
(676,797,l),
(675,782,o),
(665,767,o),
(644,757,cs),
(549,707,o),
(347,674,o),
(198,660,c),
(200,627,l)
);
},
{
attr = {
fillColor = (0,255);
};
closed = 1;
nodes = (
(610,476,l),
(635,497,o),
(683,549,o),
(702,573,cs),
(721,596,o),
(733,608,o),
(744,615,c),
(726,643,o),
(706,668,o),
(686,690,c),
(668,685,l),
(671,665,o),
(670,642,o),
(658,614,cs),
(638,567,o),
(621,538,o),
(576,470,c)
);
}
);
width = 1000;
}
);
unicode = 29233;
}
{
color = 6;
glyphname = uni7232;
layers = (
{
layerId = m01;
shapes = (
{
attr = {
fillColor = (0,255);
};
closed = 1;
nodes = (
(759,-119,ls),
(782,-99,o),
(799,-74,o),
(812,-47,cs),
(867,72,l),
(913,174,ls),
(919,187,o),
(928,197,o),
(940,204,c),
(952,215,l),
(929,244,o),
(901,266,o),
(873,288,c),
(846,267,ls),
(838,262,o),
(829,259,o),
(819,258,cs),
(768,252,l),
(757,251,l),
(765,269,l),
(777,304,ls),
(782,318,o),
(790,330,o),
(802,339,c),
(816,353,l),
(798,375,o),
(776,389,o),
(755,405,c),
(743,397,o),
(734,387,o),
(719,383,c),
(730,413,l),
(743,442,ls),
(748,454,o),
(755,463,o),
(765,472,cs),
(777,484,l),
(773,495,o),
(728,531,o),
(710,538,c),
(697,528,ls),
(684,517,o),
(670,510,o),
(653,508,cs),
(535,494,l),
(418,483,l),
(380,480,l),
(354,502,l),
(355,502,l),
(352,504,l),
(353,504,l),
(318,529,l),
(308,522,l),
(310,515,ls),
(318,496,o),
(320,476,o),
(320,456,cs),
(319,398,o),
(311,352,o),
(295,296,cs),
(277,234,o),
(249,177,o),
(211,124,cs),
(168,67,o),
(118,17,o),
(60,-27,cs),
(46,-38,l),
(53,-47,l),
(59,-55,l),
(171,7,o),
(259,91,o),
(314,207,c),
(345,186,ls),
(351,181,o),
(358,179,o),
(365,181,c),
(434,189,l),
(562,200,l),
(749,212,l),
(805,215,l),
(851,217,l),
(847,201,ls),
(834,157,o),
(818,115,o),
(801,72,cs),
(788,40,o),
(774,8,o),
(756,-23,cs),
(746,-41,o),
(742,-42,o),
(723,-33,cs),
(626,11,l),
(619,2,l),
(646,-21,o),
(668,-47,o),
(690,-73,cs),
(724,-117,l),
(733,-131,o),
(741,-133,o),
(754,-123,cs)
);
},
{
attr = {
fillColor = (0,255);
};
closed = 1;
nodes = (
(288,-45,l),
(296,-35,o),
(304,-26,o),
(310,-16,cs),
(326,9,o),
(339,35,o),
(348,63,cs),
(353,76,o),
(357,89,o),
(355,103,cs),
(347,155,l),
(332,154,l),
(331,136,o),
(328,119,o),
(319,104,cs),
(293,58,ls),
(281,39,o),
(268,21,o),
(250,9,cs),
(241,2,l),
(244,-15,o),
(249,-32,o),
(257,-48,cs),
(261,-56,o),
(269,-58,o),
(277,-53,cs)
);
},
{
attr = {
fillColor = (0,255);
};
closed = 1;
nodes = (
(451,-4,o),
(454,-1,o),
(456,3,cs),
(475,36,ls),
(482,49,o),
(481,62,o),
(473,75,cs),
(422,160,l),
(418,165,l),
(407,157,l),
(412,127,l),
(428,6,l),
(429,-1,l),
(433,-9,o),
(440,-11,o),
(447,-6,cs)
);
},
{
attr = {
fillColor = (0,255);
};
closed = 1;
nodes = (
(579,22,l),
(596,56,ls),
(602,70,o),
(601,84,o),
(590,97,cs),
(532,171,l),
(525,178,l),
(516,170,l),
(516,165,l),
(554,27,l),
(557,18,l),
(561,11,o),
(568,10,o),
(574,16,cs)
);
},
{
attr = {
fillColor = (0,255);
};
closed = 1;
nodes = (
(710,21,o),
(713,26,o),
(717,32,cs),
(725,44,o),
(729,58,o),
(732,72,cs),
(735,86,o),
(731,96,o),
(722,106,cs),
(668,159,l),
(638,185,l),
(626,176,l),
(647,133,l),
(692,31,ls),
(694,26,o),
(696,21,o),
(703,20,c)
);
},
{
attr = {
fillColor = (0,255);
};
closed = 1;
nodes = (
(338,260,o),
(349,295,o),
(357,334,c),
(390,314,l),
(502,332,o),
(613,335,o),
(726,345,c),
(703,249,l),
(554,237,l),
(359,224,l),
(322,224,l)
);
},
{
attr = {
fillColor = (0,255);
};
closed = 1;
nodes = (
(379,443,l),
(683,470,l),
(683,457,o),
(672,399,o),
(666,378,c),
(498,364,l),
(375,356,l),
(364,356,l)
);
},
{
attr = {
fillColor = (0,255);
};
closed = 1;
nodes = (
(333,636,l),
(426,647,l),
(527,660,l),
(626,674,l),
(741,693,ls),
(765,697,o),
(789,700,o),
(814,694,cs),
(820,693,o),
(825,695,o),
(829,700,c),
(822,716,o),
(768,774,o),
(749,785,c),
(745,780,o),
(741,774,o),
(736,770,cs),
(720,755,o),
(700,748,o),
(680,741,cs),
(568,701,o),
(305,669,o),
(179,656,c),
(190,624,l)
);
},
{
attr = {
fillColor = (0,255);
};
closed = 1;
nodes = (
(529,511,o),
(533,518,o),
(536,525,cs),
(542,535,o),
(546,547,o),
(550,558,cs),
(556,571,o),
(552,583,o),
(542,593,cs),
(499,635,l),
(467,662,l),
(454,656,l),
(470,621,l),
(507,527,ls),
(510,520,o),
(512,513,o),
(521,512,cs)
);
},
{
attr = {
fillColor = (0,255);
};
closed = 1;
nodes = (
(621,522,l),
(711,586,l),
(763,622,l),
(745,648,o),
(723,669,o),
(703,691,c),
(691,686,l),
(694,667,o),
(676,636,o),
(665,622,cs),
(625,569,l),
(586,524,l),
(598,509,l)
);
},
{
attr = {
fillColor = (0,255);
};
closed = 1;
nodes = (
(297,643,l),
(289,635,l),
(290,633,ls),
(314,593,o),
(335,551,o),
(355,509,c),
(363,496,l),
(362,496,l),
(365,494,l),
(364,494,ls),
(373,493,o),
(379,497,o),
(382,505,cs),
(387,514,o),
(390,525,o),
(393,535,cs),
(399,552,o),
(396,566,o),
(381,578,cs),
(302,639,l)
);
}
);
width = 1000;
}
);
unicode = 29234;
}
{
glyphname = uni72BD;
layers = (
{
layerId = m01;
shapes = (
{
attr = {
fillColor = (0,255);
};
closed = 1;
nodes = (
(705,-104,o),
(709,-104,o),
(714,-100,c),
(722,-91,l),
(740,-55,ls),
(745,-44,o),
(748,-33,o),
(748,-21,cs),
(749,33,l),
(748,380,l),
(748,398,l),
(754,399,l),
(856,403,l),
(958,405,l),
(968,407,l),
(975,410,o),
(978,415,o),
(974,422,cs),
(966,433,l),
(935,461,l),
(912,480,l),
(895,469,o),
(878,464,o),
(861,459,cs),
(840,453,o),
(818,451,o),
(796,448,cs),
(748,442,l),
(748,455,l),
(750,513,l),
(752,580,l),
(755,604,l),
(757,612,o),
(754,618,o),
(749,623,cs),
(734,636,l),
(712,653,l),
(756,656,l),
(901,663,l),
(912,664,l),
(920,666,o),
(922,672,o),
(920,679,cs),
(918,687,o),
(914,692,o),
(908,697,cs),
(872,726,l),
(857,737,l),
(840,725,o),
(820,718,o),
(800,713,cs),
(719,698,ls),
(696,694,o),
(673,692,o),
(649,690,cs),
(584,683,l),
(518,678,l),
(459,676,l),
(454,675,l),
(449,662,l),
(500,627,l),
(562,638,o),
(624,644,o),
(686,650,c),
(691,629,o),
(697,451,o),
(693,438,c),
(679,436,o),
(503,419,o),
(496,422,c),
(549,549,l),
(537,571,o),
(518,589,o),
(502,608,c),
(490,605,l),
(490,601,ls),
(491,554,o),
(481,509,o),
(464,465,cs),
(455,442,o),
(441,424,o),
(419,412,c),
(409,405,l),
(449,358,l),
(452,358,l),
(487,374,o),
(524,379,o),
(562,383,cs),
(653,393,l),
(586,253,o),
(493,134,o),
(376,34,c),
(386,24,l),
(396,13,l),
(409,22,ls),
(483,73,o),
(546,135,o),
(601,206,cs),
(633,247,o),
(662,290,o),
(688,335,cs),
(693,343,l),
(695,342,l),
(695,333,l),
(693,74,l),
(691,9,l),
(689,-5,l),
(664,3,o),
(641,12,o),
(618,21,cs),
(547,49,l),
(538,36,l),
(545,31,ls),
(598,-7,o),
(648,-50,o),
(694,-96,c),
(699,-100,ls)
);
},
{
attr = {
fillColor = (0,255);
};
closed = 1;
nodes = (
(333,-76,l),
(344,-60,o),
(354,-44,o),
(360,-26,cs),
(367,-4,o),
(368,19,o),
(369,42,cs),
(372,123,o),
(373,204,o),
(369,285,cs),
(368,330,o),
(366,374,o),
(360,418,cs),
(354,456,o),
(344,492,o),
(326,526,cs),
(315,547,l),
(377,616,ls),
(396,639,o),
(415,662,o),
(438,681,c),
(442,686,l),
(423,720,o),
(401,752,o),
(378,783,c),
(368,780,l),
(368,776,ls),
(371,746,o),
(364,718,o),
(351,692,cs),
(339,666,o),
(323,643,o),
(307,620,cs),
(284,590,l),
(263,615,o),
(241,639,o),
(216,658,cs),
(190,677,o),
(164,695,o),
(136,710,c),
(123,694,l),
(169,650,o),
(213,604,o),
(252,555,c),
(194,489,o),
(128,434,o),
(55,385,c),
(73,364,l),
(148,404,o),
(216,453,o),
(278,511,c),
(289,488,o),
(300,456,o),
(304,424,c),
(300,416,ls),
(287,387,o),
(270,360,o),
(252,335,cs),
(200,263,o),
(137,203,o),
(69,149,cs),
(41,128,l),
(60,108,l),
(157,166,o),
(240,239,o),
(312,327,c),
(314,296,ls),
(315,256,o),
(317,216,o),
(316,176,cs),
(310,25,l),
(307,9,l),
(291,13,l),
(199,51,l),
(163,65,l),
(157,54,l),
(160,51,ls),
(194,25,o),
(226,-3,o),
(257,-33,cs),
(302,-79,ls),
(307,-84,o),
(312,-90,o),
(323,-86,c)
);
}
);
width = 1000;
}
);
unicode = 29373;
}
{
color = 4;
glyphname = uni7487;
layers = (
{
layerId = m01;
shapes = (
{
closed = 1;
nodes = (
(340,37,o),
(406,161,o),
(440,410,cs),
(442,426,o),
(443,438,o),
(449,460,c),
(435,477,o),
(414,498,o),
(393,515,c),
(384,511,l),
(393,473,o),
(391,444,o),
(388,411,cs),
(371,213,o),
(316,71,o),
(166,-57,c),
(179,-74,l)
);
},
{
closed = 1;
nodes = (
(176,146,o),
(265,196,o),
(346,238,c),
(340,255,l),
(263,225,o),
(132,183,o),
(99,174,cs),
(75,167,o),
(52,163,o),
(25,162,c),
(21,152,l),
(46,131,o),
(72,112,o),
(96,98,c)
);
},
{
closed = 1;
nodes = (
(241,195,l),
(243,292,o),
(248,479,o),
(251,518,cs),
(252,540,o),
(253,554,o),
(257,571,c),
(238,583,o),
(220,592,o),
(194,600,c),
(188,596,l),
(191,579,o),
(193,559,o),
(194,534,cs),
(196,476,o),
(197,312,o),
(194,182,c)
);
},
{
closed = 1;
nodes = (
(446,-27,o),
(463,4,o),
(472,32,cs),
(492,92,o),
(515,201,o),
(533,294,cs),
(536,307,o),
(541,323,o),
(548,334,cs),
(554,343,o),
(553,345,o),
(547,351,cs),
(537,362,o),
(520,375,o),
(499,389,c),
(491,382,o),
(482,376,o),
(471,372,cs),
(452,365,o),
(426,359,o),
(401,356,c),
(400,345,l),
(417,336,o),
(430,331,o),
(447,324,c),
(468,331,o),
(478,334,o),
(491,336,c),
(478,223,o),
(438,85,o),
(427,56,cs),
(420,37,o),
(416,30,o),
(412,27,c),
(385,38,o),
(364,47,o),
(335,62,c),
(327,53,l),
(361,19,o),
(390,-22,o),
(403,-46,cs),
(407,-54,o),
(416,-56,o),
(424,-49,cs)
);
},
{
closed = 1;
nodes = (
(172,382,o),
(269,399,o),
(324,404,cs),
(342,406,o),
(346,415,o),
(335,427,cs),
(328,435,o),
(316,445,o),
(298,457,c),
(282,447,o),
(267,441,o),
(240,435,cs),
(201,427,o),
(124,415,o),
(77,410,c),
(74,400,l),
(90,389,o),
(111,378,o),
(127,369,c)
);
},
{
closed = 1;
nodes = (
(556,-32,o),
(606,69,o),
(634,167,cs),
(639,186,o),
(644,198,o),
(650,215,c),
(636,241,o),
(613,270,o),
(593,294,c),
(581,289,l),
(589,258,o),
(587,230,o),
(585,205,cs),
(576,111,o),
(531,-2,o),
(437,-86,c),
(453,-102,l)
);
},
{
closed = 1;
nodes = (
(878,-78,o),
(905,-71,o),
(942,-62,c),
(942,-46,l),
(894,-37,o),
(859,-26,o),
(815,-7,cs),
(747,21,o),
(672,68,o),
(596,118,c),
(583,90,l),
(659,36,o),
(740,-31,o),
(811,-89,cs),
(818,-94,o),
(825,-95,o),
(831,-93,cs)
);
},
{
closed = 1;
nodes = (
(196,599,o),
(297,614,o),
(339,618,cs),
(349,619,o),
(355,628,o),
(345,638,cs),
(334,649,o),
(324,658,o),
(303,675,c),
(278,662,o),
(262,656,o),
(240,650,cs),
(181,635,o),
(124,628,o),
(70,627,c),
(66,617,l),
(88,603,o),
(112,589,o),
(131,580,c)
);
},
{
closed = 1;
nodes = (
(733,98,o),
(734,255,o),
(738,295,cs),
(739,313,o),
(740,321,o),
(742,329,c),
(726,343,o),
(708,354,o),
(686,364,c),
(677,358,l),
(682,339,o),
(685,320,o),
(685,286,cs),
(686,236,o),
(687,120,o),
(683,36,c),
(731,22,l)
);
},
{
closed = 1;
nodes = (
(406,500,o),
(518,518,o),
(581,521,cs),
(594,522,o),
(596,528,o),
(588,539,cs),
(577,555,o),
(567,566,o),
(549,581,c),
(531,570,o),
(510,562,o),
(491,557,cs),
(441,544,o),
(368,528,o),
(293,526,c),
(290,516,l),
(308,503,o),
(326,492,o),
(346,482,c)
);
},
{
closed = 1;
nodes = (
(761,190,o),
(818,194,o),
(859,196,cs),
(879,197,o),
(878,209,o),
(869,221,cs),
(861,230,o),
(848,241,o),
(831,253,c),
(823,248,o),
(809,241,o),
(792,237,cs),
(776,233,o),
(739,227,o),
(710,223,c),
(707,183,l)
);
},
{
closed = 1;
nodes = (
(482,601,o),
(499,607,o),
(507,626,cs),
(516,647,o),
(519,664,o),
(519,683,cs),
(519,693,o),
(514,700,o),
(496,707,cs),
(468,717,o),
(428,733,o),
(384,744,c),
(377,731,l),
(419,699,o),
(449,664,o),
(471,623,cs)
);
},
{
closed = 1;
nodes = (
(815,335,o),
(840,345,o),
(860,349,cs),
(873,352,o),
(882,353,o),
(891,353,cs),
(905,353,o),
(911,362,o),
(899,377,cs),
(877,403,o),
(852,428,o),
(812,456,c),
(801,448,o),
(788,441,o),
(769,436,cs),
(727,425,o),
(635,407,o),
(577,402,c),
(573,392,l),
(584,384,o),
(603,371,o),
(617,363,c),
(666,374,o),
(754,391,o),
(807,399,c),
(801,376,o),
(792,351,o),
(781,328,c),
(789,322,l)
);
},
{
closed = 1;
nodes = (
(644,488,o),
(687,549,o),
(730,652,cs),
(740,676,o),
(745,686,o),
(752,696,c),
(733,724,o),
(704,756,o),
(675,781,c),
(661,772,l),
(677,744,o),
(674,713,o),
(668,679,cs),
(653,600,o),
(609,505,o),
(554,418,c),
(570,408,l)
);
},
{
closed = 1;
nodes = (
(742,534,o),
(847,551,o),
(894,554,cs),
(911,555,o),
(919,564,o),
(907,577,cs),
(898,587,o),
(878,605,o),
(860,618,c),
(840,605,o),
(827,598,o),
(803,592,cs),
(776,585,o),
(707,568,o),
(654,565,c),
(653,555,l),
(665,545,o),
(682,530,o),
(694,523,c)
);
}
);
width = 1000;
},
{
associatedMasterId = m01;
layerId = "48BF4D21-8F47-48CB-B9EE-ABF45BE1E970";
name = "24年12月12日 18:28";
shapes = (
{
closed = 1;
nodes = (
(340,37,o),
(406,161,o),
(440,410,cs),
(442,425,o),
(443,437,o),
(448,456,cs),
(449,460,o),
(447,462,o),
(442,468,cs),
(431,479,o),
(414,496,o),
(393,516,c),
(384,511,l),
(393,473,o),
(391,444,o),
(388,411,cs),
(371,213,o),
(316,71,o),
(166,-57,c),
(179,-74,l)
);
},
{
closed = 1;
nodes = (
(94,101,o),
(97,101,o),
(103,104,cs),
(114,110,o),
(119,112,o),
(129,118,cs),
(201,158,o),
(275,197,o),
(346,239,c),
(340,255,l),
(263,225,o),
(160,194,o),
(99,176,cs),
(75,169,o),
(63,165,o),
(26,161,c),
(21,152,l),
(45,133,o),
(69,117,o),
(89,104,cs)
);
},
{
closed = 1;
nodes = (
(194,162,o),
(241,173,o),
(241,195,cs),
(243,292,o),
(248,486,o),
(251,525,cs),
(252,543,o),
(253,551,o),
(255,563,cs),
(256,567,o),
(255,571,o),
(250,574,cs),
(235,582,o),
(221,590,o),
(194,600,c),
(188,596,l),
(191,579,o),
(193,559,o),
(194,534,cs),
(196,476,o),
(197,312,o),
(194,182,cs)
);
},
{
closed = 1;
nodes = (
(445,-28,o),
(462,0,o),
(470,26,cs),
(490,87,o),
(515,199,o),
(533,294,cs),
(536,307,o),
(541,323,o),
(548,334,cs),
(554,343,o),
(553,346,o),
(547,351,cs),
(535,361,o),
(519,375,o),
(499,389,c),
(491,382,o),
(481,376,o),
(467,371,cs),
(450,364,o),
(423,356,o),
(397,352,c),
(397,347,l),
(415,338,o),
(437,329,o),
(447,324,c),
(469,330,o),
(478,333,o),
(491,336,c),
(476,214,o),
(433,64,o),
(417,33,cs),
(413,25,o),
(412,27,o),
(409,28,cs),
(384,40,o),
(363,49,o),
(335,62,c),
(327,53,l),
(361,19,o),
(391,-26,o),
(404,-46,cs),
(409,-54,o),
(416,-56,o),
(424,-49,cs)
);
},
{
closed = 1;
nodes = (
(148,375,o),
(167,378,o),
(202,386,cs),
(226,391,o),
(284,400,o),
(324,404,cs),
(342,406,o),
(346,415,o),
(335,427,cs),
(328,435,o),
(319,441,o),
(298,457,c),
(280,448,o),
(270,443,o),
(243,436,cs),
(227,431,o),
(187,423,o),
(154,418,cs),
(125,413,o),
(102,411,o),
(78,408,c),
(74,400,l),
(90,389,o),
(111,378,o),
(127,369,c)
);
},
{
closed = 1;
nodes = (
(556,-32,o),
(606,69,o),
(634,167,cs),
(638,183,o),
(642,194,o),
(647,207,cs),
(649,211,o),
(650,215,o),
(646,222,cs),
(632,246,o),
(611,272,o),
(593,294,c),
(581,289,l),
(589,258,o),
(587,230,o),
(585,205,cs),
(576,111,o),
(531,-2,o),
(437,-86,c),
(453,-102,l)
);
},
{
closed = 1;
nodes = (
(878,-78,o),
(905,-71,o),
(942,-62,c),
(942,-46,l),
(878,-33,o),
(830,-16,o),
(781,8,cs),
(719,38,o),
(661,74,o),
(596,117,c),
(583,90,l),
(659,36,o),
(740,-31,o),
(811,-89,cs),
(818,-94,o),
(825,-95,o),
(831,-93,cs)
);
},
{
closed = 1;
nodes = (
(158,588,o),
(184,594,o),
(218,600,cs),
(259,607,o),
(298,614,o),
(339,618,cs),
(349,619,o),
(355,628,o),
(345,638,cs),
(334,649,o),
(324,658,o),
(303,675,c),
(278,662,o),
(262,657,o),
(240,651,cs),
(215,644,o),
(191,639,o),
(169,635,cs),
(144,631,o),
(114,628,o),
(68,627,c),
(65,619,l),
(87,604,o),
(112,590,o),
(131,580,c)
);
},
{
closed = 1;
nodes = (
(733,98,o),
(734,255,o),
(738,295,cs),
(739,310,o),
(740,318,o),
(741,325,cs),
(742,328,o),
(741,331,o),
(734,335,cs),
(724,342,o),
(706,353,o),
(684,363,c),
(679,359,l),
(682,340,o),
(685,320,o),
(685,286,cs),
(686,236,o),
(687,120,o),
(683,36,cs),
(682,3,o),
(730,4,o),
(731,22,cs)
);
},
{
closed = 1;
nodes = (
(366,488,o),
(386,493,o),
(409,497,cs),
(478,511,o),
(520,518,o),
(581,521,cs),
(594,522,o),
(597,530,o),
(587,542,cs),
(576,555,o),
(566,565,o),
(549,581,c),
(529,570,o),
(508,560,o),
(469,551,cs),
(443,545,o),
(414,539,o),
(389,535,cs),
(354,529,o),
(333,526,o),
(289,523,c),
(286,518,l),
(309,504,o),
(327,492,o),
(346,482,c)
);
},
{
closed = 1;
nodes = (
(761,190,o),
(818,194,o),
(859,196,cs),
(879,197,o),
(878,211,o),
(868,221,cs),
(861,228,o),
(848,241,o),
(831,253,c),
(823,248,o),
(809,243,o),
(792,239,cs),
(776,235,o),
(739,224,o),
(710,220,c),
(707,183,l)
);
},
{
closed = 1;
nodes = (
(482,601,o),
(504,610,o),
(510,629,cs),
(516,650,o),
(518,664,o),
(518,683,cs),
(518,693,o),
(514,700,o),
(496,707,cs),
(468,717,o),
(428,733,o),
(384,744,c),
(377,731,l),
(419,699,o),
(449,664,o),
(475,614,cs)
);
},
{
closed = 1;
nodes = (
(827,340,o),
(858,351,o),
(889,351,cs),
(910,351,o),
(910,363,o),
(899,377,cs),
(877,403,o),
(855,422,o),
(811,457,c),
(801,448,o),
(788,442,o),
(769,436,cs),
(731,425,o),
(688,417,o),
(647,409,cs),
(624,405,o),
(598,401,o),
(572,399,c),
(571,394,l),
(582,387,o),
(602,372,o),
(617,363,c),
(639,367,o),
(655,370,o),
(681,376,cs),
(726,385,o),
(754,391,o),
(807,399,c),
(801,376,o),
(790,351,o),
(781,328,c),
(786,324,l)
);
},
{
closed = 1;
nodes = (
(644,488,o),
(687,549,o),
(730,652,cs),
(736,667,o),
(740,677,o),
(744,683,cs),
(751,691,o),
(751,695,o),
(745,704,cs),
(731,725,o),
(701,754,o),
(676,783,c),
(662,774,l),
(678,746,o),
(674,713,o),
(668,679,cs),
(653,600,o),
(610,505,o),
(555,418,c),
(570,408,l)
);
},
{
closed = 1;
nodes = (
(711,528,o),
(733,531,o),
(763,537,cs),
(790,542,o),
(836,549,o),
(894,554,cs),
(911,555,o),
(919,564,o),
(907,577,cs),
(898,587,o),
(880,605,o),
(862,618,c),
(839,607,o),
(828,602,o),
(804,594,cs),
(771,583,o),
(744,576,o),
(707,570,cs),
(696,568,o),
(677,565,o),
(657,561,c),
(653,557,l),
(664,546,o),
(679,530,o),
(690,522,c)
);
}
);
width = 1000;
}
);
unicode = 29831;
}
{
color = 6;
glyphname = uni74A6;
layers = (
{
layerId = m01;
shapes = (
{
attr = {
fillColor = (0,255);
};
closed = 1;
nodes = (
(868,322,o),
(877,324,o),
(880,334,c),
(881,343,l),
(880,385,ls),
(880,395,o),
(875,401,o),
(866,406,cs),
(831,426,l),
(833,428,l),
(850,441,l),
(880,460,o),
(912,474,o),
(946,482,cs),
(955,484,o),
(962,489,o),
(970,495,c),
(960,509,l),
(939,532,o),
(917,552,o),
(893,571,cs),
(890,574,o),
(886,575,o),
(883,577,c),
(855,557,ls),
(847,552,o),
(839,548,o),
(829,547,cs),
(784,540,l),
(744,535,l),
(777,571,ls),
(796,592,o),
(811,616,o),
(835,632,cs),
(841,637,o),
(841,643,o),
(837,649,cs),
(831,658,l),
(799,697,l),
(791,709,l),
(821,721,o),
(850,719,o),
(879,715,c),
(886,724,o),
(886,728,o),
(879,736,cs),
(848,769,l),
(814,801,l),
(805,799,l),
(804,787,o),
(797,779,o),
(786,774,cs),
(767,766,o),
(749,757,o),
(730,750,cs),
(689,736,o),
(647,726,o),
(604,719,cs),
(559,710,o),
(513,703,o),
(468,696,cs),
(416,689,l),
(420,660,l),
(605,680,l),
(696,694,l),
(786,709,l),
(787,707,l),
(778,703,l),
(779,685,o),
(776,668,o),
(768,651,cs),
(760,632,o),
(752,611,o),
(742,592,cs),
(732,571,o),
(720,551,o),
(709,531,c),
(618,522,o),
(528,515,o),
(439,510,c),
(416,564,l),
(402,562,l),
(402,507,ls),
(400,476,o),
(392,446,o),
(375,419,cs),
(351,386,l),
(356,372,o),
(365,358,o),
(375,346,c),
(380,338,o),
(386,338,o),
(393,344,cs),
(403,355,l),
(409,369,o),
(416,382,o),
(421,396,cs),
(430,420,o),
(437,445,o),
(441,470,c),
(464,476,o),
(838,506,o),
(853,503,c),
(842,478,o),
(827,456,o),
(811,434,c),
(736,459,l),
(728,449,l),
(744,437,ls),
(784,406,o),
(822,373,o),
(855,334,cs),
(860,328,l)
);
},
{
attr = {
fillColor = (0,255);
};
closed = 1;
nodes = (
(408,213,l),
(406,221,o),
(405,228,o),
(398,233,c),
(353,217,o),
(311,194,o),
(264,179,c),
(265,249,o),
(265,318,o),
(267,386,c),
(273,388,l),
(321,395,l),
(353,400,ls),
(364,402,o),
(368,412,o),
(360,420,cs),
(326,454,l),
(298,437,o),
(281,429,o),
(268,428,c),
(267,433,l),
(272,564,ls),
(273,575,o),
(270,583,o),
(260,588,cs),
(227,607,l),
(233,609,l),
(305,619,l),
(392,629,ls),
(400,630,o),
(404,634,o),
(402,643,cs),
(401,647,o),
(399,651,o),
(396,654,cs),
(368,681,l),
(354,692,l),
(346,687,ls),
(328,676,o),
(308,667,o),
(286,663,cs),
(211,648,ls),
(178,642,o),
(146,637,o),
(113,635,cs),
(68,632,l),
(65,622,l),
(126,586,l),
(153,596,o),
(181,600,o),
(208,605,c),
(213,568,o),
(218,430,o),
(213,416,c),
(78,398,l),
(78,391,l),
(123,360,ls),
(127,357,o),
(130,358,o),
(135,359,cs),
(208,376,l),
(216,377,l),
(214,304,o),
(216,233,o),
(212,161,c),
(155,137,o),
(96,121,o),
(37,107,c),
(32,96,l),
(100,50,l)
);
},
{
attr = {
fillColor = (0,255);
};
closed = 1;
nodes = (
(306,-95,l),
(419,-67,ls),
(472,-53,o),
(523,-34,o),
(570,-7,cs),
(635,33,l),
(638,31,l),
(700,-17,l),
(777,-79,ls),
(783,-84,o),
(789,-88,o),
(797,-87,cs),
(828,-82,l),
(918,-66,l),
(960,-58,l),
(958,-39,l),
(948,-37,l),
(881,-27,ls),
(854,-22,o),
(827,-15,o),
(801,-5,cs),
(756,13,o),
(713,36,o),
(672,61,c),
(668,65,l),
(696,92,o),
(722,120,o),
(746,150,c),
(784,187,l),
(796,198,l),
(793,208,o),
(786,212,o),
(780,216,cs),
(735,244,l),
(722,251,l),
(703,235,ls),
(693,227,o),
(682,220,o),
(669,218,cs),
(602,204,l),
(552,196,l),
(551,198,l),
(580,234,ls),
(588,243,o),
(588,247,o),
(580,256,cs),
(544,301,l),
(538,307,l),
(527,303,l),
(530,287,o),
(528,272,o),
(522,257,cs),
(512,227,o),
(496,202,o),
(477,178,cs),
(439,130,o),
(394,92,o),
(344,59,cs),
(314,40,l),
(324,20,l),
(389,49,o),
(444,89,o),
(496,135,c),
(533,114,o),
(563,85,o),
(598,63,c),
(554,28,o),
(506,1,o),
(456,-20,cs),
(405,-41,o),
(352,-58,o),
(298,-71,c),
(302,-95,l)
);
},
{
attr = {
fillColor = (0,255);
};
closed = 1;
nodes = (
(579,120,l),
(542,146,l),
(520,159,l),
(531,174,l),
(558,157,l),
(606,168,o),
(653,178,o),
(701,185,c),
(683,147,o),
(656,118,o),
(628,88,c)
);
},
{
attr = {
fillColor = (0,255);
};
closed = 1;
nodes = (
(438,240,o),
(441,243,o),
(443,247,cs),
(458,269,ls),
(470,288,o),
(481,308,o),
(488,330,cs),
(491,339,o),
(495,350,o),
(494,360,cs),
(492,379,o),
(486,397,o),
(482,416,c),
(469,415,l),
(468,362,o),
(441,323,o),
(405,288,c),
(407,272,o),
(412,257,o),
(418,242,cs),
(420,235,o),
(428,233,o),
(434,238,c)
);
},
{
attr = {
fillColor = (0,255);
};
closed = 1;
nodes = (
(636,369,o),
(645,369,o),
(652,380,cs),
(656,388,l),
(661,409,ls),
(664,423,o),
(659,434,o),
(647,443,cs),
(598,478,l),
(589,483,l),
(581,474,l),
(589,458,l),
(611,418,l),
(630,380,ls)
);
},
{
attr = {
fillColor = (0,255);
};
closed = 1;
nodes = (
(540,530,o),
(544,533,o),
(545,537,cs),
(555,566,ls),
(559,579,o),
(554,590,o),
(544,599,cs),
(514,630,l),
(486,658,l),
(474,652,l),
(483,626,l),
(516,537,l),
(518,533,ls),
(522,525,o),
(529,522,o),
(536,527,cs)
);
},
{
attr = {
fillColor = (0,255);
};
closed = 1;
nodes = (
(661,547,l),
(672,561,o),
(679,576,o),
(680,594,cs),
(680,600,o),
(678,604,o),
(675,608,cs),
(617,669,l),
(611,675,l),
(599,668,l),
(602,659,l),
(628,587,l),
(639,554,ls),
(641,547,o),
(644,542,o),
(653,542,c)
);
},
{
attr = {
fillColor = (0,255);
};
closed = 1;
nodes = (
(797,275,ls),
(812,276,o),
(818,288,o),
(806,299,cs),
(786,319,o),
(750,362,o),
(724,406,c),
(715,404,l),
(718,381,l),
(725,340,ls),
(728,321,o),
(725,318,o),
(707,318,cs),
(606,318,o),
(561,373,o),
(532,424,c),
(522,420,l),
(549,301,o),
(652,264,o),
(761,272,cs)
);
}
);
width = 1000;
}
);
unicode = 29862;
}
{
glyphname = uni74E0;
layers = (
{
layerId = m01;
shapes = (
{
attr = {
fillColor = (0,255);
};
closed = 1;
nodes = (
(300,-97,o),
(307,-96,o),
(314,-88,cs),
(336,-64,o),
(355,-39,o),
(366,-8,cs),
(412,122,ls),
(416,133,o),
(421,144,o),
(430,152,cs),
(440,162,l),
(432,174,o),
(409,195,o),
(380,217,c),
(361,203,ls),
(354,197,o),
(346,194,o),
(337,193,cs),
(295,186,l),
(249,180,l),
(280,263,l),
(257,290,l),
(267,291,l),
(403,299,l),
(460,301,ls),
(466,301,o),
(472,303,o),
(477,308,c),
(478,316,o),
(474,321,o),
(470,325,cs),
(439,352,l),
(427,360,l),
(410,354,o),
(396,348,o),
(381,344,cs),
(342,335,o),
(303,330,o),
(263,327,cs),
(204,322,o),
(145,316,o),
(86,316,cs),
(79,316,l),
(78,306,l),
(121,274,l),
(155,280,o),
(190,284,o),
(227,288,c),
(225,269,l),
(212,205,ls),
(208,188,o),
(198,175,o),
(181,170,cs),
(174,168,l),
(168,162,l),
(179,149,o),
(189,136,o),
(201,125,c),
(254,147,o),
(309,150,o),
(365,157,c),
(364,151,ls),
(360,120,o),
(351,90,o),
(340,60,cs),
(318,0,l),
(315,-6,o),
(312,-12,o),
(304,-15,c),
(259,3,o),
(214,25,o),
(169,46,c),
(161,31,l),
(163,29,l),
(212,-4,o),
(255,-42,o),
(292,-88,cs)
);
},
{
attr = {
fillColor = (0,255);
};
closed = 1;
nodes = (
(105,384,l),
(164,424,l),
(195,399,l),
(202,399,l),
(281,411,l),
(366,418,l),
(383,420,l),
(392,424,l),
(394,432,o),
(391,437,o),
(387,441,cs),
(362,464,l),
(352,470,l),
(347,467,ls),
(331,458,o),
(314,452,o),
(296,449,cs),
(224,438,l),
(177,434,l),
(225,478,o),
(263,527,o),
(291,584,c),
(296,584,l),
(411,591,l),
(459,592,ls),
(467,592,o),
(474,593,o),
(479,603,c),
(467,625,o),
(447,639,o),
(429,654,c),
(390,634,o),
(349,627,o),
(307,623,c),
(326,678,ls),
(329,686,o),
(333,694,o),
(338,701,cs),
(345,712,o),
(346,714,o),
(337,725,cs),
(313,754,l),
(277,794,l),
(271,791,l),
(269,789,o),
(268,788,o),
(266,788,c),
(280,729,o),
(268,673,o),
(253,617,c),
(195,612,o),
(138,608,o),
(81,608,c),
(78,598,l),
(124,563,l),
(161,572,o),
(197,576,o),
(235,579,c),
(233,572,l),
(215,536,o),
(192,503,o),
(164,474,cs),
(131,439,o),
(93,409,o),
(55,382,cs),
(32,365,l),
(44,349,l)
);
},
{
attr = {
fillColor = (0,255);
};
closed = 1;
nodes = (
(481,414,o),
(490,418,o),
(490,429,cs),
(491,450,o),
(487,471,o),
(480,491,c),
(421,519,o),
(360,539,o),
(298,559,c),
(291,544,l),
(331,520,ls),
(377,491,o),
(422,461,o),
(464,426,cs),
(472,419,l)
);
},
{
attr = {
fillColor = (0,255);
};
closed = 1;
nodes = (
(389,-117,ls),
(460,-56,o),
(508,19,o),
(534,108,cs),
(546,151,o),
(554,195,o),
(559,240,cs),
(563,280,o),
(568,319,o),
(570,359,cs),
(573,407,o),
(573,455,o),
(575,504,cs),
(575,532,l),
(586,537,l),
(656,565,ls),
(713,590,o),
(769,616,o),
(822,649,cs),
(831,655,o),
(840,659,o),
(851,661,c),
(855,661,o),
(859,663,o),
(862,665,c),
(865,672,o),
(862,676,o),
(859,681,c),
(798,759,l),
(784,755,l),
(787,744,o),
(786,735,o),
(783,725,cs),
(779,715,o),
(773,706,o),
(766,697,cs),
(753,682,o),
(737,669,o),
(722,657,cs),
(678,624,o),
(631,597,o),
(582,572,cs),
(560,562,l),
(542,583,o),
(522,601,o),
(501,618,c),
(492,614,l),
(496,603,ls),
(511,559,o),
(517,513,o),
(518,467,cs),
(519,381,o),
(516,296,o),
(506,210,cs),
(501,166,o),
(493,123,o),
(479,81,cs),
(462,30,o),
(439,-17,o),
(407,-59,cs),
(374,-103,l),
(380,-111,l),
(388,-118,l)
);
},
{
attr = {
fillColor = (0,255);
};
closed = 1;
nodes = (
(661,-21,o),
(710,20,o),
(759,62,c),
(780,7,l),
(793,-30,ls),
(795,-35,o),
(797,-40,o),
(803,-41,cs),
(809,-41,o),
(813,-37,o),
(816,-32,cs),
(819,-27,o),
(822,-21,o),
(823,-14,c),
(827,-2,o),
(829,11,o),
(832,23,cs),
(835,35,o),
(833,45,o),
(826,55,cs),
(817,67,o),
(809,80,o),
(799,92,cs),
(773,125,o),
(745,157,o),
(718,189,cs),
(709,199,l),
(695,190,l),
(747,91,l),
(732,77,o),
(671,40,o),
(659,38,c),
(659,48,l),
(661,104,l),
(666,238,l),
(668,300,l),
(673,398,ls),
(674,419,o),
(676,441,o),
(681,462,cs),
(683,472,l),
(663,492,o),
(640,507,o),
(618,523,c),
(609,517,l),
(615,492,ls),
(619,467,o),
(620,441,o),
(620,415,cs),
(621,324,o),
(620,234,o),
(617,143,cs),
(612,40,ls),
(612,23,o),
(605,11,o),
(588,4,cs),
(575,-2,ls),
(571,-4,o),
(568,-7,o),
(568,-12,c),
(569,-16,l),
(605,-60,ls),
(607,-63,o),
(610,-64,o),
(614,-66,c)
);
},
{
attr = {
fillColor = (0,255);
};
closed = 1;
nodes = (
(1006,37,l),
(940,80,o),
(911,117,o),
(887,159,cs),
(827,264,o),
(775,411,o),
(736,541,cs),
(732,555,o),
(730,558,o),
(720,566,cs),
(704,579,o),
(693,587,o),
(682,592,c),
(670,587,l),
(703,516,o),
(837,112,o),
(856,40,cs),
(861,20,o),
(872,17,o),
(884,18,cs),
(927,20,o),
(962,18,o),
(1005,17,c)
);
}
);
width = 1000;
}
);
unicode = 29920;
}
